<?xml version="1.0" encoding="utf-8"?>
<!-- Generator: Adobe Illustrator 22.1.0, SVG Export Plug-In . SVG Version: 6.00 Build 0)  -->
<svg version="1.1" id="MODELSKETCH_VISIBLE" xmlns="http://www.w3.org/2000/svg" xmlns:xlink="http://www.w3.org/1999/xlink"
	 x="0px" y="0px" viewBox="0 0 284.9 310.4" style="enable-background:new 0 0 284.9 310.4;" xml:space="preserve">
<title>bauble cut 1 deduplicated</title>
<g id="CIRCLE">
	<path style="fill:none;stroke:#000000;stroke-width:0.2835;stroke-linecap:round;stroke-linejoin:round;" d="M44.9,71.7
		c0-0.7,0.6-1.3,1.3-1.3c0.7,0,1.3,0.6,1.3,1.3c0,0.7-0.6,1.3-1.3,1.3c0,0,0,0,0,0C45.5,73.1,44.9,72.5,44.9,71.7
		C44.9,71.7,44.9,71.7,44.9,71.7z"/>
</g>
<g id="CIRCLE-2">
	<path style="fill:none;stroke:#000000;stroke-width:0.2835;stroke-linecap:round;stroke-linejoin:round;" d="M9.7,132.7
		c0-0.7,0.6-1.3,1.3-1.3s1.3,0.6,1.3,1.3c0,0.7-0.6,1.3-1.3,1.3c0,0,0,0,0,0C10.3,134.1,9.7,133.5,9.7,132.7L9.7,132.7z"/>
</g>
<g id="CIRCLE-3">
	<path style="fill:none;stroke:#000000;stroke-width:0.2835;stroke-linecap:round;stroke-linejoin:round;" d="M44.9,264.2
		c0-0.7,0.6-1.3,1.3-1.3c0.7,0,1.3,0.6,1.3,1.3c0,0.7-0.6,1.3-1.3,1.3c0,0,0,0,0,0C45.5,265.5,44.9,264.9,44.9,264.2L44.9,264.2z"/>
</g>
<g id="CIRCLE-4">
	<path style="fill:none;stroke:#000000;stroke-width:0.2835;stroke-linecap:round;stroke-linejoin:round;" d="M105.9,299.4
		c0-0.7,0.6-1.3,1.3-1.3s1.3,0.6,1.3,1.3s-0.6,1.3-1.3,1.3c0,0,0,0,0,0C106.5,300.7,105.9,300.1,105.9,299.4
		C105.9,299.4,105.9,299.4,105.9,299.4z"/>
</g>
<g id="CIRCLE-5">
	<path style="fill:none;stroke:#000000;stroke-width:0.2835;stroke-linecap:round;stroke-linejoin:round;" d="M272.5,203.2
		c0-0.7,0.6-1.3,1.3-1.3c0.7,0,1.3,0.6,1.3,1.3c0,0.7-0.6,1.3-1.3,1.3l0,0C273.1,204.5,272.5,203.9,272.5,203.2z"/>
</g>
<g id="CIRCLE-6">
	<path style="fill:none;stroke:#000000;stroke-width:0.2835;stroke-linecap:round;stroke-linejoin:round;" d="M141,264.5
		c0-0.8,0.6-1.4,1.4-1.4s1.4,0.6,1.4,1.4c0,0.8-0.6,1.4-1.4,1.4S141,265.2,141,264.5L141,264.5z"/>
</g>
<g id="CIRCLE-7">
	<path style="fill:none;stroke:#000000;stroke-width:0.2835;stroke-linecap:round;stroke-linejoin:round;" d="M224.6,216.2
		c0-0.8,0.6-1.4,1.4-1.4s1.4,0.6,1.4,1.4s-0.6,1.4-1.4,1.4l0,0C225.2,217.6,224.6,217,224.6,216.2z"/>
</g>
<g id="CIRCLE-8">
	<path style="fill:none;stroke:#000000;stroke-width:0.2835;stroke-linecap:round;stroke-linejoin:round;" d="M200.3,270.5
		c0-0.8,0.6-1.4,1.4-1.4c0.8,0,1.4,0.6,1.4,1.4c0,0.8-0.6,1.4-1.4,1.4C200.9,271.9,200.3,271.3,200.3,270.5L200.3,270.5z"/>
</g>
<g id="CIRCLE-9">
	<path style="fill:none;stroke:#000000;stroke-width:0.2835;stroke-linecap:round;stroke-linejoin:round;" d="M22.6,168
		c0-0.8,0.6-1.4,1.4-1.4c0.8,0,1.4,0.6,1.4,1.4c0,0.8-0.6,1.4-1.4,1.4h0C23.2,169.4,22.6,168.8,22.6,168z"/>
</g>
<g id="CIRCLE-10">
	<path style="fill:none;stroke:#000000;stroke-width:0.2835;stroke-linecap:round;stroke-linejoin:round;" d="M81.8,65.4
		c0-0.8,0.6-1.4,1.4-1.4c0.8,0,1.4,0.6,1.4,1.4c0,0.8-0.6,1.4-1.4,1.4l0,0C82.4,66.8,81.8,66.2,81.8,65.4z"/>
</g>
<g id="CIRCLE-11">
	<path style="fill:none;stroke:#000000;stroke-width:0.2835;stroke-linecap:round;stroke-linejoin:round;" d="M141,71.5
		c0-0.8,0.6-1.4,1.4-1.4c0.8,0,1.4,0.6,1.4,1.4c0,0.8-0.6,1.4-1.4,1.4c0,0,0,0,0,0C141.6,72.9,141,72.2,141,71.5z"/>
</g>
<g id="ARC">
	<path style="fill:none;stroke:#000000;stroke-width:0.2835;stroke-linecap:round;stroke-linejoin:round;" d="M101.3,191.7
		c1.1,9,2.7,18,5,26.8"/>
</g>
<g id="ARC-2">
	<path style="fill:none;stroke:#000000;stroke-width:0.2835;stroke-linecap:round;stroke-linejoin:round;" d="M80.6,174
		c6.5,6.3,13.4,12.2,20.7,17.7"/>
</g>
<g id="ARC-3">
	<path style="fill:none;stroke:#000000;stroke-width:0.2835;stroke-linecap:round;stroke-linejoin:round;" d="M47,223.1
		c19.9,1.5,39.9-0.1,59.3-4.6"/>
</g>
<g id="ARC-4">
	<path style="fill:none;stroke:#000000;stroke-width:0.2835;stroke-linecap:round;stroke-linejoin:round;" d="M116.8,224.5
		c5.8,19.1,14.4,37.2,25.6,53.7"/>
</g>
<g id="ARC-5">
	<path style="fill:none;stroke:#000000;stroke-width:0.2835;stroke-linecap:round;stroke-linejoin:round;" d="M142.4,278.2
		c11.2-16.5,19.9-34.6,25.7-53.7"/>
</g>
<g id="CIRCLE-12">
	<path style="fill:none;stroke:#000000;stroke-width:0.2835;stroke-linecap:round;stroke-linejoin:round;" d="M141,51.7
		c0-0.8,0.6-1.4,1.4-1.4s1.4,0.6,1.4,1.4s-0.6,1.4-1.4,1.4l0,0C141.6,53.2,141,52.5,141,51.7z"/>
</g>
<g id="ARC-6">
	<path style="fill:none;stroke:#000000;stroke-width:0.2835;stroke-linecap:round;stroke-linejoin:round;" d="M34.4,105.6
		c9.5,23.1,23.1,44.2,40.2,62.4"/>
</g>
<g id="ARC-7">
	<path style="fill:none;stroke:#000000;stroke-width:0.2835;stroke-linecap:round;stroke-linejoin:round;" d="M47,112.8
		c8.7,18,20,34.5,33.7,49.1"/>
</g>
<g id="ARC-8">
	<path style="fill:none;stroke:#000000;stroke-width:0.2835;stroke-linecap:round;stroke-linejoin:round;" d="M106.3,117.4
		c-19.4-4.5-39.4-6.1-59.3-4.6"/>
</g>
<g id="ARC-9">
	<path style="fill:none;stroke:#000000;stroke-width:0.2835;stroke-linecap:round;stroke-linejoin:round;" d="M128.2,26.9
		C50.3,34.8-6.4,104.4,1.4,182.2S78.9,316.8,156.7,309s134.6-77.4,126.7-155.3c-6.8-67-59.7-119.9-126.7-126.7"/>
</g>
<g id="ARC-10">
	<path style="fill:none;stroke:#000000;stroke-width:0.2835;stroke-linecap:round;stroke-linejoin:round;" d="M108.6,109.2
		c-24.3-5.7-49.4-7-74.1-3.7"/>
</g>
<g id="ARC-11">
	<path style="fill:none;stroke:#000000;stroke-width:0.2835;stroke-linecap:round;stroke-linejoin:round;" d="M210.2,168
		c17.1-18.2,30.7-39.3,40.2-62.4"/>
</g>
<g id="CIRCLE-13">
	<path style="fill:none;stroke:#000000;stroke-width:0.2835;stroke-linecap:round;stroke-linejoin:round;" d="M259.5,168
		c0-0.8,0.6-1.4,1.4-1.4s1.4,0.6,1.4,1.4c0,0.8-0.6,1.4-1.4,1.4C260.1,169.4,259.5,168.8,259.5,168L259.5,168z"/>
</g>
<g id="ARC-12">
	<path style="fill:none;stroke:#000000;stroke-width:0.2835;stroke-linecap:round;stroke-linejoin:round;" d="M156.7,26.9
		c5.1-7.9,2.8-18.4-5.1-23.5s-18.4-2.8-23.5,5.1c-3.6,5.6-3.6,12.8,0,18.4"/>
</g>
<g id="ARC-13">
	<path style="fill:none;stroke:#000000;stroke-width:0.2835;stroke-linecap:round;stroke-linejoin:round;" d="M142.4,43.2
		c-15.2,19.7-26.7,42.1-33.9,66"/>
</g>
<g id="ARC-14">
	<path style="fill:none;stroke:#000000;stroke-width:0.2835;stroke-linecap:round;stroke-linejoin:round;" d="M142.4,215.5
		c8.3,3.6,16.9,6.6,25.7,9.1"/>
</g>
<g id="ARC-15">
	<path style="fill:none;stroke:#000000;stroke-width:0.2835;stroke-linecap:round;stroke-linejoin:round;" d="M116.8,224.5
		c8.7-2.5,17.3-5.5,25.6-9.1"/>
</g>
<g id="CIRCLE-14">
	<path style="fill:none;stroke:#000000;stroke-width:0.2835;stroke-linecap:round;stroke-linejoin:round;" d="M237.3,71.7
		c0-0.7,0.6-1.3,1.3-1.3c0.7,0,1.3,0.6,1.3,1.3c0,0.7-0.6,1.3-1.3,1.3c0,0,0,0,0,0C237.9,73.1,237.3,72.5,237.3,71.7
		C237.3,71.7,237.3,71.7,237.3,71.7z"/>
</g>
<g id="LINE">
	<polyline style="fill:none;stroke:#000000;stroke-width:0.2835;stroke-linecap:round;stroke-linejoin:round;" points="267.1,172.2 
		275.7,172.2 275.7,163.7 267.1,163.7 	"/>
</g>
<g id="ARC-16">
	<path style="fill:none;stroke:#000000;stroke-width:0.2835;stroke-linecap:round;stroke-linejoin:round;" d="M142.4,206.2
		c11.6-5.3,22.7-11.7,33.1-19.1"/>
</g>
<g id="CIRCLE-15">
	<path style="fill:none;stroke:#000000;stroke-width:0.2835;stroke-linecap:round;stroke-linejoin:round;" d="M176.3,36.5
		c-0.1-0.7,0.5-1.4,1.2-1.4c0.7-0.1,1.4,0.5,1.4,1.2c0,0.1,0,0.2,0,0.2c-0.1,0.7-0.7,1.3-1.4,1.2C176.9,37.7,176.4,37.2,176.3,36.5z
		"/>
</g>
<g id="CIRCLE-15_1_">
	<path style="fill:none;stroke:#000000;stroke-width:0.2835;stroke-linecap:round;stroke-linejoin:round;" d="M105.9,36.5
		c-0.1-0.7,0.5-1.4,1.2-1.4c0.7-0.1,1.4,0.5,1.4,1.2c0,0.1,0,0.2,0,0.2c-0.1,0.7-0.7,1.3-1.4,1.2C106.5,37.7,106,37.2,105.9,36.5z"
		/>
</g>
<g id="ARC-17">
	<path style="fill:none;stroke:#000000;stroke-width:0.2835;stroke-linecap:round;stroke-linejoin:round;" d="M80.6,174
		c-13.6,14.6-25,31.1-33.6,49.1"/>
</g>
<g id="CIRCLE-16">
	<path style="fill:none;stroke:#000000;stroke-width:0.2835;stroke-linecap:round;stroke-linejoin:round;" d="M224.6,119.7
		c0-0.8,0.6-1.4,1.4-1.4c0.8,0,1.4,0.6,1.4,1.4c0,0.8-0.6,1.4-1.4,1.4l0,0C225.2,121.1,224.6,120.5,224.6,119.7z"/>
</g>
<g id="ARC-18">
	<path style="fill:none;stroke:#000000;stroke-width:0.2835;stroke-linecap:round;stroke-linejoin:round;" d="M175.5,187.1
		c1.3-12.7,1.3-25.5,0-38.2"/>
</g>
<g id="ARC-19">
	<path style="fill:none;stroke:#000000;stroke-width:0.2835;stroke-linecap:round;stroke-linejoin:round;" d="M250.5,105.6
		c-24.7-3.3-49.8-2.1-74.1,3.7"/>
</g>
<g id="ARC-20">
	<path style="fill:none;stroke:#000000;stroke-width:0.2835;stroke-linecap:round;stroke-linejoin:round;" d="M142.4,129.8
		c-11.6,5.3-22.7,11.7-33.1,19.1"/>
</g>
<g id="ARC-21">
	<path style="fill:none;stroke:#000000;stroke-width:0.2835;stroke-linecap:round;stroke-linejoin:round;" d="M175.5,148.9
		c-10.4-7.4-21.5-13.8-33.1-19.1"/>
</g>
<g id="ARC-22">
	<path style="fill:none;stroke:#000000;stroke-width:0.2835;stroke-linecap:round;stroke-linejoin:round;" d="M237.9,112.8
		c-19.9-1.5-39.9,0.1-59.3,4.6"/>
</g>
<g id="CIRCLE-17">
	<path style="fill:none;stroke:#000000;stroke-width:0.2835;stroke-linecap:round;stroke-linejoin:round;" d="M57.5,216.2
		c0-0.8,0.6-1.4,1.4-1.4s1.4,0.6,1.4,1.4c0,0.8-0.6,1.4-1.4,1.4c0,0,0,0,0,0C58.1,217.6,57.5,217,57.5,216.2z"/>
</g>
<g id="ARC-23">
	<path style="fill:none;stroke:#000000;stroke-width:0.2835;stroke-linecap:round;stroke-linejoin:round;" d="M178.6,218.5
		c2.3-8.8,3.9-17.7,5-26.8"/>
</g>
<g id="ARC-24">
	<path style="fill:none;stroke:#000000;stroke-width:0.2835;stroke-linecap:round;stroke-linejoin:round;" d="M183.6,191.7
		c7.3-5.4,14.2-11.3,20.7-17.7"/>
</g>
<g id="ARC-25">
	<path style="fill:none;stroke:#000000;stroke-width:0.2835;stroke-linecap:round;stroke-linejoin:round;" d="M204.3,161.9
		c-6.5-6.3-13.4-12.2-20.7-17.7"/>
</g>
<g id="ARC-26">
	<path style="fill:none;stroke:#000000;stroke-width:0.2835;stroke-linecap:round;stroke-linejoin:round;" d="M183.6,144.2
		c-1.1-9-2.7-18-5-26.8"/>
</g>
<g id="CIRCLE-18">
	<path style="fill:none;stroke:#000000;stroke-width:0.2835;stroke-linecap:round;stroke-linejoin:round;" d="M9.7,203.2
		c0-0.7,0.6-1.3,1.3-1.3c0.7,0,1.3,0.6,1.3,1.3c0,0.7-0.6,1.3-1.3,1.3c0,0,0,0,0,0C10.3,204.5,9.7,203.9,9.7,203.2
		C9.7,203.2,9.7,203.2,9.7,203.2L9.7,203.2z"/>
</g>
<g id="ARC-27">
	<path style="fill:none;stroke:#000000;stroke-width:0.2835;stroke-linecap:round;stroke-linejoin:round;" d="M168.1,111.4
		c-8.7,2.5-17.3,5.5-25.7,9.1"/>
</g>
<g id="ARC-28">
	<path style="fill:none;stroke:#000000;stroke-width:0.2835;stroke-linecap:round;stroke-linejoin:round;" d="M142.4,120.5
		c-8.3-3.6-16.9-6.6-25.7-9.1"/>
</g>
<g id="ARC-29">
	<path style="fill:none;stroke:#000000;stroke-width:0.2835;stroke-linecap:round;stroke-linejoin:round;" d="M106.3,117.4
		c-2.3,8.8-3.9,17.7-5,26.8"/>
</g>
<g id="CIRCLE-19">
	<path style="fill:none;stroke:#000000;stroke-width:0.2835;stroke-linecap:round;stroke-linejoin:round;" d="M17.7,168
		c0-68.9,55.8-124.8,124.7-124.8c68.9,0,124.8,55.8,124.8,124.7c0,68.9-55.8,124.8-124.7,124.8c0,0,0,0-0.1,0
		C73.6,292.7,17.8,236.9,17.7,168z"/>
</g>
<g id="ARC-30">
	<path style="fill:none;stroke:#000000;stroke-width:0.2835;stroke-linecap:round;stroke-linejoin:round;" d="M101.3,144.2
		c-7.3,5.4-14.2,11.3-20.7,17.7"/>
</g>
<g id="CIRCLE-20">
	<path style="fill:none;stroke:#000000;stroke-width:0.2835;stroke-linecap:round;stroke-linejoin:round;" d="M134,17.7
		c0-4.7,3.8-8.5,8.5-8.5s8.5,3.8,8.5,8.5s-3.8,8.5-8.5,8.5c0,0,0,0,0,0C137.8,26.2,134,22.4,134,17.7z"/>
</g>
<g id="ARC-31">
	<path style="fill:none;stroke:#000000;stroke-width:0.2835;stroke-linecap:round;stroke-linejoin:round;" d="M176.4,109.2
		c-7.2-23.9-18.7-46.3-33.9-66"/>
</g>
<g id="LINE-2">
	<polyline style="fill:none;stroke:#000000;stroke-width:0.2835;stroke-linecap:round;stroke-linejoin:round;" points="17.8,163.7 
		9.2,163.7 9.2,172.2 17.8,172.2 	"/>
</g>
<g id="ARC-32">
	<path style="fill:none;stroke:#000000;stroke-width:0.2835;stroke-linecap:round;stroke-linejoin:round;" d="M74.7,168
		c-17.1,18.2-30.7,39.3-40.2,62.4"/>
</g>
<g id="ARC-33">
	<path style="fill:none;stroke:#000000;stroke-width:0.2835;stroke-linecap:round;stroke-linejoin:round;" d="M178.6,218.5
		c19.4,4.5,39.4,6.1,59.3,4.6"/>
</g>
<g id="CIRCLE-21">
	<path style="fill:none;stroke:#000000;stroke-width:0.2835;stroke-linecap:round;stroke-linejoin:round;" d="M237.3,264.2
		c0-0.7,0.6-1.3,1.3-1.3c0.7,0,1.3,0.6,1.3,1.3c0,0.7-0.6,1.3-1.3,1.3c0,0,0,0,0,0C237.9,265.5,237.3,264.9,237.3,264.2L237.3,264.2
		z"/>
</g>
<g id="CIRCLE-22">
	<path style="fill:none;stroke:#000000;stroke-width:0.2835;stroke-linecap:round;stroke-linejoin:round;" d="M200.3,65.4
		c0-0.8,0.6-1.4,1.4-1.4c0.8,0,1.4,0.6,1.4,1.4c0,0.8-0.6,1.4-1.4,1.4l0,0C200.9,66.8,200.3,66.2,200.3,65.4z"/>
</g>
<g id="ARC-34">
	<path style="fill:none;stroke:#000000;stroke-width:0.2835;stroke-linecap:round;stroke-linejoin:round;" d="M237.9,223.1
		c-8.6-18-20-34.5-33.6-49.1"/>
</g>
<g id="ARC-35">
	<path style="fill:none;stroke:#000000;stroke-width:0.2835;stroke-linecap:round;stroke-linejoin:round;" d="M176.4,226.7
		c24.3,5.7,49.4,7,74.1,3.6"/>
</g>
<g id="ARC-36">
	<path style="fill:none;stroke:#000000;stroke-width:0.2835;stroke-linecap:round;stroke-linejoin:round;" d="M142.4,292.7
		c15.2-19.7,26.7-42.1,33.9-66"/>
</g>
<g id="ARC-37">
	<path style="fill:none;stroke:#000000;stroke-width:0.2835;stroke-linecap:round;stroke-linejoin:round;" d="M108.6,226.7
		c7.2,23.9,18.7,46.3,33.9,66"/>
</g>
<g id="ARC-38">
	<path style="fill:none;stroke:#000000;stroke-width:0.2835;stroke-linecap:round;stroke-linejoin:round;" d="M34.4,230.3
		c24.7,3.3,49.8,2.1,74.1-3.6"/>
</g>
<g id="ARC-39">
	<path style="fill:none;stroke:#000000;stroke-width:0.2835;stroke-linecap:round;stroke-linejoin:round;" d="M204.3,161.9
		c13.6-14.5,25-31,33.6-49"/>
</g>
<g id="ARC-40">
	<path style="fill:none;stroke:#000000;stroke-width:0.2835;stroke-linecap:round;stroke-linejoin:round;" d="M142.4,57.7
		c-11.2,16.5-19.9,34.6-25.7,53.7"/>
</g>
<g id="LINE-3">
	<polyline style="fill:none;stroke:#000000;stroke-width:0.2835;stroke-linecap:round;stroke-linejoin:round;" points="138.2,43.3 
		138.2,34.7 146.7,34.7 146.7,43.3 	"/>
</g>
<g id="ARC-41">
	<path style="fill:none;stroke:#000000;stroke-width:0.2835;stroke-linecap:round;stroke-linejoin:round;" d="M250.5,230.3
		c-9.5-23.1-23.1-44.2-40.2-62.3"/>
</g>
<g id="LINE-4">
	<polyline style="fill:none;stroke:#000000;stroke-width:0.2835;stroke-linecap:round;stroke-linejoin:round;" points="146.7,292.6 
		146.7,301.2 138.2,301.2 138.2,292.6 	"/>
</g>
<g id="ARC-42">
	<path style="fill:none;stroke:#000000;stroke-width:0.2835;stroke-linecap:round;stroke-linejoin:round;" d="M168.1,111.4
		c-5.8-19.1-14.4-37.2-25.7-53.7"/>
</g>
<g id="CIRCLE-23">
	<path style="fill:none;stroke:#000000;stroke-width:0.2835;stroke-linecap:round;stroke-linejoin:round;" d="M176.3,299.4
		c0-0.7,0.6-1.3,1.3-1.3s1.3,0.6,1.3,1.3c0,0.7-0.6,1.3-1.3,1.3h0C176.9,300.7,176.3,300.1,176.3,299.4z"/>
</g>
<g id="ARC-43">
	<path style="fill:none;stroke:#000000;stroke-width:0.2835;stroke-linecap:round;stroke-linejoin:round;" d="M109.4,148.9
		c-1.3,12.7-1.3,25.5,0,38.2"/>
</g>
<g id="ARC-44">
	<path style="fill:none;stroke:#000000;stroke-width:0.2835;stroke-linecap:round;stroke-linejoin:round;" d="M109.4,187.1
		c10.4,7.4,21.5,13.8,33.1,19.1"/>
</g>
<g id="ARC-45">
	<path style="fill:none;stroke:#000000;stroke-width:0.2835;stroke-linecap:round;stroke-linejoin:round;" d="M131.9,125.4
		c-7.3,3.6-14.3,7.7-21.1,12.2"/>
</g>
<g id="ARC-46">
	<path style="fill:none;stroke:#000000;stroke-width:0.2835;stroke-linecap:round;stroke-linejoin:round;" d="M114.5,119.6
		c-1.5,5.9-2.7,11.9-3.7,18"/>
</g>
<g id="ARC-47">
	<path style="fill:none;stroke:#000000;stroke-width:0.2835;stroke-linecap:round;stroke-linejoin:round;" d="M131.9,125.4
		c-5.7-2.2-11.5-4.1-17.4-5.8"/>
</g>
<g id="ARC-48">
	<path style="fill:none;stroke:#000000;stroke-width:0.2835;stroke-linecap:round;stroke-linejoin:round;" d="M170.4,119.6
		c-5.9,1.7-11.7,3.6-17.4,5.8"/>
</g>
<g id="ARC-49">
	<path style="fill:none;stroke:#000000;stroke-width:0.2835;stroke-linecap:round;stroke-linejoin:round;" d="M174.1,137.5
		c-1-6-2.2-12-3.7-18"/>
</g>
<g id="ARC-50">
	<path style="fill:none;stroke:#000000;stroke-width:0.2835;stroke-linecap:round;stroke-linejoin:round;" d="M174.1,137.5
		c-6.8-4.5-13.8-8.6-21.1-12.2"/>
</g>
<g id="CIRCLE-24">
	<path style="fill:none;stroke:#000000;stroke-width:0.2835;stroke-linecap:round;stroke-linejoin:round;" d="M81.8,270.5
		c0-0.8,0.6-1.4,1.4-1.4c0.8,0,1.4,0.6,1.4,1.4s-0.6,1.4-1.4,1.4c0,0,0,0,0,0C82.4,271.9,81.8,271.3,81.8,270.5L81.8,270.5
		L81.8,270.5z"/>
</g>
<g id="ARC-51">
	<path style="fill:none;stroke:#000000;stroke-width:0.2835;stroke-linecap:round;stroke-linejoin:round;" d="M198.3,168
		c-4.4-4.3-9-8.3-13.7-12.2"/>
</g>
<g id="ARC-52">
	<path style="fill:none;stroke:#000000;stroke-width:0.2835;stroke-linecap:round;stroke-linejoin:round;" d="M184.6,180.2
		c0.5-8.1,0.5-16.3,0-24.4"/>
</g>
<g id="ARC-53">
	<path style="fill:none;stroke:#000000;stroke-width:0.2835;stroke-linecap:round;stroke-linejoin:round;" d="M184.6,180.2
		c4.8-3.9,9.3-7.9,13.7-12.2"/>
</g>
<g id="CIRCLE-25">
	<path style="fill:none;stroke:#000000;stroke-width:0.2835;stroke-linecap:round;stroke-linejoin:round;" d="M272.5,132.7
		c-0.1-0.7,0.5-1.4,1.2-1.4c0.7-0.1,1.4,0.5,1.4,1.2c0,0.1,0,0.2,0,0.2c-0.1,0.7-0.7,1.3-1.4,1.2
		C273.1,133.9,272.6,133.4,272.5,132.7z"/>
</g>
<g id="ARC-54">
	<path style="fill:none;stroke:#000000;stroke-width:0.2835;stroke-linecap:round;stroke-linejoin:round;" d="M153,210.6
		c7.3-3.6,14.3-7.7,21.1-12.2"/>
</g>
<g id="ARC-55">
	<path style="fill:none;stroke:#000000;stroke-width:0.2835;stroke-linecap:round;stroke-linejoin:round;" d="M170.4,216.4
		c1.5-5.9,2.7-11.9,3.7-18"/>
</g>
<g id="ARC-56">
	<path style="fill:none;stroke:#000000;stroke-width:0.2835;stroke-linecap:round;stroke-linejoin:round;" d="M153,210.6
		c5.7,2.2,11.5,4.1,17.4,5.8"/>
</g>
<g id="ARC-57">
	<path style="fill:none;stroke:#000000;stroke-width:0.2835;stroke-linecap:round;stroke-linejoin:round;" d="M110.8,198.4
		c6.8,4.5,13.8,8.5,21.1,12.2"/>
</g>
<g id="ARC-58">
	<path style="fill:none;stroke:#000000;stroke-width:0.2835;stroke-linecap:round;stroke-linejoin:round;" d="M114.5,216.4
		c5.9-1.7,11.7-3.6,17.4-5.8"/>
</g>
<g id="ARC-59">
	<path style="fill:none;stroke:#000000;stroke-width:0.2835;stroke-linecap:round;stroke-linejoin:round;" d="M110.8,198.4
		c1,6,2.2,12,3.7,18"/>
</g>
<g id="ARC-60">
	<path style="fill:none;stroke:#000000;stroke-width:0.2835;stroke-linecap:round;stroke-linejoin:round;" d="M100.3,155.8
		c-0.5,8.1-0.5,16.3,0,24.4"/>
</g>
<g id="ARC-61">
	<path style="fill:none;stroke:#000000;stroke-width:0.2835;stroke-linecap:round;stroke-linejoin:round;" d="M100.3,155.8
		c-4.8,3.9-9.3,7.9-13.7,12.2"/>
</g>
<g id="CIRCLE-26">
	<path style="fill:none;stroke:#000000;stroke-width:0.2835;stroke-linecap:round;stroke-linejoin:round;" d="M57.5,119.7
		c0-0.8,0.6-1.4,1.4-1.4c0.8,0,1.4,0.6,1.4,1.4c0,0.8-0.6,1.4-1.4,1.4c0,0,0,0,0,0C58.1,121.1,57.5,120.5,57.5,119.7z"/>
</g>
<g id="ARC-62">
	<path style="fill:none;stroke:#000000;stroke-width:0.2835;stroke-linecap:round;stroke-linejoin:round;" d="M86.6,168
		c4.4,4.3,9,8.3,13.7,12.2"/>
</g>
<g id="CIRCLE-8_1_">
	<path style="fill:none;stroke:#000000;stroke-width:0.2835;stroke-linecap:round;stroke-linejoin:round;" d="M179,233.7
		c0-0.8,0.6-1.4,1.4-1.4s1.4,0.6,1.4,1.4c0,0.8-0.6,1.4-1.4,1.4S179,234.4,179,233.7L179,233.7z"/>
</g>
<g id="CIRCLE-9_1_">
	<path style="fill:none;stroke:#000000;stroke-width:0.2835;stroke-linecap:round;stroke-linejoin:round;" d="M65.3,168
		c0-0.7,0.6-1.2,1.2-1.2c0.7,0,1.2,0.6,1.2,1.2c0,0.7-0.6,1.2-1.2,1.2l0,0C65.9,169.2,65.3,168.7,65.3,168z"/>
</g>
<g id="CIRCLE-10_1_">
	<path style="fill:none;stroke:#000000;stroke-width:0.2835;stroke-linecap:round;stroke-linejoin:round;" d="M103.1,102.2
		c0-0.8,0.6-1.4,1.4-1.4c0.8,0,1.4,0.6,1.4,1.4c0,0.8-0.6,1.4-1.4,1.4l0,0C103.7,103.7,103.1,103,103.1,102.2z"/>
</g>
<g id="CIRCLE-13_1_">
	<path style="fill:none;stroke:#000000;stroke-width:0.2835;stroke-linecap:round;stroke-linejoin:round;" d="M216.9,168
		c0-0.8,0.6-1.4,1.4-1.4c0.8,0,1.4,0.6,1.4,1.4c0,0.8-0.6,1.4-1.4,1.4S216.9,168.8,216.9,168L216.9,168z"/>
</g>
<g id="CIRCLE-22_1_">
	<path style="fill:none;stroke:#000000;stroke-width:0.2835;stroke-linecap:round;stroke-linejoin:round;" d="M179,102.2
		c0-0.8,0.6-1.4,1.4-1.4c0.8,0,1.4,0.6,1.4,1.4c0,0.8-0.6,1.4-1.4,1.4l0,0C179.6,103.7,179,103,179,102.2z"/>
</g>
<g id="CIRCLE-24_1_">
	<path style="fill:none;stroke:#000000;stroke-width:0.2835;stroke-linecap:round;stroke-linejoin:round;" d="M103.1,233.7
		c0-0.8,0.6-1.4,1.4-1.4c0.8,0,1.4,0.6,1.4,1.4c0,0.8-0.6,1.4-1.4,1.4c0,0,0,0,0,0C103.7,235.1,103.1,234.4,103.1,233.7L103.1,233.7
		L103.1,233.7z"/>
</g>
<g id="CIRCLE-6_1_">
	<path style="fill:none;stroke:#000000;stroke-width:0.2835;stroke-linecap:round;stroke-linejoin:round;" d="M141,223.6
		c0-0.8,0.6-1.4,1.4-1.4s1.4,0.6,1.4,1.4c0,0.8-0.6,1.4-1.4,1.4S141,224.4,141,223.6L141,223.6z"/>
</g>
<g id="CIRCLE-7_1_">
	<path style="fill:none;stroke:#000000;stroke-width:0.2835;stroke-linecap:round;stroke-linejoin:round;" d="M189.2,195.8
		c0-0.8,0.6-1.4,1.4-1.4c0.8,0,1.4,0.6,1.4,1.4c0,0.8-0.6,1.4-1.4,1.4l0,0C189.9,197.2,189.2,196.6,189.2,195.8z"/>
</g>
<g id="CIRCLE-11_1_">
	<path style="fill:none;stroke:#000000;stroke-width:0.2835;stroke-linecap:round;stroke-linejoin:round;" d="M141,112.3
		c0-0.8,0.6-1.4,1.4-1.4c0.8,0,1.4,0.6,1.4,1.4c0,0.8-0.6,1.4-1.4,1.4c0,0,0,0,0,0C141.7,113.7,141,113.1,141,112.3z"/>
</g>
<g id="CIRCLE-16_1_">
	<path style="fill:none;stroke:#000000;stroke-width:0.2835;stroke-linecap:round;stroke-linejoin:round;" d="M189.2,140.1
		c0-0.8,0.6-1.4,1.4-1.4c0.8,0,1.4,0.6,1.4,1.4s-0.6,1.4-1.4,1.4l0,0C189.9,141.5,189.2,140.9,189.2,140.1z"/>
</g>
<g id="CIRCLE-17_1_">
	<path style="fill:none;stroke:#000000;stroke-width:0.2835;stroke-linecap:round;stroke-linejoin:round;" d="M92.8,195.8
		c0-0.8,0.6-1.4,1.4-1.4c0.8,0,1.4,0.6,1.4,1.4c0,0.8-0.6,1.4-1.4,1.4c0,0,0,0,0,0C93.5,197.2,92.8,196.6,92.8,195.8z"/>
</g>
<g id="CIRCLE-26_1_">
	<path style="fill:none;stroke:#000000;stroke-width:0.2835;stroke-linecap:round;stroke-linejoin:round;" d="M92.8,140.1
		c0-0.8,0.6-1.4,1.4-1.4c0.8,0,1.4,0.6,1.4,1.4c0,0.8-0.6,1.4-1.4,1.4c0,0,0,0,0,0C93.5,141.5,92.8,140.9,92.8,140.1z"/>
</g>
<g id="CIRCLE-6_2_">
	<path style="fill:none;stroke:#000000;stroke-width:0.2835;stroke-linecap:round;stroke-linejoin:round;" d="M141,198.1
		c0-0.8,0.6-1.4,1.4-1.4s1.4,0.6,1.4,1.4c0,0.8-0.6,1.4-1.4,1.4S141,198.9,141,198.1L141,198.1z"/>
</g>
<g id="CIRCLE-7_2_">
	<path style="fill:none;stroke:#000000;stroke-width:0.2835;stroke-linecap:round;stroke-linejoin:round;" d="M167.1,183
		c0-0.8,0.6-1.4,1.4-1.4s1.4,0.6,1.4,1.4s-0.6,1.4-1.4,1.4l0,0C167.8,184.4,167.2,183.8,167.1,183z"/>
</g>
<g id="CIRCLE-11_2_">
	<path style="fill:none;stroke:#000000;stroke-width:0.2835;stroke-linecap:round;stroke-linejoin:round;" d="M141,137.8
		c0-0.8,0.6-1.4,1.4-1.4s1.4,0.6,1.4,1.4c0,0.8-0.6,1.4-1.4,1.4c0,0,0,0,0,0C141.7,139.2,141,138.6,141,137.8z"/>
</g>
<g id="CIRCLE-16_2_">
	<path style="fill:none;stroke:#000000;stroke-width:0.2835;stroke-linecap:round;stroke-linejoin:round;" d="M167.1,152.9
		c0-0.8,0.6-1.4,1.4-1.4s1.4,0.6,1.4,1.4c0,0.8-0.6,1.4-1.4,1.4l0,0C167.8,154.3,167.2,153.7,167.1,152.9z"/>
</g>
<g id="CIRCLE-17_2_">
	<path style="fill:none;stroke:#000000;stroke-width:0.2835;stroke-linecap:round;stroke-linejoin:round;" d="M114.9,183
		c0-0.8,0.6-1.4,1.4-1.4c0.8,0,1.4,0.6,1.4,1.4c0,0.8-0.6,1.4-1.4,1.4c0,0,0,0,0,0C115.6,184.4,114.9,183.8,114.9,183z"/>
</g>
<g id="CIRCLE-26_2_">
	<path style="fill:none;stroke:#000000;stroke-width:0.2835;stroke-linecap:round;stroke-linejoin:round;" d="M114.9,152.9
		c0-0.8,0.6-1.4,1.4-1.4c0.8,0,1.4,0.6,1.4,1.4c0,0.8-0.6,1.4-1.4,1.4c0,0,0,0,0,0C115.6,154.3,114.9,153.7,114.9,152.9z"/>
</g>
</svg>
