<svg id="MODELSKETCH_VISIBLE" xmlns="http://www.w3.org/2000/svg" viewBox="0 0 841.89 595.28"><title>bauble cut 3 deduplicated</title><g id="CIRCLE" style="opacity:0.5"><path d="M450.26,411.81a1.42,1.42,0,1,1,1.42,1.42,1.43,1.43,0,0,1-1.42-1.42Z" style="fill:none;stroke:#000;stroke-miterlimit:10;stroke-width:0.28346458077430725px"/></g><g id="LINE" style="opacity:0.5"><line x1="426.4" y1="306.12" x2="464.82" y2="344.55" style="fill:none;stroke:#000;stroke-miterlimit:10;stroke-width:0.28346458077430725px"/></g><g id="LINE-2" data-name="LINE" style="opacity:0.5"><line x1="430.35" y1="302.17" x2="468.83" y2="340.54" style="fill:none;stroke:#000;stroke-miterlimit:10;stroke-width:0.28346458077430725px"/></g><g id="LINE-3" data-name="LINE" style="opacity:0.5"><line x1="430.35" y1="302.17" x2="482.83" y2="316.24" style="fill:none;stroke:#000;stroke-miterlimit:10;stroke-width:0.28346458077430725px"/></g><g id="LINE-4" data-name="LINE" style="opacity:0.5"><line x1="431.79" y1="296.78" x2="484.28" y2="282.71" style="fill:none;stroke:#000;stroke-miterlimit:10;stroke-width:0.28346458077430725px"/></g><g id="LINE-5" data-name="LINE" style="opacity:0.5"><line x1="430.35" y1="291.38" x2="482.81" y2="277.24" style="fill:none;stroke:#000;stroke-miterlimit:10;stroke-width:0.28346458077430725px"/></g><g id="CIRCLE-2" data-name="CIRCLE" style="opacity:0.5"><path d="M384.46,428.2a1.33,1.33,0,1,1,1.32,1.33,1.32,1.32,0,0,1-1.32-1.33Z" style="fill:none;stroke:#000;stroke-miterlimit:10;stroke-width:0.28346458077430725px"/></g><g id="LINE-6" data-name="LINE" style="opacity:0.5"><line x1="426.4" y1="287.43" x2="464.76" y2="248.95" style="fill:none;stroke:#000;stroke-miterlimit:10;stroke-width:0.28346458077430725px"/></g><g id="CIRCLE-3" data-name="CIRCLE" style="opacity:0.5"><path d="M442.14,309.78a1.38,1.38,0,1,1,2.75,0,1.38,1.38,0,0,1-2.75,0Z" style="fill:none;stroke:#000;stroke-miterlimit:10;stroke-width:0.28346458077430725px"/></g><g id="LINE-7" data-name="LINE" style="opacity:0.5"><line x1="426.4" y1="287.43" x2="440.46" y2="234.94" style="fill:none;stroke:#000;stroke-miterlimit:10;stroke-width:0.28346458077430725px"/></g><g id="CIRCLE-4" data-name="CIRCLE" style="opacity:0.5"><path d="M335.5,212.49a1.42,1.42,0,1,1,1.41,1.42,1.42,1.42,0,0,1-1.41-1.42Z" style="fill:none;stroke:#000;stroke-miterlimit:10;stroke-width:0.28346458077430725px"/></g><g id="LINE-8" data-name="LINE" style="opacity:0.5"><line x1="421" y1="285.98" x2="434.98" y2="233.47" style="fill:none;stroke:#000;stroke-miterlimit:10;stroke-width:0.28346458077430725px"/></g><g id="LINE-9" data-name="LINE" style="opacity:0.5"><line x1="421" y1="285.98" x2="406.94" y2="233.49" style="fill:none;stroke:#000;stroke-miterlimit:10;stroke-width:0.28346458077430725px"/></g><g id="CIRCLE-5" data-name="CIRCLE" style="opacity:0.5"><path d="M503.87,212.69a1.42,1.42,0,1,1,1.41,1.42,1.42,1.42,0,0,1-1.41-1.42Z" style="fill:none;stroke:#000;stroke-miterlimit:10;stroke-width:0.28346458077430725px"/></g><g id="LINE-10" data-name="LINE" style="opacity:0.5"><line x1="359.17" y1="277.32" x2="328.83" y2="243.56" style="fill:none;stroke:#000;stroke-miterlimit:10;stroke-width:0.28346458077430725px"/></g><g id="LINE-11" data-name="LINE" style="opacity:0.5"><line x1="410.21" y1="296.78" x2="357.72" y2="310.84" style="fill:none;stroke:#000;stroke-miterlimit:10;stroke-width:0.28346458077430725px"/></g><g id="LINE-12" data-name="LINE" style="opacity:0.5"><line x1="287.77" y1="292.52" x2="287.77" y2="301.03" style="fill:none;stroke:#000;stroke-miterlimit:10;stroke-width:0.28346458077430725px"/></g><g id="LINE-13" data-name="LINE" style="opacity:0.5"><line x1="401.54" y1="358.61" x2="367.78" y2="388.95" style="fill:none;stroke:#000;stroke-miterlimit:10;stroke-width:0.28346458077430725px"/></g><g id="CIRCLE-6" data-name="CIRCLE" style="opacity:0.5"><path d="M288.25,332a1.33,1.33,0,1,1,1.32,1.33,1.32,1.32,0,0,1-1.32-1.33Z" style="fill:none;stroke:#000;stroke-miterlimit:10;stroke-width:0.28346458077430725px"/></g><g id="LINE-14" data-name="LINE" style="opacity:0.5"><line x1="411.65" y1="302.17" x2="359.19" y2="316.32" style="fill:none;stroke:#000;stroke-miterlimit:10;stroke-width:0.28346458077430725px"/></g><g id="LINE-15" data-name="LINE" style="opacity:0.5"><line x1="279.33" y1="301.03" x2="287.77" y2="301.03" style="fill:none;stroke:#000;stroke-miterlimit:10;stroke-width:0.28346458077430725px"/></g><g id="LINE-16" data-name="LINE" style="opacity:0.5"><line x1="421" y1="307.57" x2="407.02" y2="360.08" style="fill:none;stroke:#000;stroke-miterlimit:10;stroke-width:0.28346458077430725px"/></g><g id="LINE-17" data-name="LINE" style="opacity:0.5"><line x1="554.23" y1="301.03" x2="562.67" y2="301.03" style="fill:none;stroke:#000;stroke-miterlimit:10;stroke-width:0.28346458077430725px"/></g><g id="LINE-18" data-name="LINE" style="opacity:0.5"><line x1="482.83" y1="316.24" x2="513.17" y2="349.99" style="fill:none;stroke:#000;stroke-miterlimit:10;stroke-width:0.28346458077430725px"/></g><g id="CIRCLE-7" data-name="CIRCLE" style="opacity:0.5"><path d="M388.9,181.74a1.42,1.42,0,1,1,1.42,1.42,1.43,1.43,0,0,1-1.42-1.42Z" style="fill:none;stroke:#000;stroke-miterlimit:10;stroke-width:0.28346458077430725px"/></g><g id="LINE-19" data-name="LINE" style="opacity:0.5"><line x1="416.75" y1="163.55" x2="425.25" y2="163.55" style="fill:none;stroke:#000;stroke-miterlimit:10;stroke-width:0.28346458077430725px"/></g><g id="CIRCLE-8" data-name="CIRCLE" style="opacity:0.5"><path d="M338.6,343.53A1.42,1.42,0,1,1,340,345a1.42,1.42,0,0,1-1.42-1.42Z" style="fill:none;stroke:#000;stroke-miterlimit:10;stroke-width:0.28346458077430725px"/></g><g id="LINE-20" data-name="LINE" style="opacity:0.5"><line x1="468.83" y1="340.54" x2="513.17" y2="349.99" style="fill:none;stroke:#000;stroke-miterlimit:10;stroke-width:0.28346458077430725px"/></g><g id="CIRCLE-9" data-name="CIRCLE" style="opacity:0.5"><path d="M419.58,183.56A1.42,1.42,0,1,1,421,185a1.42,1.42,0,0,1-1.42-1.41Z" style="fill:none;stroke:#000;stroke-miterlimit:10;stroke-width:0.28346458077430725px"/></g><g id="ARC" style="opacity:0.5"><path d="M279.33,301a141.73,141.73,0,0,0,283.34,0" style="fill:none;stroke:#000;stroke-miterlimit:10;stroke-width:0.28346458077430725px"/></g><g id="LINE-21" data-name="LINE" style="opacity:0.5"><line x1="430.35" y1="291.38" x2="468.77" y2="252.96" style="fill:none;stroke:#000;stroke-miterlimit:10;stroke-width:0.28346458077430725px"/></g><g id="CIRCLE-10" data-name="CIRCLE" style="opacity:0.5"><path d="M419.58,322.78a1.42,1.42,0,1,1,1.42,1.41,1.42,1.42,0,0,1-1.42-1.41Z" style="fill:none;stroke:#000;stroke-miterlimit:10;stroke-width:0.28346458077430725px"/></g><g id="LINE-22" data-name="LINE" style="opacity:0.5"><line x1="440.54" y1="358.59" x2="474.22" y2="388.95" style="fill:none;stroke:#000;stroke-miterlimit:10;stroke-width:0.28346458077430725px"/></g><g id="LINE-23" data-name="LINE" style="opacity:0.5"><line x1="407.02" y1="360.08" x2="421" y2="403.21" style="fill:none;stroke:#000;stroke-miterlimit:10;stroke-width:0.28346458077430725px"/></g><g id="CIRCLE-11" data-name="CIRCLE" style="opacity:0.5"><path d="M497,317.77a1.42,1.42,0,1,1,1.42,1.42,1.42,1.42,0,0,1-1.42-1.42Z" style="fill:none;stroke:#000;stroke-miterlimit:10;stroke-width:0.28346458077430725px"/></g><g id="LINE-24" data-name="LINE" style="opacity:0.5"><line x1="411.65" y1="302.17" x2="373.23" y2="340.6" style="fill:none;stroke:#000;stroke-miterlimit:10;stroke-width:0.28346458077430725px"/></g><g id="CIRCLE-12" data-name="CIRCLE" style="opacity:0.5"><path d="M362.67,353.36a1.42,1.42,0,1,1,1.42,1.42,1.43,1.43,0,0,1-1.42-1.42Z" style="fill:none;stroke:#000;stroke-miterlimit:10;stroke-width:0.28346458077430725px"/></g><g id="LINE-25" data-name="LINE" style="opacity:0.5"><line x1="279.33" y1="292.52" x2="287.77" y2="292.52" style="fill:none;stroke:#000;stroke-miterlimit:10;stroke-width:0.28346458077430725px"/></g><g id="LINE-26" data-name="LINE" style="opacity:0.5"><line x1="435.06" y1="360.06" x2="421" y2="403.21" style="fill:none;stroke:#000;stroke-miterlimit:10;stroke-width:0.28346458077430725px"/></g><g id="LINE-27" data-name="LINE" style="opacity:0.5"><line x1="484.3" y1="310.76" x2="527.43" y2="296.78" style="fill:none;stroke:#000;stroke-miterlimit:10;stroke-width:0.28346458077430725px"/></g><g id="LINE-28" data-name="LINE" style="opacity:0.5"><line x1="484.28" y1="282.71" x2="527.43" y2="296.78" style="fill:none;stroke:#000;stroke-miterlimit:10;stroke-width:0.28346458077430725px"/></g><g id="LINE-29" data-name="LINE" style="opacity:0.5"><line x1="416.75" y1="421.43" x2="416.75" y2="430" style="fill:none;stroke:#000;stroke-miterlimit:10;stroke-width:0.28346458077430725px"/></g><g id="LINE-30" data-name="LINE" style="opacity:0.5"><line x1="370.89" y1="246.67" x2="358.64" y2="188.76" style="fill:none;stroke:#000;stroke-miterlimit:10;stroke-width:0.28346458077430725px"/></g><g id="LINE-31" data-name="LINE" style="opacity:0.5"><line x1="402.66" y1="228.32" x2="358.64" y2="188.76" style="fill:none;stroke:#000;stroke-miterlimit:10;stroke-width:0.28346458077430725px"/></g><g id="CIRCLE-13" data-name="CIRCLE" style="opacity:0.5"><path d="M440.13,374.35a1.42,1.42,0,1,1,1.42,1.42,1.42,1.42,0,0,1-1.42-1.42Z" style="fill:none;stroke:#000;stroke-miterlimit:10;stroke-width:0.28346458077430725px"/></g><g id="LINE-32" data-name="LINE" style="opacity:0.5"><line x1="352.55" y1="278.43" x2="312.99" y2="234.41" style="fill:none;stroke:#000;stroke-miterlimit:10;stroke-width:0.28346458077430725px"/></g><g id="LINE-33" data-name="LINE" style="opacity:0.5"><line x1="439.34" y1="228.32" x2="421" y2="172.05" style="fill:none;stroke:#000;stroke-miterlimit:10;stroke-width:0.28346458077430725px"/></g><g id="LINE-34" data-name="LINE" style="opacity:0.5"><line x1="554.23" y1="292.52" x2="554.23" y2="301.03" style="fill:none;stroke:#000;stroke-miterlimit:10;stroke-width:0.28346458077430725px"/></g><g id="CIRCLE-14" data-name="CIRCLE" style="opacity:0.5"><path d="M304.62,265.83a1.42,1.42,0,1,1,1.42,1.41,1.42,1.42,0,0,1-1.42-1.41Z" style="fill:none;stroke:#000;stroke-miterlimit:10;stroke-width:0.28346458077430725px"/></g><g id="LINE-35" data-name="LINE" style="opacity:0.5"><line x1="352.55" y1="278.43" x2="296.28" y2="296.78" style="fill:none;stroke:#000;stroke-miterlimit:10;stroke-width:0.28346458077430725px"/></g><g id="LINE-36" data-name="LINE" style="opacity:0.5"><line x1="439.34" y1="228.32" x2="483.36" y2="188.76" style="fill:none;stroke:#000;stroke-miterlimit:10;stroke-width:0.28346458077430725px"/></g><g id="CIRCLE-15" data-name="CIRCLE" style="opacity:0.5"><path d="M445.58,296.78a1.42,1.42,0,1,1,1.42,1.41,1.42,1.42,0,0,1-1.42-1.41Z" style="fill:none;stroke:#000;stroke-miterlimit:10;stroke-width:0.28346458077430725px"/></g><g id="LINE-37" data-name="LINE" style="opacity:0.5"><line x1="357.7" y1="282.79" x2="314.57" y2="296.78" style="fill:none;stroke:#000;stroke-miterlimit:10;stroke-width:0.28346458077430725px"/></g><g id="CIRCLE-16" data-name="CIRCLE" style="opacity:0.5"><path d="M500.57,250a1.42,1.42,0,1,1,1.41,1.42,1.42,1.42,0,0,1-1.41-1.42Z" style="fill:none;stroke:#000;stroke-miterlimit:10;stroke-width:0.28346458077430725px"/></g><g id="LINE-38" data-name="LINE" style="opacity:0.5"><line x1="357.72" y1="310.84" x2="314.57" y2="296.78" style="fill:none;stroke:#000;stroke-miterlimit:10;stroke-width:0.28346458077430725px"/></g><g id="CIRCLE-17" data-name="CIRCLE" style="opacity:0.5"><path d="M384.46,165.35a1.33,1.33,0,1,1,1.32,1.32,1.33,1.33,0,0,1-1.32-1.32Z" style="fill:none;stroke:#000;stroke-miterlimit:10;stroke-width:0.28346458077430725px"/></g><g id="LINE-39" data-name="LINE" style="opacity:0.5"><line x1="352.55" y1="315.12" x2="312.99" y2="359.14" style="fill:none;stroke:#000;stroke-miterlimit:10;stroke-width:0.28346458077430725px"/></g><g id="CIRCLE-18" data-name="CIRCLE" style="opacity:0.5"><path d="M406.58,319.29a1.42,1.42,0,1,1,1.42,1.42,1.42,1.42,0,0,1-1.42-1.42Z" style="fill:none;stroke:#000;stroke-miterlimit:10;stroke-width:0.28346458077430725px"/></g><g id="LINE-40" data-name="LINE" style="opacity:0.5"><line x1="359.19" y1="316.32" x2="328.83" y2="349.99" style="fill:none;stroke:#000;stroke-miterlimit:10;stroke-width:0.28346458077430725px"/></g><g id="LINE-41" data-name="LINE" style="opacity:0.5"><line x1="377.24" y1="344.6" x2="367.78" y2="388.95" style="fill:none;stroke:#000;stroke-miterlimit:10;stroke-width:0.28346458077430725px"/></g><g id="LINE-42" data-name="LINE" style="opacity:0.5"><line x1="415.6" y1="287.43" x2="377.18" y2="249" style="fill:none;stroke:#000;stroke-miterlimit:10;stroke-width:0.28346458077430725px"/></g><g id="CIRCLE-19" data-name="CIRCLE" style="opacity:0.5"><path d="M476.49,240.19a1.42,1.42,0,1,1,1.42,1.42,1.42,1.42,0,0,1-1.42-1.42Z" style="fill:none;stroke:#000;stroke-miterlimit:10;stroke-width:0.28346458077430725px"/></g><g id="LINE-43" data-name="LINE" style="opacity:0.5"><line x1="402.66" y1="365.23" x2="421" y2="421.5" style="fill:none;stroke:#000;stroke-miterlimit:10;stroke-width:0.28346458077430725px"/></g><g id="CIRCLE-20" data-name="CIRCLE" style="opacity:0.5"><path d="M419.58,270.77a1.42,1.42,0,1,1,1.42,1.42,1.42,1.42,0,0,1-1.42-1.42Z" style="fill:none;stroke:#000;stroke-miterlimit:10;stroke-width:0.28346458077430725px"/></g><g id="LINE-44" data-name="LINE" style="opacity:0.5"><line x1="411.65" y1="291.38" x2="373.17" y2="253.01" style="fill:none;stroke:#000;stroke-miterlimit:10;stroke-width:0.28346458077430725px"/></g><g id="CIRCLE-21" data-name="CIRCLE" style="opacity:0.5"><path d="M515.89,393a1.33,1.33,0,1,1,1.32,1.32,1.32,1.32,0,0,1-1.32-1.32Z" style="fill:none;stroke:#000;stroke-miterlimit:10;stroke-width:0.28346458077430725px"/></g><g id="LINE-45" data-name="LINE" style="opacity:0.5"><line x1="411.65" y1="291.38" x2="359.17" y2="277.32" style="fill:none;stroke:#000;stroke-miterlimit:10;stroke-width:0.28346458077430725px"/></g><g id="LINE-46" data-name="LINE" style="opacity:0.5"><line x1="370.89" y1="346.89" x2="312.99" y2="359.14" style="fill:none;stroke:#000;stroke-miterlimit:10;stroke-width:0.28346458077430725px"/></g><g id="LINE-47" data-name="LINE" style="opacity:0.5"><line x1="373.23" y1="340.6" x2="328.83" y2="349.99" style="fill:none;stroke:#000;stroke-miterlimit:10;stroke-width:0.28346458077430725px"/></g><g id="LINE-48" data-name="LINE" style="opacity:0.5"><line x1="377.18" y1="249" x2="367.78" y2="204.6" style="fill:none;stroke:#000;stroke-miterlimit:10;stroke-width:0.28346458077430725px"/></g><g id="LINE-49" data-name="LINE" style="opacity:0.5"><line x1="416.75" y1="430" x2="425.25" y2="430" style="fill:none;stroke:#000;stroke-miterlimit:10;stroke-width:0.28346458077430725px"/></g><g id="LINE-50" data-name="LINE" style="opacity:0.5"><line x1="464.82" y1="344.55" x2="474.22" y2="388.95" style="fill:none;stroke:#000;stroke-miterlimit:10;stroke-width:0.28346458077430725px"/></g><g id="CIRCLE-22" data-name="CIRCLE" style="opacity:0.5"><path d="M503.67,381.06a1.42,1.42,0,1,1,1.42,1.42,1.42,1.42,0,0,1-1.42-1.42Z" style="fill:none;stroke:#000;stroke-miterlimit:10;stroke-width:0.28346458077430725px"/></g><g id="LINE-51" data-name="LINE" style="opacity:0.5"><line x1="402.66" y1="365.23" x2="358.64" y2="404.79" style="fill:none;stroke:#000;stroke-miterlimit:10;stroke-width:0.28346458077430725px"/></g><g id="LINE-52" data-name="LINE" style="opacity:0.5"><line x1="401.46" y1="234.96" x2="367.78" y2="204.6" style="fill:none;stroke:#000;stroke-miterlimit:10;stroke-width:0.28346458077430725px"/></g><g id="CIRCLE-23" data-name="CIRCLE" style="opacity:0.5"><path d="M397.06,283.77a1.42,1.42,0,1,1,1.42,1.42,1.42,1.42,0,0,1-1.42-1.42Z" style="fill:none;stroke:#000;stroke-miterlimit:10;stroke-width:0.28346458077430725px"/></g><g id="LINE-53" data-name="LINE" style="opacity:0.5"><line x1="406.94" y1="233.49" x2="421" y2="190.35" style="fill:none;stroke:#000;stroke-miterlimit:10;stroke-width:0.28346458077430725px"/></g><g id="LINE-54" data-name="LINE" style="opacity:0.5"><line x1="415.6" y1="306.12" x2="401.54" y2="358.61" style="fill:none;stroke:#000;stroke-miterlimit:10;stroke-width:0.28346458077430725px"/></g><g id="CIRCLE-24" data-name="CIRCLE" style="opacity:0.5"><path d="M338.6,250a1.42,1.42,0,1,1,1.42,1.42A1.42,1.42,0,0,1,338.6,250Z" style="fill:none;stroke:#000;stroke-miterlimit:10;stroke-width:0.28346458077430725px"/></g><g id="LINE-55" data-name="LINE" style="opacity:0.5"><line x1="554.23" y1="292.52" x2="562.67" y2="292.52" style="fill:none;stroke:#000;stroke-miterlimit:10;stroke-width:0.28346458077430725px"/></g><g id="LINE-56" data-name="LINE" style="opacity:0.5"><line x1="434.98" y1="233.47" x2="421" y2="190.35" style="fill:none;stroke:#000;stroke-miterlimit:10;stroke-width:0.28346458077430725px"/></g><g id="CIRCLE-25" data-name="CIRCLE" style="opacity:0.5"><path d="M440.58,219.32a1.42,1.42,0,1,1,1.41,1.42,1.42,1.42,0,0,1-1.41-1.42Z" style="fill:none;stroke:#000;stroke-miterlimit:10;stroke-width:0.28346458077430725px"/></g><g id="LINE-57" data-name="LINE" style="opacity:0.5"><line x1="421" y1="307.57" x2="435.06" y2="360.06" style="fill:none;stroke:#000;stroke-miterlimit:10;stroke-width:0.28346458077430725px"/></g><g id="CIRCLE-26" data-name="CIRCLE" style="opacity:0.5"><path d="M534.62,266.1a1.42,1.42,0,1,1,1.41,1.41,1.41,1.41,0,0,1-1.41-1.41Z" style="fill:none;stroke:#000;stroke-miterlimit:10;stroke-width:0.28346458077430725px"/></g><g id="LINE-58" data-name="LINE" style="opacity:0.5"><line x1="426.4" y1="306.12" x2="440.54" y2="358.59" style="fill:none;stroke:#000;stroke-miterlimit:10;stroke-width:0.28346458077430725px"/></g><g id="ARC-2" data-name="ARC" style="opacity:0.5"><path d="M562.67,292.52a141.73,141.73,0,0,0-283.34,0" style="fill:none;stroke:#000;stroke-miterlimit:10;stroke-width:0.28346458077430725px"/></g><g id="LINE-59" data-name="LINE" style="opacity:0.5"><line x1="464.76" y1="248.95" x2="474.22" y2="204.6" style="fill:none;stroke:#000;stroke-miterlimit:10;stroke-width:0.28346458077430725px"/></g><g id="CIRCLE-27" data-name="CIRCLE" style="opacity:0.5"><path d="M415.88,296.78A5.12,5.12,0,1,1,421,301.9a5.13,5.13,0,0,1-5.12-5.12Z" style="fill:none;stroke:#000;stroke-miterlimit:10;stroke-width:0.28346458077430725px"/></g><g id="LINE-60" data-name="LINE" style="opacity:0.5"><line x1="425.25" y1="421.43" x2="425.25" y2="430" style="fill:none;stroke:#000;stroke-miterlimit:10;stroke-width:0.28346458077430725px"/></g><g id="LINE-61" data-name="LINE" style="opacity:0.5"><line x1="468.77" y1="252.96" x2="513.17" y2="243.56" style="fill:none;stroke:#000;stroke-miterlimit:10;stroke-width:0.28346458077430725px"/></g><g id="CIRCLE-28" data-name="CIRCLE" style="opacity:0.5"><path d="M432.58,274.26a1.42,1.42,0,1,1,1.42,1.41,1.42,1.42,0,0,1-1.42-1.41Z" style="fill:none;stroke:#000;stroke-miterlimit:10;stroke-width:0.28346458077430725px"/></g><g id="LINE-62" data-name="LINE" style="opacity:0.5"><line x1="482.81" y1="277.24" x2="513.17" y2="243.56" style="fill:none;stroke:#000;stroke-miterlimit:10;stroke-width:0.28346458077430725px"/></g><g id="CIRCLE-29" data-name="CIRCLE" style="opacity:0.5"><path d="M398.59,374.23a1.42,1.42,0,1,1,1.42,1.42,1.42,1.42,0,0,1-1.42-1.42Z" style="fill:none;stroke:#000;stroke-miterlimit:10;stroke-width:0.28346458077430725px"/></g><g id="LINE-63" data-name="LINE" style="opacity:0.5"><line x1="410.21" y1="296.78" x2="357.7" y2="282.79" style="fill:none;stroke:#000;stroke-miterlimit:10;stroke-width:0.28346458077430725px"/></g><g id="LINE-64" data-name="LINE" style="opacity:0.5"><line x1="416.75" y1="163.55" x2="416.75" y2="172.12" style="fill:none;stroke:#000;stroke-miterlimit:10;stroke-width:0.28346458077430725px"/></g><g id="CIRCLE-30" data-name="CIRCLE" style="opacity:0.5"><path d="M534.54,327.72a1.42,1.42,0,1,1,1.42,1.42,1.42,1.42,0,0,1-1.42-1.42Z" style="fill:none;stroke:#000;stroke-miterlimit:10;stroke-width:0.28346458077430725px"/></g><g id="CIRCLE-31" data-name="CIRCLE" style="opacity:0.5"><path d="M406.58,274.26a1.42,1.42,0,1,1,1.42,1.41,1.42,1.42,0,0,1-1.42-1.41Z" style="fill:none;stroke:#000;stroke-miterlimit:10;stroke-width:0.28346458077430725px"/></g><g id="CIRCLE-32" data-name="CIRCLE" style="opacity:0.5"><path d="M442.1,283.77a1.42,1.42,0,1,1,1.42,1.42,1.42,1.42,0,0,1-1.42-1.42Z" style="fill:none;stroke:#000;stroke-miterlimit:10;stroke-width:0.28346458077430725px"/></g><g id="CIRCLE-33" data-name="CIRCLE" style="opacity:0.5"><path d="M432.58,319.29a1.42,1.42,0,1,1,1.42,1.42,1.42,1.42,0,0,1-1.42-1.42Z" style="fill:none;stroke:#000;stroke-miterlimit:10;stroke-width:0.28346458077430725px"/></g><g id="CIRCLE-34" data-name="CIRCLE" style="opacity:0.5"><path d="M397.06,309.78a1.42,1.42,0,1,1,1.42,1.41,1.42,1.42,0,0,1-1.42-1.41Z" style="fill:none;stroke:#000;stroke-miterlimit:10;stroke-width:0.28346458077430725px"/></g><g id="CIRCLE-35" data-name="CIRCLE" style="opacity:0.5"><path d="M288.25,261.56a1.33,1.33,0,1,1,1.32,1.32,1.33,1.33,0,0,1-1.32-1.32Z" style="fill:none;stroke:#000;stroke-miterlimit:10;stroke-width:0.28346458077430725px"/></g><g id="CIRCLE-36" data-name="CIRCLE" style="opacity:0.5"><path d="M551.1,261.56a1.33,1.33,0,1,1,1.33,1.32,1.33,1.33,0,0,1-1.33-1.32Z" style="fill:none;stroke:#000;stroke-miterlimit:10;stroke-width:0.28346458077430725px"/></g><g id="CIRCLE-37" data-name="CIRCLE" style="opacity:0.5"><path d="M323.46,200.56a1.33,1.33,0,1,1,1.33,1.33,1.33,1.33,0,0,1-1.33-1.33Z" style="fill:none;stroke:#000;stroke-miterlimit:10;stroke-width:0.28346458077430725px"/></g><g id="LINE-65" data-name="LINE" style="opacity:0.5"><line x1="373.17" y1="253.01" x2="328.83" y2="243.56" style="fill:none;stroke:#000;stroke-miterlimit:10;stroke-width:0.28346458077430725px"/></g><g id="CIRCLE-38" data-name="CIRCLE" style="opacity:0.5"><path d="M419.58,203.26a1.42,1.42,0,1,1,1.42,1.42,1.42,1.42,0,0,1-1.42-1.42Z" style="fill:none;stroke:#000;stroke-miterlimit:10;stroke-width:0.28346458077430725px"/></g><g id="CIRCLE-39" data-name="CIRCLE" style="opacity:0.5"><path d="M450.53,181.81a1.42,1.42,0,1,1,1.42,1.42,1.42,1.42,0,0,1-1.42-1.42Z" style="fill:none;stroke:#000;stroke-miterlimit:10;stroke-width:0.28346458077430725px"/></g><g id="CIRCLE-40" data-name="CIRCLE" style="opacity:0.5"><path d="M454.89,165.35a1.33,1.33,0,1,1,1.33,1.32,1.33,1.33,0,0,1-1.33-1.32Z" style="fill:none;stroke:#000;stroke-miterlimit:10;stroke-width:0.28346458077430725px"/></g><g id="LINE-66" data-name="LINE" style="opacity:0.5"><line x1="471.11" y1="346.89" x2="483.36" y2="404.79" style="fill:none;stroke:#000;stroke-miterlimit:10;stroke-width:0.28346458077430725px"/></g><g id="CIRCLE-41" data-name="CIRCLE" style="opacity:0.5"><path d="M466.34,215.79a1.42,1.42,0,1,1,1.42,1.42,1.42,1.42,0,0,1-1.42-1.42Z" style="fill:none;stroke:#000;stroke-miterlimit:10;stroke-width:0.28346458077430725px"/></g><g id="CIRCLE-42" data-name="CIRCLE" style="opacity:0.5"><path d="M515.89,200.56a1.33,1.33,0,1,1,1.32,1.33,1.32,1.32,0,0,1-1.32-1.33Z" style="fill:none;stroke:#000;stroke-miterlimit:10;stroke-width:0.28346458077430725px"/></g><g id="CIRCLE-43" data-name="CIRCLE" style="opacity:0.5"><path d="M497.16,276.23a1.42,1.42,0,1,1,1.42,1.42,1.42,1.42,0,0,1-1.42-1.42Z" style="fill:none;stroke:#000;stroke-miterlimit:10;stroke-width:0.28346458077430725px"/></g><g id="LINE-67" data-name="LINE" style="opacity:0.5"><line x1="425.25" y1="163.55" x2="425.25" y2="172.12" style="fill:none;stroke:#000;stroke-miterlimit:10;stroke-width:0.28346458077430725px"/></g><g id="CIRCLE-44" data-name="CIRCLE" style="opacity:0.5"><path d="M372.83,215.79a1.42,1.42,0,1,1,1.41,1.42,1.42,1.42,0,0,1-1.41-1.42Z" style="fill:none;stroke:#000;stroke-miterlimit:10;stroke-width:0.28346458077430725px"/></g><g id="LINE-68" data-name="LINE" style="opacity:0.5"><line x1="352.55" y1="315.12" x2="296.28" y2="296.78" style="fill:none;stroke:#000;stroke-miterlimit:10;stroke-width:0.28346458077430725px"/></g><g id="CIRCLE-45" data-name="CIRCLE" style="opacity:0.5"><path d="M513.1,296.78a1.42,1.42,0,1,1,1.41,1.41,1.41,1.41,0,0,1-1.41-1.41Z" style="fill:none;stroke:#000;stroke-miterlimit:10;stroke-width:0.28346458077430725px"/></g><g id="CIRCLE-46" data-name="CIRCLE" style="opacity:0.5"><path d="M551.1,332a1.33,1.33,0,1,1,1.33,1.33A1.32,1.32,0,0,1,551.1,332Z" style="fill:none;stroke:#000;stroke-miterlimit:10;stroke-width:0.28346458077430725px"/></g><g id="CIRCLE-47" data-name="CIRCLE" style="opacity:0.5"><path d="M500.57,343.53A1.42,1.42,0,1,1,502,345a1.42,1.42,0,0,1-1.41-1.42Z" style="fill:none;stroke:#000;stroke-miterlimit:10;stroke-width:0.28346458077430725px"/></g><g id="LINE-69" data-name="LINE" style="opacity:0.5"><line x1="489.45" y1="315.12" x2="545.72" y2="296.78" style="fill:none;stroke:#000;stroke-miterlimit:10;stroke-width:0.28346458077430725px"/></g><g id="CIRCLE-48" data-name="CIRCLE" style="opacity:0.5"><path d="M476.17,353.68a1.42,1.42,0,1,1,1.41,1.42,1.41,1.41,0,0,1-1.41-1.42Z" style="fill:none;stroke:#000;stroke-miterlimit:10;stroke-width:0.28346458077430725px"/></g><g id="CIRCLE-49" data-name="CIRCLE" style="opacity:0.5"><path d="M466.34,377.76a1.42,1.42,0,1,1,1.42,1.42,1.42,1.42,0,0,1-1.42-1.42Z" style="fill:none;stroke:#000;stroke-miterlimit:10;stroke-width:0.28346458077430725px"/></g><g id="LINE-70" data-name="LINE" style="opacity:0.5"><line x1="415.6" y1="287.43" x2="401.46" y2="234.96" style="fill:none;stroke:#000;stroke-miterlimit:10;stroke-width:0.28346458077430725px"/></g><g id="CIRCLE-50" data-name="CIRCLE" style="opacity:0.5"><path d="M419.58,390.29a1.42,1.42,0,1,1,1.42,1.42,1.43,1.43,0,0,1-1.42-1.42Z" style="fill:none;stroke:#000;stroke-miterlimit:10;stroke-width:0.28346458077430725px"/></g><g id="LINE-71" data-name="LINE" style="opacity:0.5"><line x1="402.66" y1="228.32" x2="421" y2="172.05" style="fill:none;stroke:#000;stroke-miterlimit:10;stroke-width:0.28346458077430725px"/></g><g id="CIRCLE-51" data-name="CIRCLE" style="opacity:0.5"><path d="M388.63,411.74a1.42,1.42,0,1,1,1.42,1.42,1.43,1.43,0,0,1-1.42-1.42Z" style="fill:none;stroke:#000;stroke-miterlimit:10;stroke-width:0.28346458077430725px"/></g><g id="CIRCLE-52" data-name="CIRCLE" style="opacity:0.5"><path d="M372.83,377.76a1.42,1.42,0,1,1,1.41,1.42,1.42,1.42,0,0,1-1.41-1.42Z" style="fill:none;stroke:#000;stroke-miterlimit:10;stroke-width:0.28346458077430725px"/></g><g id="CIRCLE-53" data-name="CIRCLE" style="opacity:0.5"><path d="M335.3,380.86a1.42,1.42,0,1,1,1.42,1.42,1.42,1.42,0,0,1-1.42-1.42Z" style="fill:none;stroke:#000;stroke-miterlimit:10;stroke-width:0.28346458077430725px"/></g><g id="LINE-72" data-name="LINE" style="opacity:0.5"><line x1="440.46" y1="234.94" x2="474.22" y2="204.6" style="fill:none;stroke:#000;stroke-miterlimit:10;stroke-width:0.28346458077430725px"/></g><g id="CIRCLE-54" data-name="CIRCLE" style="opacity:0.5"><path d="M323.46,393a1.33,1.33,0,1,1,1.33,1.32,1.33,1.33,0,0,1-1.33-1.32Z" style="fill:none;stroke:#000;stroke-miterlimit:10;stroke-width:0.28346458077430725px"/></g><g id="LINE-73" data-name="LINE" style="opacity:0.5"><line x1="471.11" y1="246.67" x2="529.01" y2="234.41" style="fill:none;stroke:#000;stroke-miterlimit:10;stroke-width:0.28346458077430725px"/></g><g id="CIRCLE-55" data-name="CIRCLE" style="opacity:0.5"><path d="M454.89,428.2a1.33,1.33,0,1,1,1.33,1.33,1.32,1.32,0,0,1-1.33-1.33Z" style="fill:none;stroke:#000;stroke-miterlimit:10;stroke-width:0.28346458077430725px"/></g><g id="LINE-74" data-name="LINE" style="opacity:0.5"><line x1="431.79" y1="296.78" x2="484.3" y2="310.76" style="fill:none;stroke:#000;stroke-miterlimit:10;stroke-width:0.28346458077430725px"/></g><g id="CIRCLE-56" data-name="CIRCLE" style="opacity:0.5"><path d="M342,317.32a1.42,1.42,0,1,1,1.41,1.42,1.41,1.41,0,0,1-1.41-1.42Z" style="fill:none;stroke:#000;stroke-miterlimit:10;stroke-width:0.28346458077430725px"/></g><g id="CIRCLE-57" data-name="CIRCLE" style="opacity:0.5"><path d="M304.55,327.45a1.42,1.42,0,1,1,1.42,1.42,1.41,1.41,0,0,1-1.42-1.42Z" style="fill:none;stroke:#000;stroke-miterlimit:10;stroke-width:0.28346458077430725px"/></g><g id="LINE-75" data-name="LINE" style="opacity:0.5"><line x1="471.11" y1="246.67" x2="483.36" y2="188.76" style="fill:none;stroke:#000;stroke-miterlimit:10;stroke-width:0.28346458077430725px"/></g><g id="CIRCLE-58" data-name="CIRCLE" style="opacity:0.5"><path d="M393.58,296.78a1.42,1.42,0,1,1,1.42,1.41,1.42,1.42,0,0,1-1.42-1.41Z" style="fill:none;stroke:#000;stroke-miterlimit:10;stroke-width:0.28346458077430725px"/></g><g id="LINE-76" data-name="LINE" style="opacity:0.5"><line x1="489.45" y1="278.43" x2="529.01" y2="234.41" style="fill:none;stroke:#000;stroke-miterlimit:10;stroke-width:0.28346458077430725px"/></g><g id="LINE-77" data-name="LINE" style="opacity:0.5"><line x1="489.45" y1="278.43" x2="545.72" y2="296.78" style="fill:none;stroke:#000;stroke-miterlimit:10;stroke-width:0.28346458077430725px"/></g><g id="LINE-78" data-name="LINE" style="opacity:0.5"><line x1="471.11" y1="346.89" x2="529.01" y2="359.14" style="fill:none;stroke:#000;stroke-miterlimit:10;stroke-width:0.28346458077430725px"/></g><g id="LINE-79" data-name="LINE" style="opacity:0.5"><line x1="439.34" y1="365.23" x2="483.36" y2="404.79" style="fill:none;stroke:#000;stroke-miterlimit:10;stroke-width:0.28346458077430725px"/></g><g id="LINE-80" data-name="LINE" style="opacity:0.5"><line x1="439.34" y1="365.23" x2="421" y2="421.5" style="fill:none;stroke:#000;stroke-miterlimit:10;stroke-width:0.28346458077430725px"/></g><g id="LINE-81" data-name="LINE" style="opacity:0.5"><line x1="370.89" y1="246.67" x2="312.99" y2="234.41" style="fill:none;stroke:#000;stroke-miterlimit:10;stroke-width:0.28346458077430725px"/></g><g id="CIRCLE-59" data-name="CIRCLE" style="opacity:0.5"><path d="M363,239.87a1.42,1.42,0,1,1,1.42,1.41,1.41,1.41,0,0,1-1.42-1.41Z" style="fill:none;stroke:#000;stroke-miterlimit:10;stroke-width:0.28346458077430725px"/></g><g id="LINE-82" data-name="LINE" style="opacity:0.5"><line x1="489.45" y1="315.12" x2="529.01" y2="359.14" style="fill:none;stroke:#000;stroke-miterlimit:10;stroke-width:0.28346458077430725px"/></g><g id="CIRCLE-60" data-name="CIRCLE" style="opacity:0.5"><path d="M326.07,296.78a1.42,1.42,0,1,1,1.42,1.41,1.41,1.41,0,0,1-1.42-1.41Z" style="fill:none;stroke:#000;stroke-miterlimit:10;stroke-width:0.28346458077430725px"/></g><g id="CIRCLE-61" data-name="CIRCLE" style="opacity:0.5"><path d="M399,219.2a1.42,1.42,0,1,1,1.42,1.42A1.43,1.43,0,0,1,399,219.2Z" style="fill:none;stroke:#000;stroke-miterlimit:10;stroke-width:0.28346458077430725px"/></g><g id="LINE-83" data-name="LINE" style="opacity:0.5"><line x1="415.6" y1="306.12" x2="377.24" y2="344.6" style="fill:none;stroke:#000;stroke-miterlimit:10;stroke-width:0.28346458077430725px"/></g><g id="CIRCLE-62" data-name="CIRCLE" style="opacity:0.5"><path d="M342.13,275.78a1.42,1.42,0,1,1,1.41,1.42,1.41,1.41,0,0,1-1.41-1.42Z" style="fill:none;stroke:#000;stroke-miterlimit:10;stroke-width:0.28346458077430725px"/></g><g id="LINE-84" data-name="LINE" style="opacity:0.5"><line x1="370.89" y1="346.89" x2="358.64" y2="404.79" style="fill:none;stroke:#000;stroke-miterlimit:10;stroke-width:0.28346458077430725px"/></g><g id="CIRCLE-63" data-name="CIRCLE" style="opacity:0.5"><path d="M296.28,296.78A124.72,124.72,0,1,1,421,421.5,124.72,124.72,0,0,1,296.28,296.78Z" style="fill:none;stroke:#000;stroke-miterlimit:10;stroke-width:0.28346458077430725px"/></g></svg>