<svg id="MODELSKETCH_VISIBLE" xmlns="http://www.w3.org/2000/svg" viewBox="0 0 283.62 283.62"><title>bauble cut 2 deduplicated</title><g id="CIRCLE"><path d="M64,121.1a1.42,1.42,0,1,1,1.41,1.42A1.42,1.42,0,0,1,64,121.1Z" style="fill:none;stroke:#000;stroke-linecap:round;stroke-linejoin:round;stroke-width:0.28346458077430725px"/></g><g id="CIRCLE-2" data-name="CIRCLE"><path d="M233.91,141.81a1.42,1.42,0,1,1,1.41,1.42,1.42,1.42,0,0,1-1.41-1.42Z" style="fill:none;stroke:#000;stroke-linecap:round;stroke-linejoin:round;stroke-width:0.28346458077430725px"/></g><g id="CIRCLE-3" data-name="CIRCLE"><path d="M237.6,85.69A1.42,1.42,0,1,1,239,87.1a1.42,1.42,0,0,1-1.42-1.41Z" style="fill:none;stroke:#000;stroke-linecap:round;stroke-linejoin:round;stroke-width:0.28346458077430725px"/></g><g id="CIRCLE-4" data-name="CIRCLE"><path d="M237.6,197.81a1.42,1.42,0,1,1,1.42,1.42,1.43,1.43,0,0,1-1.42-1.42Z" style="fill:none;stroke:#000;stroke-linecap:round;stroke-linejoin:round;stroke-width:0.28346458077430725px"/></g><g id="CIRCLE-5" data-name="CIRCLE"><path d="M120.12,65.28a1.42,1.42,0,1,1,1.42,1.41,1.42,1.42,0,0,1-1.42-1.41Z" style="fill:none;stroke:#000;stroke-linecap:round;stroke-linejoin:round;stroke-width:0.28346458077430725px"/></g><g id="CIRCLE-6" data-name="CIRCLE"><path d="M236.7,238a1.33,1.33,0,0,1,2.65,0,1.33,1.33,0,1,1-2.65,0Z" style="fill:none;stroke:#000;stroke-linecap:round;stroke-linejoin:round;stroke-width:0.28346458077430725px"/></g><g id="CIRCLE-7" data-name="CIRCLE"><path d="M175.7,273.24a1.33,1.33,0,1,1,1.33,1.32,1.33,1.33,0,0,1-1.33-1.32Z" style="fill:none;stroke:#000;stroke-linecap:round;stroke-linejoin:round;stroke-width:0.28346458077430725px"/></g><g id="CIRCLE-8" data-name="CIRCLE"><path d="M9.06,177a1.33,1.33,0,1,1,1.32,1.32A1.32,1.32,0,0,1,9.06,177Z" style="fill:none;stroke:#000;stroke-linecap:round;stroke-linejoin:round;stroke-width:0.28346458077430725px"/></g><g id="CIRCLE-9" data-name="CIRCLE"><path d="M105.27,10.38a1.33,1.33,0,1,1,1.32,1.33,1.32,1.32,0,0,1-1.32-1.33Z" style="fill:none;stroke:#000;stroke-linecap:round;stroke-linejoin:round;stroke-width:0.28346458077430725px"/></g><g id="CIRCLE-10" data-name="CIRCLE"><path d="M84.27,44.6A1.42,1.42,0,1,1,85.69,46a1.42,1.42,0,0,1-1.42-1.42Z" style="fill:none;stroke:#000;stroke-linecap:round;stroke-linejoin:round;stroke-width:0.28346458077430725px"/></g><g id="CIRCLE-11" data-name="CIRCLE"><path d="M221.38,188.57a1.42,1.42,0,1,1,1.41,1.41,1.41,1.41,0,0,1-1.41-1.41Z" style="fill:none;stroke:#000;stroke-linecap:round;stroke-linejoin:round;stroke-width:0.28346458077430725px"/></g><g id="CIRCLE-12" data-name="CIRCLE"><path d="M196.52,239a1.42,1.42,0,1,1,1.41,1.42,1.42,1.42,0,0,1-1.41-1.42Z" style="fill:none;stroke:#000;stroke-linecap:round;stroke-linejoin:round;stroke-width:0.28346458077430725px"/></g><g id="CIRCLE-13" data-name="CIRCLE"><path d="M187.15,222.79a1.42,1.42,0,1,1,1.42,1.42,1.41,1.41,0,0,1-1.42-1.42Z" style="fill:none;stroke:#000;stroke-linecap:round;stroke-linejoin:round;stroke-width:0.28346458077430725px"/></g><g id="CIRCLE-14" data-name="CIRCLE"><path d="M140.39,235.32a1.42,1.42,0,1,1,1.42,1.42,1.42,1.42,0,0,1-1.42-1.42Z" style="fill:none;stroke:#000;stroke-linecap:round;stroke-linejoin:round;stroke-width:0.28346458077430725px"/></g><g id="LINE"><line x1="91.7" y1="91.7" x2="79.45" y2="33.8" style="fill:none;stroke:#000;stroke-linecap:round;stroke-linejoin:round;stroke-width:0.28346458077430725px"/></g><g id="CIRCLE-15" data-name="CIRCLE"><path d="M119.68,218.23a1.42,1.42,0,1,1,1.42,1.41,1.42,1.42,0,0,1-1.42-1.41Z" style="fill:none;stroke:#000;stroke-linecap:round;stroke-linejoin:round;stroke-width:0.28346458077430725px"/></g><g id="CIRCLE-16" data-name="CIRCLE"><path d="M84.27,239a1.42,1.42,0,1,1,1.42,1.42A1.42,1.42,0,0,1,84.27,239Z" style="fill:none;stroke:#000;stroke-linecap:round;stroke-linejoin:round;stroke-width:0.28346458077430725px"/></g><g id="CIRCLE-17" data-name="CIRCLE"><path d="M136.69,141.81a5.12,5.12,0,1,1,5.12,5.12,5.12,5.12,0,0,1-5.12-5.12Z" style="fill:none;stroke:#000;stroke-linecap:round;stroke-linejoin:round;stroke-width:0.28346458077430725px"/></g><g id="CIRCLE-18" data-name="CIRCLE"><path d="M84.25,197.63a1.42,1.42,0,1,1,1.42,1.42,1.41,1.41,0,0,1-1.42-1.42Z" style="fill:none;stroke:#000;stroke-linecap:round;stroke-linejoin:round;stroke-width:0.28346458077430725px"/></g><g id="CIRCLE-19" data-name="CIRCLE"><path d="M59.41,188.57A1.42,1.42,0,1,1,60.83,190a1.41,1.41,0,0,1-1.42-1.41Z" style="fill:none;stroke:#000;stroke-linecap:round;stroke-linejoin:round;stroke-width:0.28346458077430725px"/></g><g id="CIRCLE-20" data-name="CIRCLE"><path d="M63.86,162.08a1.42,1.42,0,1,1,1.42,1.42,1.42,1.42,0,0,1-1.42-1.42Z" style="fill:none;stroke:#000;stroke-linecap:round;stroke-linejoin:round;stroke-width:0.28346458077430725px"/></g><g id="CIRCLE-21" data-name="CIRCLE"><path d="M127,118.57a1.42,1.42,0,1,1,1.42,1.41,1.42,1.42,0,0,1-1.42-1.41Z" style="fill:none;stroke:#000;stroke-linecap:round;stroke-linejoin:round;stroke-width:0.28346458077430725px"/></g><g id="CIRCLE-22" data-name="CIRCLE"><path d="M140.46,115a1.35,1.35,0,1,1,1.35,1.35,1.34,1.34,0,0,1-1.35-1.35Z" style="fill:none;stroke:#000;stroke-linecap:round;stroke-linejoin:round;stroke-width:0.28346458077430725px"/></g><g id="CIRCLE-23" data-name="CIRCLE"><path d="M167.23,141.81a1.42,1.42,0,1,1,1.42,1.42,1.43,1.43,0,0,1-1.42-1.42Z" style="fill:none;stroke:#000;stroke-linecap:round;stroke-linejoin:round;stroke-width:0.28346458077430725px"/></g><g id="CIRCLE-24" data-name="CIRCLE"><path d="M140.39,168.65a1.42,1.42,0,1,1,1.42,1.42,1.43,1.43,0,0,1-1.42-1.42Z" style="fill:none;stroke:#000;stroke-linecap:round;stroke-linejoin:round;stroke-width:0.28346458077430725px"/></g><g id="CIRCLE-25" data-name="CIRCLE"><path d="M113.55,141.81a1.42,1.42,0,1,1,1.42,1.42,1.43,1.43,0,0,1-1.42-1.42Z" style="fill:none;stroke:#000;stroke-linecap:round;stroke-linejoin:round;stroke-width:0.28346458077430725px"/></g><g id="CIRCLE-26" data-name="CIRCLE"><path d="M46.88,141.81a1.42,1.42,0,1,1,1.42,1.42,1.42,1.42,0,0,1-1.42-1.42Z" style="fill:none;stroke:#000;stroke-linecap:round;stroke-linejoin:round;stroke-width:0.28346458077430725px"/></g><g id="CIRCLE-27" data-name="CIRCLE"><path d="M117.15,128.39a1.42,1.42,0,1,1,1.42,1.42,1.42,1.42,0,0,1-1.42-1.42Z" style="fill:none;stroke:#000;stroke-linecap:round;stroke-linejoin:round;stroke-width:0.28346458077430725px"/></g><g id="CIRCLE-28" data-name="CIRCLE"><path d="M84.57,85.67A1.42,1.42,0,1,1,86,87.08a1.41,1.41,0,0,1-1.42-1.41Z" style="fill:none;stroke:#000;stroke-linecap:round;stroke-linejoin:round;stroke-width:0.28346458077430725px"/></g><g id="CIRCLE-29" data-name="CIRCLE"><path d="M25.43,110.86a1.42,1.42,0,1,1,1.42,1.42,1.43,1.43,0,0,1-1.42-1.42Z" style="fill:none;stroke:#000;stroke-linecap:round;stroke-linejoin:round;stroke-width:0.28346458077430725px"/></g><g id="CIRCLE-30" data-name="CIRCLE"><path d="M224.48,226.09a1.42,1.42,0,1,1,1.42,1.42,1.41,1.41,0,0,1-1.42-1.42Z" style="fill:none;stroke:#000;stroke-linecap:round;stroke-linejoin:round;stroke-width:0.28346458077430725px"/></g><g id="CIRCLE-31" data-name="CIRCLE"><path d="M196.52,44.6A1.42,1.42,0,1,1,197.93,46a1.42,1.42,0,0,1-1.41-1.42Z" style="fill:none;stroke:#000;stroke-linecap:round;stroke-linejoin:round;stroke-width:0.28346458077430725px"/></g><g id="CIRCLE-32" data-name="CIRCLE"><path d="M140.39,29.56A1.42,1.42,0,1,1,141.81,31a1.43,1.43,0,0,1-1.42-1.42Z" style="fill:none;stroke:#000;stroke-linecap:round;stroke-linejoin:round;stroke-width:0.28346458077430725px"/></g><g id="CIRCLE-33" data-name="CIRCLE"><path d="M109.71,26.78a1.42,1.42,0,1,1,1.42,1.41,1.42,1.42,0,0,1-1.42-1.41Z" style="fill:none;stroke:#000;stroke-linecap:round;stroke-linejoin:round;stroke-width:0.28346458077430725px"/></g><g id="CIRCLE-34" data-name="CIRCLE"><path d="M140.39,48.3a1.42,1.42,0,1,1,1.42,1.41,1.42,1.42,0,0,1-1.42-1.41Z" style="fill:none;stroke:#000;stroke-linecap:round;stroke-linejoin:round;stroke-width:0.28346458077430725px"/></g><g id="LINE-2" data-name="LINE"><line x1="136.41" y1="132.46" x2="97.99" y2="94.04" style="fill:none;stroke:#000;stroke-linecap:round;stroke-linejoin:round;stroke-width:0.28346458077430725px"/></g><g id="LINE-3" data-name="LINE"><line x1="132.46" y1="136.41" x2="93.98" y2="98.05" style="fill:none;stroke:#000;stroke-linecap:round;stroke-linejoin:round;stroke-width:0.28346458077430725px"/></g><g id="CIRCLE-35" data-name="CIRCLE"><path d="M224.68,57.72a1.42,1.42,0,1,1,1.41,1.42,1.41,1.41,0,0,1-1.41-1.42Z" style="fill:none;stroke:#000;stroke-linecap:round;stroke-linejoin:round;stroke-width:0.28346458077430725px"/></g><g id="LINE-4" data-name="LINE"><line x1="132.46" y1="136.41" x2="79.98" y2="122.35" style="fill:none;stroke:#000;stroke-linecap:round;stroke-linejoin:round;stroke-width:0.28346458077430725px"/></g><g id="LINE-5" data-name="LINE"><line x1="131.02" y1="141.81" x2="78.51" y2="127.83" style="fill:none;stroke:#000;stroke-linecap:round;stroke-linejoin:round;stroke-width:0.28346458077430725px"/></g><g id="LINE-6" data-name="LINE"><line x1="131.02" y1="141.81" x2="78.53" y2="155.87" style="fill:none;stroke:#000;stroke-linecap:round;stroke-linejoin:round;stroke-width:0.28346458077430725px"/></g><g id="CIRCLE-36" data-name="CIRCLE"><path d="M127,165.05a1.42,1.42,0,1,1,1.42,1.42,1.42,1.42,0,0,1-1.42-1.42Z" style="fill:none;stroke:#000;stroke-linecap:round;stroke-linejoin:round;stroke-width:0.28346458077430725px"/></g><g id="LINE-7" data-name="LINE"><line x1="132.46" y1="147.21" x2="80" y2="161.35" style="fill:none;stroke:#000;stroke-linecap:round;stroke-linejoin:round;stroke-width:0.28346458077430725px"/></g><g id="LINE-8" data-name="LINE"><line x1="132.46" y1="147.21" x2="94.04" y2="185.63" style="fill:none;stroke:#000;stroke-linecap:round;stroke-linejoin:round;stroke-width:0.28346458077430725px"/></g><g id="LINE-9" data-name="LINE"><line x1="136.41" y1="151.16" x2="98.05" y2="189.64" style="fill:none;stroke:#000;stroke-linecap:round;stroke-linejoin:round;stroke-width:0.28346458077430725px"/></g><g id="CIRCLE-37" data-name="CIRCLE"><path d="M93.64,222.79a1.42,1.42,0,1,1,1.41,1.42,1.41,1.41,0,0,1-1.41-1.42Z" style="fill:none;stroke:#000;stroke-linecap:round;stroke-linejoin:round;stroke-width:0.28346458077430725px"/></g><g id="LINE-10" data-name="LINE"><line x1="136.41" y1="151.16" x2="122.35" y2="203.64" style="fill:none;stroke:#000;stroke-linecap:round;stroke-linejoin:round;stroke-width:0.28346458077430725px"/></g><g id="LINE-11" data-name="LINE"><line x1="141.81" y1="152.6" x2="127.83" y2="205.11" style="fill:none;stroke:#000;stroke-linecap:round;stroke-linejoin:round;stroke-width:0.28346458077430725px"/></g><g id="CIRCLE-38" data-name="CIRCLE"><path d="M196.54,86A1.42,1.42,0,1,1,198,87.4,1.41,1.41,0,0,1,196.54,86Z" style="fill:none;stroke:#000;stroke-linecap:round;stroke-linejoin:round;stroke-width:0.28346458077430725px"/></g><g id="LINE-12" data-name="LINE"><line x1="147.21" y1="151.16" x2="161.35" y2="203.62" style="fill:none;stroke:#000;stroke-linecap:round;stroke-linejoin:round;stroke-width:0.28346458077430725px"/></g><g id="LINE-13" data-name="LINE"><line x1="147.21" y1="151.16" x2="185.63" y2="189.58" style="fill:none;stroke:#000;stroke-linecap:round;stroke-linejoin:round;stroke-width:0.28346458077430725px"/></g><g id="CIRCLE-39" data-name="CIRCLE"><path d="M117.15,155.23a1.42,1.42,0,1,1,1.42,1.42,1.42,1.42,0,0,1-1.42-1.42Z" style="fill:none;stroke:#000;stroke-linecap:round;stroke-linejoin:round;stroke-width:0.28346458077430725px"/></g><g id="LINE-14" data-name="LINE"><line x1="91.7" y1="191.92" x2="79.45" y2="249.82" style="fill:none;stroke:#000;stroke-linecap:round;stroke-linejoin:round;stroke-width:0.28346458077430725px"/></g><g id="LINE-15" data-name="LINE"><line x1="123.47" y1="210.26" x2="79.45" y2="249.82" style="fill:none;stroke:#000;stroke-linecap:round;stroke-linejoin:round;stroke-width:0.28346458077430725px"/></g><g id="LINE-16" data-name="LINE"><line x1="123.47" y1="210.26" x2="141.81" y2="266.53" style="fill:none;stroke:#000;stroke-linecap:round;stroke-linejoin:round;stroke-width:0.28346458077430725px"/></g><g id="CIRCLE-40" data-name="CIRCLE"><path d="M171.34,26.85a1.42,1.42,0,1,1,1.42,1.42,1.43,1.43,0,0,1-1.42-1.42Z" style="fill:none;stroke:#000;stroke-linecap:round;stroke-linejoin:round;stroke-width:0.28346458077430725px"/></g><g id="LINE-17" data-name="LINE"><line x1="160.15" y1="210.26" x2="141.81" y2="266.53" style="fill:none;stroke:#000;stroke-linecap:round;stroke-linejoin:round;stroke-width:0.28346458077430725px"/></g><g id="LINE-18" data-name="LINE"><line x1="160.15" y1="210.26" x2="204.17" y2="249.82" style="fill:none;stroke:#000;stroke-linecap:round;stroke-linejoin:round;stroke-width:0.28346458077430725px"/></g><g id="CIRCLE-41" data-name="CIRCLE"><path d="M175.7,10.38A1.33,1.33,0,1,1,177,11.71a1.32,1.32,0,0,1-1.33-1.33Z" style="fill:none;stroke:#000;stroke-linecap:round;stroke-linejoin:round;stroke-width:0.28346458077430725px"/></g><g id="LINE-19" data-name="LINE"><line x1="122.27" y1="80" x2="88.6" y2="49.64" style="fill:none;stroke:#000;stroke-linecap:round;stroke-linejoin:round;stroke-width:0.28346458077430725px"/></g><g id="CIRCLE-42" data-name="CIRCLE"><path d="M93.64,60.83a1.42,1.42,0,1,1,1.41,1.41,1.41,1.41,0,0,1-1.41-1.41Z" style="fill:none;stroke:#000;stroke-linecap:round;stroke-linejoin:round;stroke-width:0.28346458077430725px"/></g><g id="LINE-20" data-name="LINE"><line x1="191.92" y1="191.92" x2="204.17" y2="249.82" style="fill:none;stroke:#000;stroke-linecap:round;stroke-linejoin:round;stroke-width:0.28346458077430725px"/></g><g id="LINE-21" data-name="LINE"><line x1="137.56" y1="0.14" x2="137.56" y2="8.58" style="fill:none;stroke:#000;stroke-linecap:round;stroke-linejoin:round;stroke-width:0.28346458077430725px"/></g><g id="CIRCLE-43" data-name="CIRCLE"><path d="M163.64,155.23a1.42,1.42,0,1,1,1.41,1.42,1.42,1.42,0,0,1-1.41-1.42Z" style="fill:none;stroke:#000;stroke-linecap:round;stroke-linejoin:round;stroke-width:0.28346458077430725px"/></g><g id="LINE-22" data-name="LINE"><line x1="152.6" y1="141.81" x2="205.09" y2="127.75" style="fill:none;stroke:#000;stroke-linecap:round;stroke-linejoin:round;stroke-width:0.28346458077430725px"/></g><g id="LINE-23" data-name="LINE"><line x1="191.92" y1="191.92" x2="249.82" y2="204.17" style="fill:none;stroke:#000;stroke-linecap:round;stroke-linejoin:round;stroke-width:0.28346458077430725px"/></g><g id="LINE-24" data-name="LINE"><line x1="123.47" y1="73.36" x2="141.81" y2="17.09" style="fill:none;stroke:#000;stroke-linecap:round;stroke-linejoin:round;stroke-width:0.28346458077430725px"/></g><g id="CIRCLE-44" data-name="CIRCLE"><path d="M43.18,85.69A1.42,1.42,0,1,1,44.6,87.1a1.42,1.42,0,0,1-1.42-1.41Z" style="fill:none;stroke:#000;stroke-linecap:round;stroke-linejoin:round;stroke-width:0.28346458077430725px"/></g><g id="ARC"><path d="M137.56.14A141.74,141.74,0,0,0,.14,137.56" style="fill:none;stroke:#000;stroke-linecap:round;stroke-linejoin:round;stroke-width:0.28346458077430725px"/></g><g id="LINE-25" data-name="LINE"><line x1="210.26" y1="160.15" x2="249.82" y2="204.17" style="fill:none;stroke:#000;stroke-linecap:round;stroke-linejoin:round;stroke-width:0.28346458077430725px"/></g><g id="LINE-26" data-name="LINE"><line x1="275.04" y1="146.06" x2="283.48" y2="146.06" style="fill:none;stroke:#000;stroke-linecap:round;stroke-linejoin:round;stroke-width:0.28346458077430725px"/></g><g id="CIRCLE-45" data-name="CIRCLE"><path d="M25.36,172.49a1.42,1.42,0,1,1,1.42,1.42,1.42,1.42,0,0,1-1.42-1.42Z" style="fill:none;stroke:#000;stroke-linecap:round;stroke-linejoin:round;stroke-width:0.28346458077430725px"/></g><g id="LINE-27" data-name="LINE"><line x1="122.35" y1="203.64" x2="88.6" y2="233.98" style="fill:none;stroke:#000;stroke-linecap:round;stroke-linejoin:round;stroke-width:0.28346458077430725px"/></g><g id="CIRCLE-46" data-name="CIRCLE"><path d="M221.38,95.05a1.42,1.42,0,1,1,1.41,1.42,1.41,1.41,0,0,1-1.41-1.42Z" style="fill:none;stroke:#000;stroke-linecap:round;stroke-linejoin:round;stroke-width:0.28346458077430725px"/></g><g id="ARC-2" data-name="ARC"><path d="M283.48,137.56A141.74,141.74,0,0,0,146.06.14" style="fill:none;stroke:#000;stroke-linecap:round;stroke-linejoin:round;stroke-width:0.28346458077430725px"/></g><g id="LINE-28" data-name="LINE"><line x1="141.81" y1="152.6" x2="155.87" y2="205.09" style="fill:none;stroke:#000;stroke-linecap:round;stroke-linejoin:round;stroke-width:0.28346458077430725px"/></g><g id="CIRCLE-47" data-name="CIRCLE"><path d="M271.91,106.59a1.33,1.33,0,1,1,1.33,1.33,1.33,1.33,0,0,1-1.33-1.33Z" style="fill:none;stroke:#000;stroke-linecap:round;stroke-linejoin:round;stroke-width:0.28346458077430725px"/></g><g id="LINE-29" data-name="LINE"><line x1="210.26" y1="123.47" x2="249.82" y2="79.45" style="fill:none;stroke:#000;stroke-linecap:round;stroke-linejoin:round;stroke-width:0.28346458077430725px"/></g><g id="LINE-30" data-name="LINE"><line x1="127.83" y1="205.11" x2="141.81" y2="248.24" style="fill:none;stroke:#000;stroke-linecap:round;stroke-linejoin:round;stroke-width:0.28346458077430725px"/></g><g id="CIRCLE-48" data-name="CIRCLE"><path d="M44.27,45.6a1.33,1.33,0,1,1,2.65,0,1.33,1.33,0,0,1-2.65,0Z" style="fill:none;stroke:#000;stroke-linecap:round;stroke-linejoin:round;stroke-width:0.28346458077430725px"/></g><g id="LINE-31" data-name="LINE"><line x1="137.56" y1="275.04" x2="137.56" y2="283.48" style="fill:none;stroke:#000;stroke-linecap:round;stroke-linejoin:round;stroke-width:0.28346458077430725px"/></g><g id="CIRCLE-49" data-name="CIRCLE"><path d="M17.09,141.81A124.72,124.72,0,1,1,141.81,266.53,124.72,124.72,0,0,1,17.09,141.81Z" style="fill:none;stroke:#000;stroke-linecap:round;stroke-linejoin:round;stroke-width:0.28346458077430725px"/></g><g id="LINE-32" data-name="LINE"><line x1="146.06" y1="275.04" x2="146.06" y2="283.48" style="fill:none;stroke:#000;stroke-linecap:round;stroke-linejoin:round;stroke-width:0.28346458077430725px"/></g><g id="LINE-33" data-name="LINE"><line x1="155.87" y1="205.09" x2="141.81" y2="248.24" style="fill:none;stroke:#000;stroke-linecap:round;stroke-linejoin:round;stroke-width:0.28346458077430725px"/></g><g id="ARC-3" data-name="ARC"><path d="M146.06,283.48A141.74,141.74,0,0,0,283.48,146.06" style="fill:none;stroke:#000;stroke-linecap:round;stroke-linejoin:round;stroke-width:0.28346458077430725px"/></g><g id="CIRCLE-50" data-name="CIRCLE"><path d="M59.41,95.05a1.42,1.42,0,1,1,1.42,1.42,1.41,1.41,0,0,1-1.42-1.42Z" style="fill:none;stroke:#000;stroke-linecap:round;stroke-linejoin:round;stroke-width:0.28346458077430725px"/></g><g id="LINE-34" data-name="LINE"><line x1="161.35" y1="203.62" x2="195.03" y2="233.98" style="fill:none;stroke:#000;stroke-linecap:round;stroke-linejoin:round;stroke-width:0.28346458077430725px"/></g><g id="LINE-35" data-name="LINE"><line x1="123.47" y1="73.36" x2="79.45" y2="33.8" style="fill:none;stroke:#000;stroke-linecap:round;stroke-linejoin:round;stroke-width:0.28346458077430725px"/></g><g id="CIRCLE-51" data-name="CIRCLE"><path d="M216.81,162.52a1.42,1.42,0,1,1,1.42,1.42,1.42,1.42,0,0,1-1.42-1.42Z" style="fill:none;stroke:#000;stroke-linecap:round;stroke-linejoin:round;stroke-width:0.28346458077430725px"/></g><g id="LINE-36" data-name="LINE"><line x1="189.64" y1="185.57" x2="233.98" y2="195.03" style="fill:none;stroke:#000;stroke-linecap:round;stroke-linejoin:round;stroke-width:0.28346458077430725px"/></g><g id="LINE-37" data-name="LINE"><line x1="185.63" y1="189.58" x2="195.03" y2="233.98" style="fill:none;stroke:#000;stroke-linecap:round;stroke-linejoin:round;stroke-width:0.28346458077430725px"/></g><g id="CIRCLE-52" data-name="CIRCLE"><path d="M153.81,165.05a1.42,1.42,0,1,1,1.42,1.42,1.42,1.42,0,0,1-1.42-1.42Z" style="fill:none;stroke:#000;stroke-linecap:round;stroke-linejoin:round;stroke-width:0.28346458077430725px"/></g><g id="LINE-38" data-name="LINE"><line x1="160.15" y1="73.36" x2="141.81" y2="17.09" style="fill:none;stroke:#000;stroke-linecap:round;stroke-linejoin:round;stroke-width:0.28346458077430725px"/></g><g id="LINE-39" data-name="LINE"><line x1="98.05" y1="189.64" x2="88.6" y2="233.98" style="fill:none;stroke:#000;stroke-linecap:round;stroke-linejoin:round;stroke-width:0.28346458077430725px"/></g><g id="LINE-40" data-name="LINE"><line x1="94.04" y1="185.63" x2="49.64" y2="195.03" style="fill:none;stroke:#000;stroke-linecap:round;stroke-linejoin:round;stroke-width:0.28346458077430725px"/></g><g id="CIRCLE-53" data-name="CIRCLE"><path d="M196.22,198a1.42,1.42,0,1,1,1.41,1.42,1.41,1.41,0,0,1-1.41-1.42Z" style="fill:none;stroke:#000;stroke-linecap:round;stroke-linejoin:round;stroke-width:0.28346458077430725px"/></g><g id="LINE-41" data-name="LINE"><line x1="80" y1="161.35" x2="49.64" y2="195.03" style="fill:none;stroke:#000;stroke-linecap:round;stroke-linejoin:round;stroke-width:0.28346458077430725px"/></g><g id="LINE-42" data-name="LINE"><line x1="78.53" y1="155.87" x2="35.38" y2="141.81" style="fill:none;stroke:#000;stroke-linecap:round;stroke-linejoin:round;stroke-width:0.28346458077430725px"/></g><g id="CIRCLE-54" data-name="CIRCLE"><path d="M271.91,177a1.33,1.33,0,1,1,1.33,1.32,1.33,1.33,0,0,1-1.33-1.32Z" style="fill:none;stroke:#000;stroke-linecap:round;stroke-linejoin:round;stroke-width:0.28346458077430725px"/></g><g id="LINE-43" data-name="LINE"><line x1="78.51" y1="127.83" x2="35.38" y2="141.81" style="fill:none;stroke:#000;stroke-linecap:round;stroke-linejoin:round;stroke-width:0.28346458077430725px"/></g><g id="LINE-44" data-name="LINE"><line x1="79.98" y1="122.35" x2="49.64" y2="88.6" style="fill:none;stroke:#000;stroke-linecap:round;stroke-linejoin:round;stroke-width:0.28346458077430725px"/></g><g id="LINE-45" data-name="LINE"><line x1="93.98" y1="98.05" x2="49.64" y2="88.6" style="fill:none;stroke:#000;stroke-linecap:round;stroke-linejoin:round;stroke-width:0.28346458077430725px"/></g><g id="CIRCLE-55" data-name="CIRCLE"><path d="M28.14,141.81a1.42,1.42,0,1,1,1.42,1.42,1.43,1.43,0,0,1-1.42-1.42Z" style="fill:none;stroke:#000;stroke-linecap:round;stroke-linejoin:round;stroke-width:0.28346458077430725px"/></g><g id="LINE-46" data-name="LINE"><line x1="97.99" y1="94.04" x2="88.6" y2="49.64" style="fill:none;stroke:#000;stroke-linecap:round;stroke-linejoin:round;stroke-width:0.28346458077430725px"/></g><g id="CIRCLE-56" data-name="CIRCLE"><path d="M171.07,256.84a1.42,1.42,0,1,1,1.42,1.42,1.42,1.42,0,0,1-1.42-1.42Z" style="fill:none;stroke:#000;stroke-linecap:round;stroke-linejoin:round;stroke-width:0.28346458077430725px"/></g><g id="LINE-47" data-name="LINE"><line x1="275.04" y1="137.56" x2="283.48" y2="137.56" style="fill:none;stroke:#000;stroke-linecap:round;stroke-linejoin:round;stroke-width:0.28346458077430725px"/></g><g id="LINE-48" data-name="LINE"><line x1="91.7" y1="191.92" x2="33.8" y2="204.17" style="fill:none;stroke:#000;stroke-linecap:round;stroke-linejoin:round;stroke-width:0.28346458077430725px"/></g><g id="ARC-4" data-name="ARC"><path d="M.14,146.06A141.74,141.74,0,0,0,137.56,283.48" style="fill:none;stroke:#000;stroke-linecap:round;stroke-linejoin:round;stroke-width:0.28346458077430725px"/></g><g id="LINE-49" data-name="LINE"><line x1="73.36" y1="160.15" x2="33.8" y2="204.17" style="fill:none;stroke:#000;stroke-linecap:round;stroke-linejoin:round;stroke-width:0.28346458077430725px"/></g><g id="LINE-50" data-name="LINE"><line x1="137.56" y1="275.04" x2="146.06" y2="275.04" style="fill:none;stroke:#000;stroke-linecap:round;stroke-linejoin:round;stroke-width:0.28346458077430725px"/></g><g id="CIRCLE-57" data-name="CIRCLE"><path d="M255.43,111.13a1.42,1.42,0,1,1,1.41,1.42,1.42,1.42,0,0,1-1.41-1.42Z" style="fill:none;stroke:#000;stroke-linecap:round;stroke-linejoin:round;stroke-width:0.28346458077430725px"/></g><g id="LINE-51" data-name="LINE"><line x1="191.92" y1="91.7" x2="249.82" y2="79.45" style="fill:none;stroke:#000;stroke-linecap:round;stroke-linejoin:round;stroke-width:0.28346458077430725px"/></g><g id="CIRCLE-58" data-name="CIRCLE"><path d="M187.15,60.83a1.42,1.42,0,1,1,1.42,1.41,1.41,1.41,0,0,1-1.42-1.41Z" style="fill:none;stroke:#000;stroke-linecap:round;stroke-linejoin:round;stroke-width:0.28346458077430725px"/></g><g id="LINE-52" data-name="LINE"><line x1="91.7" y1="91.7" x2="33.8" y2="79.45" style="fill:none;stroke:#000;stroke-linecap:round;stroke-linejoin:round;stroke-width:0.28346458077430725px"/></g><g id="LINE-53" data-name="LINE"><line x1="8.58" y1="137.56" x2="8.58" y2="146.06" style="fill:none;stroke:#000;stroke-linecap:round;stroke-linejoin:round;stroke-width:0.28346458077430725px"/></g><g id="CIRCLE-59" data-name="CIRCLE"><path d="M236.7,45.6A1.33,1.33,0,1,1,238,46.92a1.33,1.33,0,0,1-1.32-1.32Z" style="fill:none;stroke:#000;stroke-linecap:round;stroke-linejoin:round;stroke-width:0.28346458077430725px"/></g><g id="LINE-54" data-name="LINE"><line x1="73.36" y1="123.47" x2="33.8" y2="79.45" style="fill:none;stroke:#000;stroke-linecap:round;stroke-linejoin:round;stroke-width:0.28346458077430725px"/></g><g id="CIRCLE-60" data-name="CIRCLE"><path d="M163.64,128.39a1.42,1.42,0,1,1,1.41,1.42,1.42,1.42,0,0,1-1.41-1.42Z" style="fill:none;stroke:#000;stroke-linecap:round;stroke-linejoin:round;stroke-width:0.28346458077430725px"/></g><g id="LINE-55" data-name="LINE"><line x1="275.04" y1="137.56" x2="275.04" y2="146.06" style="fill:none;stroke:#000;stroke-linecap:round;stroke-linejoin:round;stroke-width:0.28346458077430725px"/></g><g id="LINE-56" data-name="LINE"><line x1="73.36" y1="123.47" x2="17.09" y2="141.81" style="fill:none;stroke:#000;stroke-linecap:round;stroke-linejoin:round;stroke-width:0.28346458077430725px"/></g><g id="CIRCLE-61" data-name="CIRCLE"><path d="M56.11,225.9a1.42,1.42,0,1,1,1.42,1.41,1.41,1.41,0,0,1-1.42-1.41Z" style="fill:none;stroke:#000;stroke-linecap:round;stroke-linejoin:round;stroke-width:0.28346458077430725px"/></g><g id="LINE-57" data-name="LINE"><line x1="73.36" y1="160.15" x2="17.09" y2="141.81" style="fill:none;stroke:#000;stroke-linecap:round;stroke-linejoin:round;stroke-width:0.28346458077430725px"/></g><g id="CIRCLE-62" data-name="CIRCLE"><path d="M252.64,141.81a1.42,1.42,0,1,1,1.42,1.42,1.43,1.43,0,0,1-1.42-1.42Z" style="fill:none;stroke:#000;stroke-linecap:round;stroke-linejoin:round;stroke-width:0.28346458077430725px"/></g><g id="LINE-58" data-name="LINE"><line x1="146.06" y1="0.14" x2="146.06" y2="8.58" style="fill:none;stroke:#000;stroke-linecap:round;stroke-linejoin:round;stroke-width:0.28346458077430725px"/></g><g id="LINE-59" data-name="LINE"><line x1="160.15" y1="73.36" x2="204.17" y2="33.8" style="fill:none;stroke:#000;stroke-linecap:round;stroke-linejoin:round;stroke-width:0.28346458077430725px"/></g><g id="CIRCLE-63" data-name="CIRCLE"><path d="M140.39,254.06a1.42,1.42,0,1,1,1.42,1.42,1.43,1.43,0,0,1-1.42-1.42Z" style="fill:none;stroke:#000;stroke-linecap:round;stroke-linejoin:round;stroke-width:0.28346458077430725px"/></g><g id="LINE-60" data-name="LINE"><line x1="0.14" y1="137.56" x2="8.58" y2="137.56" style="fill:none;stroke:#000;stroke-linecap:round;stroke-linejoin:round;stroke-width:0.28346458077430725px"/></g><g id="CIRCLE-64" data-name="CIRCLE"><path d="M43.18,197.93a1.42,1.42,0,1,1,1.42,1.42,1.42,1.42,0,0,1-1.42-1.42Z" style="fill:none;stroke:#000;stroke-linecap:round;stroke-linejoin:round;stroke-width:0.28346458077430725px"/></g><g id="LINE-61" data-name="LINE"><line x1="210.26" y1="160.15" x2="266.53" y2="141.81" style="fill:none;stroke:#000;stroke-linecap:round;stroke-linejoin:round;stroke-width:0.28346458077430725px"/></g><g id="CIRCLE-65" data-name="CIRCLE"><path d="M44.27,238a1.33,1.33,0,1,1,1.33,1.33A1.33,1.33,0,0,1,44.27,238Z" style="fill:none;stroke:#000;stroke-linecap:round;stroke-linejoin:round;stroke-width:0.28346458077430725px"/></g><g id="LINE-62" data-name="LINE"><line x1="137.56" y1="8.58" x2="146.06" y2="8.58" style="fill:none;stroke:#000;stroke-linecap:round;stroke-linejoin:round;stroke-width:0.28346458077430725px"/></g><g id="LINE-63" data-name="LINE"><line x1="191.92" y1="91.7" x2="204.17" y2="33.8" style="fill:none;stroke:#000;stroke-linecap:round;stroke-linejoin:round;stroke-width:0.28346458077430725px"/></g><g id="LINE-64" data-name="LINE"><line x1="0.14" y1="146.06" x2="8.58" y2="146.06" style="fill:none;stroke:#000;stroke-linecap:round;stroke-linejoin:round;stroke-width:0.28346458077430725px"/></g><g id="LINE-65" data-name="LINE"><line x1="210.26" y1="123.47" x2="266.53" y2="141.81" style="fill:none;stroke:#000;stroke-linecap:round;stroke-linejoin:round;stroke-width:0.28346458077430725px"/></g><g id="CIRCLE-66" data-name="CIRCLE"><path d="M105.27,273.24a1.33,1.33,0,1,1,1.32,1.32,1.33,1.33,0,0,1-1.32-1.32Z" style="fill:none;stroke:#000;stroke-linecap:round;stroke-linejoin:round;stroke-width:0.28346458077430725px"/></g><g id="LINE-66" data-name="LINE"><line x1="203.64" y1="161.27" x2="233.98" y2="195.03" style="fill:none;stroke:#000;stroke-linecap:round;stroke-linejoin:round;stroke-width:0.28346458077430725px"/></g><g id="LINE-67" data-name="LINE"><line x1="205.11" y1="155.79" x2="248.24" y2="141.81" style="fill:none;stroke:#000;stroke-linecap:round;stroke-linejoin:round;stroke-width:0.28346458077430725px"/></g><g id="CIRCLE-67" data-name="CIRCLE"><path d="M160.67,218.34a1.42,1.42,0,1,1,1.41,1.42,1.41,1.41,0,0,1-1.41-1.42Z" style="fill:none;stroke:#000;stroke-linecap:round;stroke-linejoin:round;stroke-width:0.28346458077430725px"/></g><g id="LINE-68" data-name="LINE"><line x1="205.09" y1="127.75" x2="248.24" y2="141.81" style="fill:none;stroke:#000;stroke-linecap:round;stroke-linejoin:round;stroke-width:0.28346458077430725px"/></g><g id="LINE-69" data-name="LINE"><line x1="203.62" y1="122.27" x2="233.98" y2="88.6" style="fill:none;stroke:#000;stroke-linecap:round;stroke-linejoin:round;stroke-width:0.28346458077430725px"/></g><g id="LINE-70" data-name="LINE"><line x1="189.58" y1="97.99" x2="233.98" y2="88.6" style="fill:none;stroke:#000;stroke-linecap:round;stroke-linejoin:round;stroke-width:0.28346458077430725px"/></g><g id="CIRCLE-68" data-name="CIRCLE"><path d="M153.81,118.57a1.42,1.42,0,1,1,1.42,1.41,1.42,1.42,0,0,1-1.42-1.41Z" style="fill:none;stroke:#000;stroke-linecap:round;stroke-linejoin:round;stroke-width:0.28346458077430725px"/></g><g id="LINE-71" data-name="LINE"><line x1="185.57" y1="93.98" x2="195.03" y2="49.64" style="fill:none;stroke:#000;stroke-linecap:round;stroke-linejoin:round;stroke-width:0.28346458077430725px"/></g><g id="LINE-72" data-name="LINE"><line x1="161.27" y1="79.98" x2="195.03" y2="49.64" style="fill:none;stroke:#000;stroke-linecap:round;stroke-linejoin:round;stroke-width:0.28346458077430725px"/></g><g id="LINE-73" data-name="LINE"><line x1="155.79" y1="78.51" x2="141.81" y2="35.38" style="fill:none;stroke:#000;stroke-linecap:round;stroke-linejoin:round;stroke-width:0.28346458077430725px"/></g><g id="CIRCLE-69" data-name="CIRCLE"><path d="M56.31,57.53a1.42,1.42,0,1,1,1.41,1.41,1.41,1.41,0,0,1-1.41-1.41Z" style="fill:none;stroke:#000;stroke-linecap:round;stroke-linejoin:round;stroke-width:0.28346458077430725px"/></g><g id="LINE-74" data-name="LINE"><line x1="127.75" y1="78.53" x2="141.81" y2="35.38" style="fill:none;stroke:#000;stroke-linecap:round;stroke-linejoin:round;stroke-width:0.28346458077430725px"/></g><g id="LINE-75" data-name="LINE"><line x1="136.41" y1="132.46" x2="122.27" y2="80" style="fill:none;stroke:#000;stroke-linecap:round;stroke-linejoin:round;stroke-width:0.28346458077430725px"/></g><g id="CIRCLE-70" data-name="CIRCLE"><path d="M216.93,121.54a1.42,1.42,0,1,1,1.41,1.42,1.42,1.42,0,0,1-1.41-1.42Z" style="fill:none;stroke:#000;stroke-linecap:round;stroke-linejoin:round;stroke-width:0.28346458077430725px"/></g><g id="LINE-76" data-name="LINE"><line x1="141.81" y1="131.02" x2="127.75" y2="78.53" style="fill:none;stroke:#000;stroke-linecap:round;stroke-linejoin:round;stroke-width:0.28346458077430725px"/></g><g id="CIRCLE-71" data-name="CIRCLE"><path d="M9.06,106.59a1.33,1.33,0,1,1,1.32,1.33,1.32,1.32,0,0,1-1.32-1.33Z" style="fill:none;stroke:#000;stroke-linecap:round;stroke-linejoin:round;stroke-width:0.28346458077430725px"/></g><g id="LINE-77" data-name="LINE"><line x1="141.81" y1="131.02" x2="155.79" y2="78.51" style="fill:none;stroke:#000;stroke-linecap:round;stroke-linejoin:round;stroke-width:0.28346458077430725px"/></g><g id="LINE-78" data-name="LINE"><line x1="147.21" y1="132.46" x2="161.27" y2="79.98" style="fill:none;stroke:#000;stroke-linecap:round;stroke-linejoin:round;stroke-width:0.28346458077430725px"/></g><g id="CIRCLE-72" data-name="CIRCLE"><path d="M109.44,256.77a1.42,1.42,0,1,1,1.42,1.42,1.42,1.42,0,0,1-1.42-1.42Z" style="fill:none;stroke:#000;stroke-linecap:round;stroke-linejoin:round;stroke-width:0.28346458077430725px"/></g><g id="LINE-79" data-name="LINE"><line x1="147.21" y1="132.46" x2="185.57" y2="93.98" style="fill:none;stroke:#000;stroke-linecap:round;stroke-linejoin:round;stroke-width:0.28346458077430725px"/></g><g id="LINE-80" data-name="LINE"><line x1="151.16" y1="136.41" x2="189.58" y2="97.99" style="fill:none;stroke:#000;stroke-linecap:round;stroke-linejoin:round;stroke-width:0.28346458077430725px"/></g><g id="LINE-81" data-name="LINE"><line x1="151.16" y1="136.41" x2="203.62" y2="122.27" style="fill:none;stroke:#000;stroke-linecap:round;stroke-linejoin:round;stroke-width:0.28346458077430725px"/></g><g id="LINE-82" data-name="LINE"><line x1="152.6" y1="141.81" x2="205.11" y2="155.79" style="fill:none;stroke:#000;stroke-linecap:round;stroke-linejoin:round;stroke-width:0.28346458077430725px"/></g><g id="LINE-83" data-name="LINE"><line x1="151.16" y1="147.21" x2="203.64" y2="161.27" style="fill:none;stroke:#000;stroke-linecap:round;stroke-linejoin:round;stroke-width:0.28346458077430725px"/></g><g id="CIRCLE-73" data-name="CIRCLE"><path d="M255.36,172.76a1.42,1.42,0,1,1,1.41,1.42,1.42,1.42,0,0,1-1.41-1.42Z" style="fill:none;stroke:#000;stroke-linecap:round;stroke-linejoin:round;stroke-width:0.28346458077430725px"/></g><g id="LINE-84" data-name="LINE"><line x1="151.16" y1="147.21" x2="189.64" y2="185.57" style="fill:none;stroke:#000;stroke-linecap:round;stroke-linejoin:round;stroke-width:0.28346458077430725px"/></g><g id="CIRCLE-74" data-name="CIRCLE"><path d="M160.66,65.28a1.42,1.42,0,1,1,1.42,1.41,1.42,1.42,0,0,1-1.42-1.41Z" style="fill:none;stroke:#000;stroke-linecap:round;stroke-linejoin:round;stroke-width:0.28346458077430725px"/></g></svg>