<?xml version="1.0" encoding="utf-8"?>
<!-- Generator: Adobe Illustrator 22.1.0, SVG Export Plug-In . SVG Version: 6.00 Build 0)  -->
<svg version="1.1" id="MODELSKETCH_VISIBLE" xmlns="http://www.w3.org/2000/svg" xmlns:xlink="http://www.w3.org/1999/xlink"
	 x="0px" y="0px" viewBox="0 0 283.6 309.1" style="enable-background:new 0 0 283.6 309.1;" xml:space="preserve">
<style type="text/css">
	.st0{fill:none;stroke:#000000;stroke-width:0.2835;stroke-miterlimit:10;}
</style>
<title>string art bauble deduplicated</title>
<g id="LINE">
	<polyline class="st0" points="56.6,54 61.8,60.8 60.7,61.7 59.6,62.6 54.4,55.7 	"/>
</g>
<g id="LINE-2">
	<polyline class="st0" points="72.1,43.9 76.4,51.3 75.2,52 74,52.7 69.7,45.3 	"/>
</g>
<g id="CIRCLE">
	<path class="st0" d="M17.2,167.3c0-68.8,55.8-124.6,124.6-124.6s124.6,55.8,124.6,124.6s-55.8,124.6-124.6,124.6
		S17.2,236.1,17.2,167.3z"/>
</g>
<g id="LINE-3">
	<polyline class="st0" points="42.5,66.1 48.6,72.2 47.6,73.2 46.6,74.2 40.5,68.1 	"/>
</g>
<g id="LINE-4">
	<polyline class="st0" points="265.2,97.7 257.7,102 257,100.7 256.3,99.5 263.8,95.2 	"/>
</g>
<g id="LINE-5">
	<polyline class="st0" points="283.5,168.7 274.9,168.7 274.9,167.3 274.9,165.9 283.5,165.9 	"/>
</g>
<g id="LINE-6">
	<polyline class="st0" points="10.3,220.2 18.2,216.9 18.8,218.2 19.3,219.6 11.4,222.8 	"/>
</g>
<g id="LINE-7">
	<polyline class="st0" points="4.5,202.6 12.8,200.4 13.2,201.8 13.5,203.1 5.2,205.4 	"/>
</g>
<g id="LINE-8">
	<polyline class="st0" points="1.1,184.4 9.6,183.3 9.8,184.7 10,186.1 1.4,187.2 	"/>
</g>
<g id="LINE-9">
	<polyline class="st0" points="0,165.9 8.6,165.9 8.6,167.3 8.6,168.7 0,168.7 	"/>
</g>
<g id="LINE-10">
	<polyline class="st0" points="243,68.1 236.9,74.2 235.9,73.2 234.9,72.2 241,66.1 	"/>
</g>
<g id="LINE-11">
	<polyline class="st0" points="143.2,25.6 143.2,34.2 141.8,34.2 140.3,34.2 140.3,25.6 	"/>
</g>
<g id="LINE-12">
	<polyline class="st0" points="211.4,43.9 207.1,51.3 208.3,52 209.5,52.7 213.8,45.3 	"/>
</g>
<g id="LINE-13">
	<polyline class="st0" points="86.2,36.9 89.5,44.9 90.8,44.3 92.1,43.8 88.8,35.8 	"/>
</g>
<g id="LINE-14">
	<polyline class="st0" points="194.7,35.8 191.4,43.8 192.7,44.3 194,44.9 197.3,36.9 	"/>
</g>
<g id="LINE-15">
	<polyline class="st0" points="18.3,97.7 25.8,102 26.5,100.7 27.2,99.5 19.7,95.2 	"/>
</g>
<g id="LINE-16">
	<polyline class="st0" points="161.7,27 160.5,35.5 159.1,35.3 157.7,35.1 158.9,26.6 	"/>
</g>
<g id="LINE-17">
	<polyline class="st0" points="5.2,129.3 13.5,131.5 13.2,132.9 12.8,134.2 4.5,132 	"/>
</g>
<g id="LINE-18">
	<polyline class="st0" points="30.2,79.9 37,85.1 36.2,86.3 35.3,87.4 28.5,82.1 	"/>
</g>
<g id="LINE-19">
	<polyline class="st0" points="179.8,30.8 177.6,39.1 176.2,38.7 174.8,38.4 177.1,30 	"/>
</g>
<g id="LINE-20">
	<polyline class="st0" points="11.4,111.8 19.3,115.1 18.8,116.4 18.2,117.7 10.3,114.4 	"/>
</g>
<g id="LINE-21">
	<polyline class="st0" points="106.4,30 108.7,38.4 107.3,38.7 105.9,39.1 103.7,30.8 	"/>
</g>
<g id="LINE-22">
	<polyline class="st0" points="229.2,55.7 223.9,62.6 222.8,61.7 221.7,60.8 226.9,54 	"/>
</g>
<g id="LINE-23">
	<polyline class="st0" points="121.9,27 123,35.5 124.4,35.3 125.8,35.1 124.7,26.6 	"/>
</g>
<g id="LINE-24">
	<polyline class="st0" points="255.1,82.1 248.2,87.4 247.4,86.3 246.5,85.1 253.3,79.9 	"/>
</g>
<g id="LINE-25">
	<polyline class="st0" points="1.4,147.4 10,148.5 9.8,149.9 9.6,151.3 1.1,150.2 	"/>
</g>
<g id="LINE-26">
	<polyline class="st0" points="19.7,239.4 27.2,235.1 26.5,233.9 25.8,232.6 18.3,236.9 	"/>
</g>
<g id="LINE-27">
	<polyline class="st0" points="30.2,254.7 37,249.5 36.2,248.3 35.3,247.2 28.5,252.5 	"/>
</g>
<g id="LINE-28">
	<polyline class="st0" points="42.5,268.5 48.6,262.4 47.6,261.4 46.6,260.4 40.5,266.5 	"/>
</g>
<g id="LINE-29">
	<polyline class="st0" points="56.6,280.6 61.8,273.8 60.7,272.9 59.6,272.1 54.4,278.9 	"/>
</g>
<g id="LINE-30">
	<polyline class="st0" points="72.1,290.8 76.4,283.3 75.2,282.6 74,281.9 69.7,289.3 	"/>
</g>
<g id="LINE-31">
	<polyline class="st0" points="88.8,298.8 92.1,290.8 90.8,290.3 89.5,289.7 86.2,297.7 	"/>
</g>
<g id="LINE-32">
	<polyline class="st0" points="106.4,304.6 108.7,296.2 107.3,295.9 105.9,295.5 103.7,303.8 	"/>
</g>
<g id="LINE-33">
	<polyline class="st0" points="124.7,308 125.8,299.5 124.4,299.3 123,299.1 121.9,307.6 	"/>
</g>
<g id="LINE-34">
	<polyline class="st0" points="143.2,309 143.2,300.4 141.8,300.4 140.3,300.4 140.3,309 	"/>
</g>
<g id="LINE-35">
	<polyline class="st0" points="161.7,307.6 160.5,299.1 159.1,299.3 157.7,299.5 158.9,308 	"/>
</g>
<g id="LINE-36">
	<polyline class="st0" points="179.8,303.8 177.6,295.5 176.2,295.9 174.8,296.2 177.1,304.6 	"/>
</g>
<g id="LINE-37">
	<polyline class="st0" points="197.3,297.7 194,289.7 192.7,290.3 191.4,290.8 194.7,298.8 	"/>
</g>
<g id="LINE-38">
	<polyline class="st0" points="213.8,289.3 209.5,281.9 208.3,282.6 207.1,283.3 211.4,290.8 	"/>
</g>
<g id="LINE-39">
	<polyline class="st0" points="229.2,278.9 223.9,272.1 222.8,272.9 221.7,273.8 226.9,280.6 	"/>
</g>
<g id="LINE-40">
	<polyline class="st0" points="243,266.5 236.9,260.4 235.9,261.4 234.9,262.4 241,268.5 	"/>
</g>
<g id="LINE-41">
	<polyline class="st0" points="255.1,252.5 248.2,247.2 247.4,248.3 246.5,249.5 253.3,254.7 	"/>
</g>
<g id="LINE-42">
	<polyline class="st0" points="265.2,236.9 257.7,232.6 257,233.9 256.3,235.1 263.8,239.4 	"/>
</g>
<g id="LINE-43">
	<polyline class="st0" points="273.2,220.2 265.3,216.9 264.7,218.2 264.2,219.6 272.2,222.8 	"/>
</g>
<g id="LINE-44">
	<polyline class="st0" points="282.1,147.4 273.5,148.5 273.7,149.9 273.9,151.3 282.5,150.2 	"/>
</g>
<g id="LINE-45">
	<polyline class="st0" points="279,202.6 270.7,200.4 270.3,201.8 270,203.1 278.3,205.4 	"/>
</g>
<g id="LINE-46">
	<polyline class="st0" points="278.3,129.3 270,131.5 270.3,132.9 270.7,134.2 279,132 	"/>
</g>
<g id="LINE-47">
	<polyline class="st0" points="282.5,184.4 273.9,183.3 273.7,184.7 273.5,186.1 282.1,187.2 	"/>
</g>
<g id="LINE-48">
	<polyline class="st0" points="272.2,111.8 264.2,115.1 264.7,116.4 265.3,117.7 273.2,114.4 	"/>
</g>
<path class="st0" d="M156.1,26.3c5.1-7.9,2.7-18.4-5.2-23.5C143-2.2,132.5,0.1,127.4,8c-2.2,3.4-3.1,7.5-2.5,11.6l0,0
	c2.8-0.3,5.7-0.6,8.5-0.7l0,0c-0.1-0.6-0.2-1.1-0.2-1.7l0,0c0-4.7,3.8-8.5,8.5-8.5c4.7,0,8.5,3.8,8.5,8.5c0,4.6-3.7,8.4-8.3,8.5
	c0,0-0.1,0-0.1,0C63.6,25.6,0.1,89,0.1,167.3s63.4,141.7,141.7,141.7s141.7-63.4,141.7-141.7C283.5,93.8,227.6,33.4,156.1,26.3
	L156.1,26.3z"/>
</svg>
