  0
SECTION
  2
HEADER
  9
$ACADVER
  1
AC1014
  9
$ACADMAINTVER
 70
     9
  9
$DWGCODEPAGE
  3
UNDEFINED
  9
$INSBASE
 10
0.0
 20
0.0
 30
0.0
  9
$EXTMIN
 10
1.000000000000000E+20
 20
1.000000000000000E+20
 30
1.000000000000000E+20
  9
$EXTMAX
 10
-1.000000000000000E+20
 20
-1.000000000000000E+20
 30
-1.000000000000000E+20
  9
$LIMMIN
 10
0.0
 20
0.0
  9
$LIMMAX
 10
12.0
 20
9.0
  9
$ORTHOMODE
 70
     0
  9
$REGENMODE
 70
     1
  9
$FILLMODE
 70
     1
  9
$QTEXTMODE
 70
     0
  9
$MIRRTEXT
 70
     1
  9
$DRAGMODE
 70
     2
  9
$LTSCALE
 40
1.0
  9
$OSMODE
 70
    37
  9
$ATTMODE
 70
     1
  9
$TEXTSIZE
 40
0.2
  9
$TRACEWID
 40
0.05
  9
$TEXTSTYLE
  7
STANDARD
  9
$CLAYER
  8
0
  9
$CELTYPE
  6
BYLAYER
  9
$CECOLOR
 62
   256
  9
$CELTSCALE
 40
1.0
  9
$DELOBJ
 70
     1
  9
$DISPSILH
 70
     0
  9
$DIMSCALE
 40
1.0
  9
$DIMASZ
 40
0.18
  9
$DIMEXO
 40
0.0625
  9
$DIMDLI
 40
0.38
  9
$DIMRND
 40
0.0
  9
$DIMDLE
 40
0.0
  9
$DIMEXE
 40
0.18
  9
$DIMTP
 40
0.0
  9
$DIMTM
 40
0.0
  9
$DIMTXT
 40
0.18
  9
$DIMCEN
 40
0.09
  9
$DIMTSZ
 40
0.0
  9
$DIMTOL
 70
     0
  9
$DIMLIM
 70
     0
  9
$DIMTIH
 70
     1
  9
$DIMTOH
 70
     1
  9
$DIMSE1
 70
     0
  9
$DIMSE2
 70
     0
  9
$DIMTAD
 70
     0
  9
$DIMZIN
 70
     0
  9
$DIMBLK
  1

  9
$DIMASO
 70
     1
  9
$DIMSHO
 70
     1
  9
$DIMPOST
  1

  9
$DIMAPOST
  1

  9
$DIMALT
 70
     0
  9
$DIMALTD
 70
     2
  9
$DIMALTF
 40
25.4
  9
$DIMLFAC
 40
1.0
  9
$DIMTOFL
 70
     0
  9
$DIMTVP
 40
0.0
  9
$DIMTIX
 70
     0
  9
$DIMSOXD
 70
     0
  9
$DIMSAH
 70
     0
  9
$DIMBLK1
  1

  9
$DIMBLK2
  1

  9
$DIMSTYLE
  2
STANDARD
  9
$DIMCLRD
 70
     0
  9
$DIMCLRE
 70
     0
  9
$DIMCLRT
 70
     0
  9
$DIMTFAC
 40
1.0
  9
$DIMGAP
 40
0.09
  9
$DIMJUST
 70
     0
  9
$DIMSD1
 70
     0
  9
$DIMSD2
 70
     0
  9
$DIMTOLJ
 70
     1
  9
$DIMTZIN
 70
     0
  9
$DIMALTZ
 70
     0
  9
$DIMALTTZ
 70
     0
  9
$DIMFIT
 70
     3
  9
$DIMUPT
 70
     0
  9
$DIMUNIT
 70
     2
  9
$DIMDEC
 70
     4
  9
$DIMTDEC
 70
     4
  9
$DIMALTU
 70
     2
  9
$DIMALTTD
 70
     2
  9
$DIMTXSTY
  7
STANDARD
  9
$DIMAUNIT
 70
     0
  9
$LUNITS
 70
     2
  9
$LUPREC
 70
     4
  9
$SKETCHINC
 40
0.1
  9
$FILLETRAD
 40
0.5
  9
$AUNITS
 70
     0
  9
$AUPREC
 70
     0
  9
$MENU
  1
.
  9
$ELEVATION
 40
0.0
  9
$PELEVATION
 40
0.0
  9
$THICKNESS
 40
0.0
  9
$LIMCHECK
 70
     0
  9
$CHAMFERA
 40
0.5
  9
$CHAMFERB
 40
0.5
  9
$CHAMFERC
 40
1.0
  9
$CHAMFERD
 40
0.0
  9
$SKPOLY
 70
     0
  9
$TDCREATE
 40
2458415.766458333
  9
$TDUPDATE
 40
2458415.766458333
  9
$TDINDWG
 40
0.0000000116
  9
$TDUSRTIMER
 40
0.0000000116
  9
$USRTIMER
 70
     1
  9
$ANGBASE
 50
0.0
  9
$ANGDIR
 70
     0
  9
$PDMODE
 70
     0
  9
$PDSIZE
 40
0.0
  9
$PLINEWID
 40
0.0
  9
$COORDS
 70
     1
  9
$SPLFRAME
 70
     0
  9
$SPLINETYPE
 70
     6
  9
$SPLINESEGS
 70
     8
  9
$ATTDIA
 70
     0
  9
$ATTREQ
 70
     1
  9
$HANDLING
 70
     1
  9
$HANDSEED
  5
286
  9
$SURFTAB1
 70
     6
  9
$SURFTAB2
 70
     6
  9
$SURFTYPE
 70
     6
  9
$SURFU
 70
     6
  9
$SURFV
 70
     6
  9
$UCSNAME
  2

  9
$UCSORG
 10
0.0
 20
0.0
 30
0.0
  9
$UCSXDIR
 10
1.0
 20
0.0
 30
0.0
  9
$UCSYDIR
 10
0.0
 20
1.0
 30
0.0
  9
$PUCSNAME
  2

  9
$PUCSORG
 10
0.0
 20
0.0
 30
0.0
  9
$PUCSXDIR
 10
1.0
 20
0.0
 30
0.0
  9
$PUCSYDIR
 10
0.0
 20
1.0
 30
0.0
  9
$USERI1
 70
     0
  9
$USERI2
 70
     0
  9
$USERI3
 70
     0
  9
$USERI4
 70
     0
  9
$USERI5
 70
     0
  9
$USERR1
 40
0.0
  9
$USERR2
 40
0.0
  9
$USERR3
 40
0.0
  9
$USERR4
 40
0.0
  9
$USERR5
 40
0.0
  9
$WORLDVIEW
 70
     1
  9
$SHADEDGE
 70
     3
  9
$SHADEDIF
 70
    70
  9
$TILEMODE
 70
     1
  9
$MAXACTVP
 70
    64
  9
$PINSBASE
 10
0.0
 20
0.0
 30
0.0
  9
$PLIMCHECK
 70
     0
  9
$PEXTMIN
 10
1.000000000000000E+20
 20
1.000000000000000E+20
 30
1.000000000000000E+20
  9
$PEXTMAX
 10
-1.000000000000000E+20
 20
-1.000000000000000E+20
 30
-1.000000000000000E+20
  9
$PLIMMIN
 10
0.0
 20
0.0
  9
$PLIMMAX
 10
12.0
 20
9.0
  9
$UNITMODE
 70
     0
  9
$VISRETAIN
 70
     1
  9
$PLINEGEN
 70
     0
  9
$PSLTSCALE
 70
     1
  9
$TREEDEPTH
 70
  3020
  9
$PICKSTYLE
 70
     1
  9
$CMLSTYLE
  2
STANDARD
  9
$CMLJUST
 70
     0
  9
$CMLSCALE
 40
1.0
  9
$PROXYGRAPHICS
 70
     1
  9
$MEASUREMENT
 70
     0
  0
ENDSEC
  0
SECTION
  2
CLASSES
  0
CLASS
  1
ACDBDICTIONARYWDFLT
  2
AcDbDictionaryWithDefault
  3
ObjectDBX Classes
 90
        0
280
     0
281
     0
  0
CLASS
  1
VISUALSTYLE
  2
AcDbVisualStyle
  3
ObjectDBX Classes
 90
     4095
280
     0
281
     0
  0
CLASS
  1
MATERIAL
  2
AcDbMaterial
  3
ObjectDBX Classes
 90
     1153
280
     0
281
     0
  0
CLASS
  1
SUN
  2
AcDbSun
  3
SCENEOE
 90
     1024
280
     0
281
     0
  0
CLASS
  1
DICTIONARYVAR
  2
AcDbDictionaryVar
  3
ObjectDBX Classes
 90
        0
280
     0
281
     0
  0
CLASS
  1
XRECORD
  2
AcDbXrecord
  3
AutoCAD 2000
 90
        0
280
     0
281
     0
  0
CLASS
  1
LWPOLYLINE
  2
AcDbPolyline
  3
AutoCAD 2000
 90
        0
280
     0
281
     1
  0
CLASS
  1
HATCH
  2
AcDbHatch
  3
AutoCAD 2000
 90
        0
280
     0
281
     1
  0
CLASS
  1
ACDBPLACEHOLDER
  2
AcDbPlaceHolder
  3
ObjectDBX Classes
 90
        0
280
     0
281
     0
  0
CLASS
  1
LAYOUT
  2
AcDbLayout
  3
ObjectDBX Classes
 90
        0
280
     0
281
     0
  0
ENDSEC
  0
SECTION
  2
TABLES
  0
TABLE
  2
VPORT
  5
8
330
0
100
AcDbSymbolTable
 70
     1
  0
VPORT
  5
29
330
8
100
AcDbSymbolTableRecord
100
AcDbViewportTableRecord
  2
*ACTIVE
 70
     0
 10
0.0
 20
0.0
 11
1.0
 21
1.0
 12
0.0
 22
0.0
 13
0.0
 23
0.0
 14
0.5
 24
0.5
 15
0.5
 25
0.5
 16
0.0
 26
0.0
 36
1.0
 17
96.36727221574556
 27
105.0035319680326
 37
0.0
 40
109.0400964603893
 41
0.9176415482999383
 42
50.0
 43
0.0
 44
0.0
 50
0.0
 51
0.0
 71
     0
 72
   100
 73
     1
 74
     3
 75
     0
 76
     0
 77
     0
 78
     0
  0
ENDTAB
  0
TABLE
  2
LTYPE
  5
5
330
0
100
AcDbSymbolTable
 70
     1
  0
LTYPE
  5
14
330
5
100
AcDbSymbolTableRecord
100
AcDbLinetypeTableRecord
  2
BYBLOCK
 70
     0
  3

 72
    65
 73
     0
 40
0.0
  0
LTYPE
  5
15
330
5
100
AcDbSymbolTableRecord
100
AcDbLinetypeTableRecord
  2
BYLAYER
 70
     0
  3

 72
    65
 73
     0
 40
0.0
  0
LTYPE
  5
16
330
5
100
AcDbSymbolTableRecord
100
AcDbLinetypeTableRecord
  2
CONTINUOUS
 70
     0
  3
Solid line
 72
    65
 73
     0
 40
0.0
  0
ENDTAB
  0
TABLE
  2
LAYER
  5
2
330
0
100
AcDbSymbolTable
 70
     2
  0
LAYER
  5
10
330
2
100
AcDbSymbolTableRecord
100
AcDbLayerTableRecord
  2
0
 70
     0
 62
     7
  6
CONTINUOUS
  0
LAYER
  5
40
330
2
100
AcDbSymbolTableRecord
100
AcDbLayerTableRecord
  2
MODELSKETCH_VISIBLE
 70
     0
 62
     7
  6
CONTINUOUS
  0
ENDTAB
  0
TABLE
  2
STYLE
  5
3
330
0
100
AcDbSymbolTable
 70
     1
  0
STYLE
  5
11
330
3
100
AcDbSymbolTableRecord
100
AcDbTextStyleTableRecord
  2
STANDARD
 70
     0
 40
0.0
 41
1.0
 50
0.0
 71
     0
 42
0.2
  3
txt
  4

  0
ENDTAB
  0
TABLE
  2
VIEW
  5
6
330
0
100
AcDbSymbolTable
 70
     0
  0
ENDTAB
  0
TABLE
  2
UCS
  5
7
330
0
100
AcDbSymbolTable
 70
     0
  0
ENDTAB
  0
TABLE
  2
APPID
  5
9
330
0
100
AcDbSymbolTable
 70
     1
  0
APPID
  5
12
330
9
100
AcDbSymbolTableRecord
100
AcDbRegAppTableRecord
  2
ACAD
 70
     0
  0
ENDTAB
  0
TABLE
  2
DIMSTYLE
  5
A
330
0
100
AcDbSymbolTable
 70
     1
  0
DIMSTYLE
105
27
330
A
100
AcDbSymbolTableRecord
100
AcDbDimStyleTableRecord
  2
STANDARD
 70
     0
  3

  4

  5

  6

  7

 40
1.0
 41
0.18
 42
0.0625
 43
0.38
 44
0.18
 45
0.0
 46
0.0
 47
0.0
 48
0.0
140
0.18
141
0.09
142
0.0
143
25.4
144
1.0
145
0.0
146
1.0
147
0.09
 71
     0
 72
     0
 73
     1
 74
     1
 75
     0
 76
     0
 77
     0
 78
     0
170
     0
171
     2
172
     0
173
     0
174
     0
175
     0
176
     0
177
     0
178
     0
270
     2
271
     4
272
     4
273
     2
274
     2
340
11
275
     0
280
     0
281
     0
282
     0
283
     1
284
     0
285
     0
286
     0
287
     3
288
     0
  0
ENDTAB
  0
TABLE
  2
BLOCK_RECORD
  5
1
330
0
100
AcDbSymbolTable
 70
    51
  0
BLOCK_RECORD
  5
1F
330
1
100
AcDbSymbolTableRecord
100
AcDbBlockTableRecord
  2
*MODEL_SPACE
  0
BLOCK_RECORD
  5
1B
330
1
100
AcDbSymbolTableRecord
100
AcDbBlockTableRecord
  2
*PAPER_SPACE
  0
BLOCK_RECORD
  5
41
330
1
100
AcDbSymbolTableRecord
100
AcDbBlockTableRecord
  2
BLOCK_2
  0
BLOCK_RECORD
  5
45
330
1
100
AcDbSymbolTableRecord
100
AcDbBlockTableRecord
  2
BLOCK_3
  0
BLOCK_RECORD
  5
50
330
1
100
AcDbSymbolTableRecord
100
AcDbBlockTableRecord
  2
BLOCK_4
  0
BLOCK_RECORD
  5
5B
330
1
100
AcDbSymbolTableRecord
100
AcDbBlockTableRecord
  2
BLOCK_5
  0
BLOCK_RECORD
  5
60
330
1
100
AcDbSymbolTableRecord
100
AcDbBlockTableRecord
  2
BLOCK_6
  0
BLOCK_RECORD
  5
6B
330
1
100
AcDbSymbolTableRecord
100
AcDbBlockTableRecord
  2
BLOCK_7
  0
BLOCK_RECORD
  5
76
330
1
100
AcDbSymbolTableRecord
100
AcDbBlockTableRecord
  2
BLOCK_8
  0
BLOCK_RECORD
  5
81
330
1
100
AcDbSymbolTableRecord
100
AcDbBlockTableRecord
  2
BLOCK_9
  0
BLOCK_RECORD
  5
8C
330
1
100
AcDbSymbolTableRecord
100
AcDbBlockTableRecord
  2
BLOCK_10
  0
BLOCK_RECORD
  5
97
330
1
100
AcDbSymbolTableRecord
100
AcDbBlockTableRecord
  2
BLOCK_11
  0
BLOCK_RECORD
  5
A2
330
1
100
AcDbSymbolTableRecord
100
AcDbBlockTableRecord
  2
BLOCK_12
  0
BLOCK_RECORD
  5
AD
330
1
100
AcDbSymbolTableRecord
100
AcDbBlockTableRecord
  2
BLOCK_13
  0
BLOCK_RECORD
  5
B8
330
1
100
AcDbSymbolTableRecord
100
AcDbBlockTableRecord
  2
BLOCK_14
  0
BLOCK_RECORD
  5
C3
330
1
100
AcDbSymbolTableRecord
100
AcDbBlockTableRecord
  2
BLOCK_15
  0
BLOCK_RECORD
  5
CE
330
1
100
AcDbSymbolTableRecord
100
AcDbBlockTableRecord
  2
BLOCK_16
  0
BLOCK_RECORD
  5
D9
330
1
100
AcDbSymbolTableRecord
100
AcDbBlockTableRecord
  2
BLOCK_17
  0
BLOCK_RECORD
  5
E4
330
1
100
AcDbSymbolTableRecord
100
AcDbBlockTableRecord
  2
BLOCK_18
  0
BLOCK_RECORD
  5
EF
330
1
100
AcDbSymbolTableRecord
100
AcDbBlockTableRecord
  2
BLOCK_19
  0
BLOCK_RECORD
  5
FA
330
1
100
AcDbSymbolTableRecord
100
AcDbBlockTableRecord
  2
BLOCK_20
  0
BLOCK_RECORD
  5
105
330
1
100
AcDbSymbolTableRecord
100
AcDbBlockTableRecord
  2
BLOCK_21
  0
BLOCK_RECORD
  5
110
330
1
100
AcDbSymbolTableRecord
100
AcDbBlockTableRecord
  2
BLOCK_22
  0
BLOCK_RECORD
  5
11B
330
1
100
AcDbSymbolTableRecord
100
AcDbBlockTableRecord
  2
BLOCK_23
  0
BLOCK_RECORD
  5
126
330
1
100
AcDbSymbolTableRecord
100
AcDbBlockTableRecord
  2
BLOCK_24
  0
BLOCK_RECORD
  5
131
330
1
100
AcDbSymbolTableRecord
100
AcDbBlockTableRecord
  2
BLOCK_25
  0
BLOCK_RECORD
  5
13C
330
1
100
AcDbSymbolTableRecord
100
AcDbBlockTableRecord
  2
BLOCK_26
  0
BLOCK_RECORD
  5
147
330
1
100
AcDbSymbolTableRecord
100
AcDbBlockTableRecord
  2
BLOCK_27
  0
BLOCK_RECORD
  5
152
330
1
100
AcDbSymbolTableRecord
100
AcDbBlockTableRecord
  2
BLOCK_28
  0
BLOCK_RECORD
  5
15D
330
1
100
AcDbSymbolTableRecord
100
AcDbBlockTableRecord
  2
BLOCK_29
  0
BLOCK_RECORD
  5
168
330
1
100
AcDbSymbolTableRecord
100
AcDbBlockTableRecord
  2
BLOCK_30
  0
BLOCK_RECORD
  5
173
330
1
100
AcDbSymbolTableRecord
100
AcDbBlockTableRecord
  2
BLOCK_31
  0
BLOCK_RECORD
  5
17E
330
1
100
AcDbSymbolTableRecord
100
AcDbBlockTableRecord
  2
BLOCK_32
  0
BLOCK_RECORD
  5
189
330
1
100
AcDbSymbolTableRecord
100
AcDbBlockTableRecord
  2
BLOCK_33
  0
BLOCK_RECORD
  5
194
330
1
100
AcDbSymbolTableRecord
100
AcDbBlockTableRecord
  2
BLOCK_34
  0
BLOCK_RECORD
  5
19F
330
1
100
AcDbSymbolTableRecord
100
AcDbBlockTableRecord
  2
BLOCK_35
  0
BLOCK_RECORD
  5
1AA
330
1
100
AcDbSymbolTableRecord
100
AcDbBlockTableRecord
  2
BLOCK_36
  0
BLOCK_RECORD
  5
1B5
330
1
100
AcDbSymbolTableRecord
100
AcDbBlockTableRecord
  2
BLOCK_37
  0
BLOCK_RECORD
  5
1C0
330
1
100
AcDbSymbolTableRecord
100
AcDbBlockTableRecord
  2
BLOCK_38
  0
BLOCK_RECORD
  5
1CB
330
1
100
AcDbSymbolTableRecord
100
AcDbBlockTableRecord
  2
BLOCK_39
  0
BLOCK_RECORD
  5
1D6
330
1
100
AcDbSymbolTableRecord
100
AcDbBlockTableRecord
  2
BLOCK_40
  0
BLOCK_RECORD
  5
1E1
330
1
100
AcDbSymbolTableRecord
100
AcDbBlockTableRecord
  2
BLOCK_41
  0
BLOCK_RECORD
  5
1EC
330
1
100
AcDbSymbolTableRecord
100
AcDbBlockTableRecord
  2
BLOCK_42
  0
BLOCK_RECORD
  5
1F7
330
1
100
AcDbSymbolTableRecord
100
AcDbBlockTableRecord
  2
BLOCK_43
  0
BLOCK_RECORD
  5
202
330
1
100
AcDbSymbolTableRecord
100
AcDbBlockTableRecord
  2
BLOCK_44
  0
BLOCK_RECORD
  5
20D
330
1
100
AcDbSymbolTableRecord
100
AcDbBlockTableRecord
  2
BLOCK_45
  0
BLOCK_RECORD
  5
218
330
1
100
AcDbSymbolTableRecord
100
AcDbBlockTableRecord
  2
BLOCK_46
  0
BLOCK_RECORD
  5
223
330
1
100
AcDbSymbolTableRecord
100
AcDbBlockTableRecord
  2
BLOCK_47
  0
BLOCK_RECORD
  5
22E
330
1
100
AcDbSymbolTableRecord
100
AcDbBlockTableRecord
  2
BLOCK_48
  0
BLOCK_RECORD
  5
239
330
1
100
AcDbSymbolTableRecord
100
AcDbBlockTableRecord
  2
BLOCK_49
  0
BLOCK_RECORD
  5
244
330
1
100
AcDbSymbolTableRecord
100
AcDbBlockTableRecord
  2
BLOCK_50
  0
BLOCK_RECORD
  5
24F
330
1
100
AcDbSymbolTableRecord
100
AcDbBlockTableRecord
  2
BLOCK_51
  0
ENDTAB
  0
ENDSEC
  0
SECTION
  2
BLOCKS
  0
BLOCK
  5
20
330
1F
100
AcDbEntity
  8
0
100
AcDbBlockBegin
  2
*MODEL_SPACE
 70
     0
 10
0.0
 20
0.0
 30
0.0
  3
*MODEL_SPACE
  1

  0
ENDBLK
  5
21
330
1F
100
AcDbEntity
  8
0
100
AcDbBlockEnd
  0
BLOCK
  5
1C
330
1B
100
AcDbEntity
 67
     1
  8
0
100
AcDbBlockBegin
  2
*PAPER_SPACE
 70
     0
 10
0.0
 20
0.0
 30
0.0
  3
*PAPER_SPACE
  1

  0
ENDBLK
  5
1D
330
1B
100
AcDbEntity
 67
     1
  8
0
100
AcDbBlockEnd
  0
BLOCK
  5
43
330
41
100
AcDbEntity
  8
0
100
AcDbBlockBegin
  2
BLOCK_2
 70
     0
 10
0.0
 20
0.0
 30
0.0
  3
BLOCK_2
  1

  0
ENDBLK
  5
44
330
41
100
AcDbEntity
  8
0
100
AcDbBlockEnd
  0
BLOCK
  5
47
330
45
100
AcDbEntity
  8
0
100
AcDbBlockBegin
  2
BLOCK_3
 70
     0
 10
0.0
 20
0.0
 30
0.0
  3
BLOCK_3
  1

  0
POLYLINE
  5
49
330
45
100
AcDbEntity
  8
MODELSKETCH_VISIBLE
100
AcDb2dPolyline
 66
     1
 10
0.0
 20
0.0
 30
0.0
  0
VERTEX
  5
4A
330
49
100
AcDbEntity
  8
MODELSKETCH_VISIBLE
100
AcDbVertex
100
AcDb2dVertex
 10
66.30612504340202
 20
140.4734346724307
 30
0.0
  0
VERTEX
  5
4B
330
49
100
AcDbEntity
  8
MODELSKETCH_VISIBLE
100
AcDbVertex
100
AcDb2dVertex
 10
68.1551980620962
 20
138.0623170821869
 30
0.0
  0
VERTEX
  5
4C
330
49
100
AcDbEntity
  8
MODELSKETCH_VISIBLE
100
AcDbVertex
100
AcDb2dVertex
 10
67.75975231177172
 20
137.7584109415598
 30
0.0
  0
VERTEX
  5
4D
330
49
100
AcDbEntity
  8
MODELSKETCH_VISIBLE
100
AcDbVertex
100
AcDb2dVertex
 10
67.36247680285727
 20
137.4545034041698
 30
0.0
  0
VERTEX
  5
4E
330
49
100
AcDbEntity
  8
MODELSKETCH_VISIBLE
100
AcDbVertex
100
AcDb2dVertex
 10
65.51340518092533
 20
139.8656209944136
 30
0.0
  0
SEQEND
  5
4F
330
49
100
AcDbEntity
  8
MODELSKETCH_VISIBLE
  0
ENDBLK
  5
48
330
45
100
AcDbEntity
  8
0
100
AcDbBlockEnd
  0
BLOCK
  5
52
330
50
100
AcDbEntity
  8
0
100
AcDbBlockBegin
  2
BLOCK_4
 70
     0
 10
0.0
 20
0.0
 30
0.0
  3
BLOCK_4
  1

  0
POLYLINE
  5
54
330
50
100
AcDbEntity
  8
MODELSKETCH_VISIBLE
100
AcDb2dPolyline
 66
     1
 10
0.0
 20
0.0
 30
0.0
  0
VERTEX
  5
55
330
54
100
AcDbEntity
  8
MODELSKETCH_VISIBLE
100
AcDbVertex
100
AcDb2dVertex
 10
71.78011045625972
 20
144.0525779601268
 30
0.0
  0
VERTEX
  5
56
330
54
100
AcDbEntity
  8
MODELSKETCH_VISIBLE
100
AcDbVertex
100
AcDb2dVertex
 10
73.2996453496835
 20
141.4199394589544
 30
0.0
  0
VERTEX
  5
57
330
54
100
AcDbEntity
  8
MODELSKETCH_VISIBLE
100
AcDbVertex
100
AcDb2dVertex
 10
72.8675848728898
 20
141.1709554080304
 30
0.0
  0
VERTEX
  5
58
330
54
100
AcDbEntity
  8
MODELSKETCH_VISIBLE
100
AcDbVertex
100
AcDb2dVertex
 10
72.43369463750643
 20
140.9219713571066
 30
0.0
  0
VERTEX
  5
59
330
54
100
AcDbEntity
  8
MODELSKETCH_VISIBLE
100
AcDbVertex
100
AcDb2dVertex
 10
70.91415974408265
 20
143.5527800996894
 30
0.0
  0
SEQEND
  5
5A
330
54
100
AcDbEntity
  8
MODELSKETCH_VISIBLE
  0
ENDBLK
  5
53
330
50
100
AcDbEntity
  8
0
100
AcDbBlockEnd
  0
BLOCK
  5
5D
330
5B
100
AcDbEntity
  8
0
100
AcDbBlockBegin
  2
BLOCK_5
 70
     0
 10
0.0
 20
0.0
 30
0.0
  3
BLOCK_5
  1

  0
SPLINE
  5
5F
330
5B
100
AcDbEntity
  8
MODELSKETCH_VISIBLE
100
AcDbSpline
210
0.0
220
0.0
230
1.0
 70
    11
 71
     3
 72
    17
 73
    13
 74
     0
 42
0.0000000001
 43
0.0000000001
 12
1.0
 22
0.0
 32
0.0
 13
1.0
 23
0.0
 33
0.0
 40
0.0
 40
0.0
 40
0.0
 40
0.0
 40
1.0
 40
1.0
 40
1.0
 40
2.0
 40
2.0
 40
2.0
 40
3.0
 40
3.0
 40
3.0
 40
4.0
 40
4.0
 40
4.0
 40
4.0
 10
52.38865576336013
 20
100.5023582770681
 30
0.0
 10
52.38865576336013
 20
124.781952981985
 30
0.0
 10
72.0675417857668
 20
144.4663310736857
 30
0.0
 10
96.34713369715888
 20
144.4663310736857
 30
0.0
 10
120.6267284020751
 20
144.4663310736857
 30
0.0
 10
140.3092767351862
 20
124.781952981985
 30
0.0
 10
140.3092767351862
 20
100.5023582770681
 30
0.0
 10
140.3092767351862
 20
76.22276357215188
 30
0.0
 10
120.6267339891247
 20
56.54022082608971
 30
0.0
 10
96.34713369715888
 20
56.54022082608971
 30
0.0
 10
72.06753340519307
 20
56.54022082608971
 30
0.0
 10
52.38865576336013
 20
76.22276357215188
 30
0.0
 10
52.38865576336013
 20
100.5023582770681
 30
0.0
  0
ENDBLK
  5
5E
330
5B
100
AcDbEntity
  8
0
100
AcDbBlockEnd
  0
BLOCK
  5
62
330
60
100
AcDbEntity
  8
0
100
AcDbBlockBegin
  2
BLOCK_6
 70
     0
 10
0.0
 20
0.0
 30
0.0
  3
BLOCK_6
  1

  0
POLYLINE
  5
64
330
60
100
AcDbEntity
  8
MODELSKETCH_VISIBLE
100
AcDb2dPolyline
 66
     1
 10
0.0
 20
0.0
 30
0.0
  0
VERTEX
  5
65
330
64
100
AcDbEntity
  8
MODELSKETCH_VISIBLE
100
AcDbVertex
100
AcDb2dVertex
 10
61.3447541816847
 20
136.211414304903
 30
0.0
  0
VERTEX
  5
66
330
64
100
AcDbEntity
  8
MODELSKETCH_VISIBLE
100
AcDbVertex
100
AcDb2dVertex
 10
63.4940724270641
 20
134.0620974562858
 30
0.0
  0
VERTEX
  5
67
330
64
100
AcDbEntity
  8
MODELSKETCH_VISIBLE
100
AcDbVertex
100
AcDb2dVertex
 10
63.14073486926517
 20
133.7087612952488
 30
0.0
  0
VERTEX
  5
68
330
64
100
AcDbEntity
  8
MODELSKETCH_VISIBLE
100
AcDbVertex
100
AcDb2dVertex
 10
62.78739731146624
 20
133.3554223406877
 30
0.0
  0
VERTEX
  5
69
330
64
100
AcDbEntity
  8
MODELSKETCH_VISIBLE
100
AcDbVertex
100
AcDb2dVertex
 10
60.63807906608651
 20
135.5047405860671
 30
0.0
  0
SEQEND
  5
6A
330
64
100
AcDbEntity
  8
MODELSKETCH_VISIBLE
  0
ENDBLK
  5
63
330
60
100
AcDbEntity
  8
0
100
AcDbBlockEnd
  0
BLOCK
  5
6D
330
6B
100
AcDbEntity
  8
0
100
AcDbBlockBegin
  2
BLOCK_7
 70
     0
 10
0.0
 20
0.0
 30
0.0
  3
BLOCK_7
  1

  0
POLYLINE
  5
6F
330
6B
100
AcDbEntity
  8
MODELSKETCH_VISIBLE
100
AcDb2dPolyline
 66
     1
 10
0.0
 20
0.0
 30
0.0
  0
VERTEX
  5
70
330
6F
100
AcDbEntity
  8
MODELSKETCH_VISIBLE
100
AcDbVertex
100
AcDb2dVertex
 10
139.8973547769798
 20
125.069384311492
 30
0.0
  0
VERTEX
  5
71
330
6F
100
AcDbEntity
  8
MODELSKETCH_VISIBLE
100
AcDbVertex
100
AcDb2dVertex
 10
137.2647148790449
 20
123.5498494180683
 30
0.0
  0
VERTEX
  5
72
330
6F
100
AcDbEntity
  8
MODELSKETCH_VISIBLE
100
AcDbVertex
100
AcDb2dVertex
 10
137.0139010695312
 20
123.981909894862
 30
0.0
  0
VERTEX
  5
73
330
6F
100
AcDbEntity
  8
MODELSKETCH_VISIBLE
100
AcDbVertex
100
AcDb2dVertex
 10
136.7649198121319
 20
124.4158001302453
 30
0.0
  0
VERTEX
  5
74
330
6F
100
AcDbEntity
  8
MODELSKETCH_VISIBLE
100
AcDbVertex
100
AcDb2dVertex
 10
139.3975597100668
 20
125.9353350236691
 30
0.0
  0
SEQEND
  5
75
330
6F
100
AcDbEntity
  8
MODELSKETCH_VISIBLE
  0
ENDBLK
  5
6E
330
6B
100
AcDbEntity
  8
0
100
AcDbBlockEnd
  0
BLOCK
  5
78
330
76
100
AcDbEntity
  8
0
100
AcDbBlockBegin
  2
BLOCK_8
 70
     0
 10
0.0
 20
0.0
 30
0.0
  3
BLOCK_8
  1

  0
POLYLINE
  5
7A
330
76
100
AcDbEntity
  8
MODELSKETCH_VISIBLE
100
AcDb2dPolyline
 66
     1
 10
0.0
 20
0.0
 30
0.0
  0
VERTEX
  5
7B
330
7A
100
AcDbEntity
  8
MODELSKETCH_VISIBLE
100
AcDbVertex
100
AcDb2dVertex
 10
146.3453123066425
 20
100.0025576231062
 30
0.0
  0
VERTEX
  5
7C
330
7A
100
AcDbEntity
  8
MODELSKETCH_VISIBLE
100
AcDbVertex
100
AcDb2dVertex
 10
143.306236932746
 20
100.0025576231062
 30
0.0
  0
VERTEX
  5
7D
330
7A
100
AcDbEntity
  8
MODELSKETCH_VISIBLE
100
AcDbVertex
100
AcDb2dVertex
 10
143.306236932746
 20
100.5023582770681
 30
0.0
  0
VERTEX
  5
7E
330
7A
100
AcDbEntity
  8
MODELSKETCH_VISIBLE
100
AcDbVertex
100
AcDb2dVertex
 10
143.306236932746
 20
101.0021589310306
 30
0.0
  0
VERTEX
  5
7F
330
7A
100
AcDbEntity
  8
MODELSKETCH_VISIBLE
100
AcDbVertex
100
AcDb2dVertex
 10
146.3453123066425
 20
101.0021589310306
 30
0.0
  0
SEQEND
  5
80
330
7A
100
AcDbEntity
  8
MODELSKETCH_VISIBLE
  0
ENDBLK
  5
79
330
76
100
AcDbEntity
  8
0
100
AcDbBlockEnd
  0
BLOCK
  5
83
330
81
100
AcDbEntity
  8
0
100
AcDbBlockBegin
  2
BLOCK_9
 70
     0
 10
0.0
 20
0.0
 30
0.0
  3
BLOCK_9
  1

  0
POLYLINE
  5
85
330
81
100
AcDbEntity
  8
MODELSKETCH_VISIBLE
100
AcDb2dPolyline
 66
     1
 10
0.0
 20
0.0
 30
0.0
  0
VERTEX
  5
86
330
85
100
AcDbEntity
  8
MODELSKETCH_VISIBLE
100
AcDbVertex
100
AcDb2dVertex
 10
49.96289312058627
 20
81.83039539046962
 30
0.0
  0
VERTEX
  5
87
330
85
100
AcDbEntity
  8
MODELSKETCH_VISIBLE
100
AcDbVertex
100
AcDb2dVertex
 10
52.76945506439202
 20
82.99292622510333
 30
0.0
  0
VERTEX
  5
88
330
85
100
AcDbEntity
  8
MODELSKETCH_VISIBLE
100
AcDbVertex
100
AcDb2dVertex
 10
52.96168517187922
 20
82.53157564324925
 30
0.0
  0
VERTEX
  5
89
330
85
100
AcDbEntity
  8
MODELSKETCH_VISIBLE
100
AcDbVertex
100
AcDb2dVertex
 10
53.15208412401388
 20
82.07022506139516
 30
0.0
  0
VERTEX
  5
8A
330
85
100
AcDbEntity
  8
MODELSKETCH_VISIBLE
100
AcDbVertex
100
AcDb2dVertex
 10
50.34552287858909
 20
80.9076886397125
 30
0.0
  0
SEQEND
  5
8B
330
85
100
AcDbEntity
  8
MODELSKETCH_VISIBLE
  0
ENDBLK
  5
84
330
81
100
AcDbEntity
  8
0
100
AcDbBlockEnd
  0
BLOCK
  5
8E
330
8C
100
AcDbEntity
  8
0
100
AcDbBlockBegin
  2
BLOCK_10
 70
     0
 10
0.0
 20
0.0
 30
0.0
  3
BLOCK_10
  1

  0
POLYLINE
  5
90
330
8C
100
AcDbEntity
  8
MODELSKETCH_VISIBLE
100
AcDb2dPolyline
 66
     1
 10
0.0
 20
0.0
 30
0.0
  0
VERTEX
  5
91
330
90
100
AcDbEntity
  8
MODELSKETCH_VISIBLE
100
AcDbVertex
100
AcDb2dVertex
 10
47.92159104197664
 20
88.04400973145222
 30
0.0
  0
VERTEX
  5
92
330
90
100
AcDbEntity
  8
MODELSKETCH_VISIBLE
100
AcDbVertex
100
AcDb2dVertex
 10
50.85813673134818
 20
88.83123612787291
 30
0.0
  0
VERTEX
  5
93
330
90
100
AcDbEntity
  8
MODELSKETCH_VISIBLE
100
AcDbVertex
100
AcDb2dVertex
 10
50.98629036913319
 20
88.34791168179292
 30
0.0
  0
VERTEX
  5
94
330
90
100
AcDbEntity
  8
MODELSKETCH_VISIBLE
100
AcDbVertex
100
AcDb2dVertex
 10
51.11627446388914
 20
87.86642537487697
 30
0.0
  0
VERTEX
  5
95
330
90
100
AcDbEntity
  8
MODELSKETCH_VISIBLE
100
AcDbVertex
100
AcDb2dVertex
 10
48.17972877451792
 20
87.07919339140733
 30
0.0
  0
SEQEND
  5
96
330
90
100
AcDbEntity
  8
MODELSKETCH_VISIBLE
  0
ENDBLK
  5
8F
330
8C
100
AcDbEntity
  8
0
100
AcDbBlockEnd
  0
BLOCK
  5
99
330
97
100
AcDbEntity
  8
0
100
AcDbBlockBegin
  2
BLOCK_11
 70
     0
 10
0.0
 20
0.0
 30
0.0
  3
BLOCK_11
  1

  0
POLYLINE
  5
9B
330
97
100
AcDbEntity
  8
MODELSKETCH_VISIBLE
100
AcDb2dPolyline
 66
     1
 10
0.0
 20
0.0
 30
0.0
  0
VERTEX
  5
9C
330
9B
100
AcDbEntity
  8
MODELSKETCH_VISIBLE
100
AcDbVertex
100
AcDb2dVertex
 10
46.70962503637288
 20
94.47182036195515
 30
0.0
  0
VERTEX
  5
9D
330
9B
100
AcDbEntity
  8
MODELSKETCH_VISIBLE
100
AcDbVertex
100
AcDb2dVertex
 10
49.72306310047023
 20
94.86909866439407
 30
0.0
  0
VERTEX
  5
9E
330
9B
100
AcDbEntity
  8
MODELSKETCH_VISIBLE
100
AcDbVertex
100
AcDb2dVertex
 10
49.78897037633384
 20
94.37295752761212
 30
0.0
  0
VERTEX
  5
9F
330
9B
100
AcDbEntity
  8
MODELSKETCH_VISIBLE
100
AcDbVertex
100
AcDb2dVertex
 10
49.85304719522618
 20
93.8786545299929
 30
0.0
  0
VERTEX
  5
A0
330
9B
100
AcDbEntity
  8
MODELSKETCH_VISIBLE
100
AcDbVertex
100
AcDb2dVertex
 10
46.83960930572422
 20
93.48137622755398
 30
0.0
  0
SEQEND
  5
A1
330
9B
100
AcDbEntity
  8
MODELSKETCH_VISIBLE
  0
ENDBLK
  5
9A
330
97
100
AcDbEntity
  8
0
100
AcDbBlockEnd
  0
BLOCK
  5
A4
330
A2
100
AcDbEntity
  8
0
100
AcDbBlockBegin
  2
BLOCK_12
 70
     0
 10
0.0
 20
0.0
 30
0.0
  3
BLOCK_12
  1

  0
POLYLINE
  5
A6
330
A2
100
AcDbEntity
  8
MODELSKETCH_VISIBLE
100
AcDb2dPolyline
 66
     1
 10
0.0
 20
0.0
 30
0.0
  0
VERTEX
  5
A7
330
A6
100
AcDbEntity
  8
MODELSKETCH_VISIBLE
100
AcDbVertex
100
AcDb2dVertex
 10
46.34713370965902
 20
101.0021589310306
 30
0.0
  0
VERTEX
  5
A8
330
A6
100
AcDbEntity
  8
MODELSKETCH_VISIBLE
100
AcDbVertex
100
AcDb2dVertex
 10
49.3862024489345
 20
101.0021589310306
 30
0.0
  0
VERTEX
  5
A9
330
A6
100
AcDbEntity
  8
MODELSKETCH_VISIBLE
100
AcDbVertex
100
AcDb2dVertex
 10
49.3862024489345
 20
100.5023582770681
 30
0.0
  0
VERTEX
  5
AA
330
A6
100
AcDbEntity
  8
MODELSKETCH_VISIBLE
100
AcDbVertex
100
AcDb2dVertex
 10
49.3862024489345
 20
100.0025576231062
 30
0.0
  0
VERTEX
  5
AB
330
A6
100
AcDbEntity
  8
MODELSKETCH_VISIBLE
100
AcDbVertex
100
AcDb2dVertex
 10
46.34713370965902
 20
100.0025576231062
 30
0.0
  0
SEQEND
  5
AC
330
A6
100
AcDbEntity
  8
MODELSKETCH_VISIBLE
  0
ENDBLK
  5
A5
330
A2
100
AcDbEntity
  8
0
100
AcDbBlockEnd
  0
BLOCK
  5
AF
330
AD
100
AcDbEntity
  8
0
100
AcDbBlockBegin
  2
BLOCK_13
 70
     0
 10
0.0
 20
0.0
 30
0.0
  3
BLOCK_13
  1

  0
POLYLINE
  5
B1
330
AD
100
AcDbEntity
  8
MODELSKETCH_VISIBLE
100
AcDb2dPolyline
 66
     1
 10
0.0
 20
0.0
 30
0.0
  0
VERTEX
  5
B2
330
B1
100
AcDbEntity
  8
MODELSKETCH_VISIBLE
100
AcDbVertex
100
AcDb2dVertex
 10
132.0543613631661
 20
135.5047405860671
 30
0.0
  0
VERTEX
  5
B3
330
B1
100
AcDbEntity
  8
MODELSKETCH_VISIBLE
100
AcDbVertex
100
AcDb2dVertex
 10
129.9050459113111
 20
133.3554223406877
 30
0.0
  0
VERTEX
  5
B4
330
B1
100
AcDbEntity
  8
MODELSKETCH_VISIBLE
100
AcDbVertex
100
AcDb2dVertex
 10
129.5517097502744
 20
133.7087612952488
 30
0.0
  0
VERTEX
  5
B5
330
B1
100
AcDbEntity
  8
MODELSKETCH_VISIBLE
100
AcDbVertex
100
AcDb2dVertex
 10
129.1983680021881
 20
134.0620974562858
 30
0.0
  0
VERTEX
  5
B6
330
B1
100
AcDbEntity
  8
MODELSKETCH_VISIBLE
100
AcDbVertex
100
AcDb2dVertex
 10
131.347689041092
 20
136.211414304903
 30
0.0
  0
SEQEND
  5
B7
330
B1
100
AcDbEntity
  8
MODELSKETCH_VISIBLE
  0
ENDBLK
  5
B0
330
AD
100
AcDbEntity
  8
0
100
AcDbBlockEnd
  0
BLOCK
  5
BA
330
B8
100
AcDbEntity
  8
0
100
AcDbBlockBegin
  2
BLOCK_14
 70
     0
 10
0.0
 20
0.0
 30
0.0
  3
BLOCK_14
  1

  0
POLYLINE
  5
BC
330
B8
100
AcDbEntity
  8
MODELSKETCH_VISIBLE
100
AcDb2dPolyline
 66
     1
 10
0.0
 20
0.0
 30
0.0
  0
VERTEX
  5
BD
330
BC
100
AcDbEntity
  8
MODELSKETCH_VISIBLE
100
AcDbVertex
100
AcDb2dVertex
 10
96.8469343511208
 20
150.5023610580928
 30
0.0
  0
VERTEX
  5
BE
330
BC
100
AcDbEntity
  8
MODELSKETCH_VISIBLE
100
AcDbVertex
100
AcDb2dVertex
 10
96.8469343511208
 20
147.4614615126555
 30
0.0
  0
VERTEX
  5
BF
330
BC
100
AcDbEntity
  8
MODELSKETCH_VISIBLE
100
AcDbVertex
100
AcDb2dVertex
 10
96.34713369715888
 20
147.4614615126555
 30
0.0
  0
VERTEX
  5
C0
330
BC
100
AcDbEntity
  8
MODELSKETCH_VISIBLE
100
AcDbVertex
100
AcDb2dVertex
 10
95.84733863024591
 20
147.4614615126555
 30
0.0
  0
VERTEX
  5
C1
330
BC
100
AcDbEntity
  8
MODELSKETCH_VISIBLE
100
AcDbVertex
100
AcDb2dVertex
 10
95.84733863024591
 20
150.5023610580928
 30
0.0
  0
SEQEND
  5
C2
330
BC
100
AcDbEntity
  8
MODELSKETCH_VISIBLE
  0
ENDBLK
  5
BB
330
B8
100
AcDbEntity
  8
0
100
AcDbBlockEnd
  0
BLOCK
  5
C5
330
C3
100
AcDbEntity
  8
0
100
AcDbBlockBegin
  2
BLOCK_15
 70
     0
 10
0.0
 20
0.0
 30
0.0
  3
BLOCK_15
  1

  0
POLYLINE
  5
C7
330
C3
100
AcDbEntity
  8
MODELSKETCH_VISIBLE
100
AcDb2dPolyline
 66
     1
 10
0.0
 20
0.0
 30
0.0
  0
VERTEX
  5
C8
330
C7
100
AcDbEntity
  8
MODELSKETCH_VISIBLE
100
AcDbVertex
100
AcDb2dVertex
 10
120.9141597315828
 20
144.0525779601268
 30
0.0
  0
VERTEX
  5
C9
330
C7
100
AcDbEntity
  8
MODELSKETCH_VISIBLE
100
AcDbVertex
100
AcDb2dVertex
 10
119.3927950795691
 20
141.4199394589544
 30
0.0
  0
VERTEX
  5
CA
330
C7
100
AcDbEntity
  8
MODELSKETCH_VISIBLE
100
AcDbVertex
100
AcDb2dVertex
 10
119.8266853149524
 20
141.1709554080304
 30
0.0
  0
VERTEX
  5
CB
330
C7
100
AcDbEntity
  8
MODELSKETCH_VISIBLE
100
AcDbVertex
100
AcDb2dVertex
 10
120.2587485852709
 20
140.9219713571066
 30
0.0
  0
VERTEX
  5
CC
330
C7
100
AcDbEntity
  8
MODELSKETCH_VISIBLE
100
AcDbVertex
100
AcDb2dVertex
 10
121.7782806851696
 20
143.5527800996894
 30
0.0
  0
SEQEND
  5
CD
330
C7
100
AcDbEntity
  8
MODELSKETCH_VISIBLE
  0
ENDBLK
  5
C6
330
C3
100
AcDbEntity
  8
0
100
AcDbBlockEnd
  0
BLOCK
  5
D0
330
CE
100
AcDbEntity
  8
0
100
AcDbBlockBegin
  2
BLOCK_16
 70
     0
 10
0.0
 20
0.0
 30
0.0
  3
BLOCK_16
  1

  0
POLYLINE
  5
D2
330
CE
100
AcDbEntity
  8
MODELSKETCH_VISIBLE
100
AcDb2dPolyline
 66
     1
 10
0.0
 20
0.0
 30
0.0
  0
VERTEX
  5
D3
330
D2
100
AcDbEntity
  8
MODELSKETCH_VISIBLE
100
AcDbVertex
100
AcDb2dVertex
 10
76.75063709473778
 20
146.5039711907814
 30
0.0
  0
VERTEX
  5
D4
330
D2
100
AcDbEntity
  8
MODELSKETCH_VISIBLE
100
AcDbVertex
100
AcDb2dVertex
 10
77.91500048148563
 20
143.6974106437379
 30
0.0
  0
VERTEX
  5
D5
330
D2
100
AcDbEntity
  8
MODELSKETCH_VISIBLE
100
AcDbVertex
100
AcDb2dVertex
 10
78.37635385686418
 20
143.8878088974916
 30
0.0
  0
VERTEX
  5
D6
330
D2
100
AcDbEntity
  8
MODELSKETCH_VISIBLE
100
AcDbVertex
100
AcDb2dVertex
 10
78.83770723224275
 20
144.0782085480076
 30
0.0
  0
VERTEX
  5
D7
330
D2
100
AcDbEntity
  8
MODELSKETCH_VISIBLE
100
AcDbVertex
100
AcDb2dVertex
 10
77.67334105197043
 20
146.8866016471655
 30
0.0
  0
SEQEND
  5
D8
330
D2
100
AcDbEntity
  8
MODELSKETCH_VISIBLE
  0
ENDBLK
  5
D1
330
CE
100
AcDbEntity
  8
0
100
AcDbBlockEnd
  0
BLOCK
  5
DB
330
D9
100
AcDbEntity
  8
0
100
AcDbBlockBegin
  2
BLOCK_17
 70
     0
 10
0.0
 20
0.0
 30
0.0
  3
BLOCK_17
  1

  0
POLYLINE
  5
DD
330
D9
100
AcDbEntity
  8
MODELSKETCH_VISIBLE
100
AcDb2dPolyline
 66
     1
 10
0.0
 20
0.0
 30
0.0
  0
VERTEX
  5
DE
330
DD
100
AcDbEntity
  8
MODELSKETCH_VISIBLE
100
AcDbVertex
100
AcDb2dVertex
 10
115.0191021708069
 20
146.8866016471655
 30
0.0
  0
VERTEX
  5
DF
330
DD
100
AcDbEntity
  8
MODELSKETCH_VISIBLE
100
AcDbVertex
100
AcDb2dVertex
 10
113.8547331970098
 20
144.0782085480076
 30
0.0
  0
VERTEX
  5
E0
330
DD
100
AcDbEntity
  8
MODELSKETCH_VISIBLE
100
AcDbVertex
100
AcDb2dVertex
 10
114.3179163309784
 20
143.8878088974916
 30
0.0
  0
VERTEX
  5
E1
330
DD
100
AcDbEntity
  8
MODELSKETCH_VISIBLE
100
AcDbVertex
100
AcDb2dVertex
 10
114.7792724998814
 20
143.6974106437379
 30
0.0
  0
VERTEX
  5
E2
330
DD
100
AcDbEntity
  8
MODELSKETCH_VISIBLE
100
AcDbVertex
100
AcDb2dVertex
 10
115.9418089215641
 20
146.5039711907814
 30
0.0
  0
SEQEND
  5
E3
330
DD
100
AcDbEntity
  8
MODELSKETCH_VISIBLE
  0
ENDBLK
  5
DC
330
D9
100
AcDbEntity
  8
0
100
AcDbBlockEnd
  0
BLOCK
  5
E6
330
E4
100
AcDbEntity
  8
0
100
AcDbBlockBegin
  2
BLOCK_18
 70
     0
 10
0.0
 20
0.0
 30
0.0
  3
BLOCK_18
  1

  0
POLYLINE
  5
E8
330
E4
100
AcDbEntity
  8
MODELSKETCH_VISIBLE
100
AcDb2dPolyline
 66
     1
 10
0.0
 20
0.0
 30
0.0
  0
VERTEX
  5
E9
330
E8
100
AcDbEntity
  8
MODELSKETCH_VISIBLE
100
AcDbVertex
100
AcDb2dVertex
 10
52.79691610924402
 20
125.069384311492
 30
0.0
  0
VERTEX
  5
EA
330
E8
100
AcDbEntity
  8
MODELSKETCH_VISIBLE
100
AcDbVertex
100
AcDb2dVertex
 10
55.42772415344545
 20
123.5498494180683
 30
0.0
  0
VERTEX
  5
EB
330
E8
100
AcDbEntity
  8
MODELSKETCH_VISIBLE
100
AcDbVertex
100
AcDb2dVertex
 10
55.6785393597214
 20
123.981909894862
 30
0.0
  0
VERTEX
  5
EC
330
E8
100
AcDbEntity
  8
MODELSKETCH_VISIBLE
100
AcDbVertex
100
AcDb2dVertex
 10
55.92752341064513
 20
124.4158001302453
 30
0.0
  0
VERTEX
  5
ED
330
E8
100
AcDbEntity
  8
MODELSKETCH_VISIBLE
100
AcDbVertex
100
AcDb2dVertex
 10
53.29488421109149
 20
125.9353350236691
 30
0.0
  0
SEQEND
  5
EE
330
E8
100
AcDbEntity
  8
MODELSKETCH_VISIBLE
  0
ENDBLK
  5
E7
330
E4
100
AcDbEntity
  8
0
100
AcDbBlockEnd
  0
BLOCK
  5
F1
330
EF
100
AcDbEntity
  8
0
100
AcDbBlockBegin
  2
BLOCK_19
 70
     0
 10
0.0
 20
0.0
 30
0.0
  3
BLOCK_19
  1

  0
POLYLINE
  5
F3
330
EF
100
AcDbEntity
  8
MODELSKETCH_VISIBLE
100
AcDb2dPolyline
 66
     1
 10
0.0
 20
0.0
 30
0.0
  0
VERTEX
  5
F4
330
F3
100
AcDbEntity
  8
MODELSKETCH_VISIBLE
100
AcDbVertex
100
AcDb2dVertex
 10
103.368115746673
 20
150.0080545685684
 30
0.0
  0
VERTEX
  5
F5
330
F3
100
AcDbEntity
  8
MODELSKETCH_VISIBLE
100
AcDbVertex
100
AcDb2dVertex
 10
102.970843031283
 20
146.9946160679829
 30
0.0
  0
VERTEX
  5
F6
330
F3
100
AcDbEntity
  8
MODELSKETCH_VISIBLE
100
AcDbVertex
100
AcDb2dVertex
 10
102.4765344466155
 20
147.060523693037
 30
0.0
  0
VERTEX
  5
F7
330
F3
100
AcDbEntity
  8
MODELSKETCH_VISIBLE
100
AcDbVertex
100
AcDb2dVertex
 10
101.9803988968819
 20
147.1264313180911
 30
0.0
  0
VERTEX
  5
F8
330
F3
100
AcDbEntity
  8
MODELSKETCH_VISIBLE
100
AcDbVertex
100
AcDb2dVertex
 10
102.3776716122718
 20
150.1380386633244
 30
0.0
  0
SEQEND
  5
F9
330
F3
100
AcDbEntity
  8
MODELSKETCH_VISIBLE
  0
ENDBLK
  5
F2
330
EF
100
AcDbEntity
  8
0
100
AcDbBlockEnd
  0
BLOCK
  5
FC
330
FA
100
AcDbEntity
  8
0
100
AcDbBlockBegin
  2
BLOCK_20
 70
     0
 10
0.0
 20
0.0
 30
0.0
  3
BLOCK_20
  1

  0
POLYLINE
  5
FE
330
FA
100
AcDbEntity
  8
MODELSKETCH_VISIBLE
100
AcDb2dPolyline
 66
     1
 10
0.0
 20
0.0
 30
0.0
  0
VERTEX
  5
FF
330
FE
100
AcDbEntity
  8
MODELSKETCH_VISIBLE
100
AcDbVertex
100
AcDb2dVertex
 10
48.17972877451792
 20
113.9255203692047
 30
0.0
  0
VERTEX
  5
100
330
FE
100
AcDbEntity
  8
MODELSKETCH_VISIBLE
100
AcDbVertex
100
AcDb2dVertex
 10
51.11627446388914
 20
113.1382939727843
 30
0.0
  0
VERTEX
  5
101
330
FE
100
AcDbEntity
  8
MODELSKETCH_VISIBLE
100
AcDbVertex
100
AcDb2dVertex
 10
50.98629036913319
 20
112.6568020788191
 30
0.0
  0
VERTEX
  5
102
330
FE
100
AcDbEntity
  8
MODELSKETCH_VISIBLE
100
AcDbVertex
100
AcDb2dVertex
 10
50.85813673134818
 20
112.1734804262639
 30
0.0
  0
VERTEX
  5
103
330
FE
100
AcDbEntity
  8
MODELSKETCH_VISIBLE
100
AcDbVertex
100
AcDb2dVertex
 10
47.92159104197664
 20
112.9607096162088
 30
0.0
  0
SEQEND
  5
104
330
FE
100
AcDbEntity
  8
MODELSKETCH_VISIBLE
  0
ENDBLK
  5
FD
330
FA
100
AcDbEntity
  8
0
100
AcDbBlockEnd
  0
BLOCK
  5
107
330
105
100
AcDbEntity
  8
0
100
AcDbBlockBegin
  2
BLOCK_21
 70
     0
 10
0.0
 20
0.0
 30
0.0
  3
BLOCK_21
  1

  0
POLYLINE
  5
109
330
105
100
AcDbEntity
  8
MODELSKETCH_VISIBLE
100
AcDb2dPolyline
 66
     1
 10
0.0
 20
0.0
 30
0.0
  0
VERTEX
  5
10A
330
109
100
AcDbEntity
  8
MODELSKETCH_VISIBLE
100
AcDbVertex
100
AcDb2dVertex
 10
56.98387377333815
 20
131.3360895868264
 30
0.0
  0
VERTEX
  5
10B
330
109
100
AcDbEntity
  8
MODELSKETCH_VISIBLE
100
AcDbVertex
100
AcDb2dVertex
 10
59.39498996681942
 20
129.4870165681322
 30
0.0
  0
VERTEX
  5
10C
330
109
100
AcDbEntity
  8
MODELSKETCH_VISIBLE
100
AcDbVertex
100
AcDb2dVertex
 10
59.09108382619232
 20
129.0897410592178
 30
0.0
  0
VERTEX
  5
10D
330
109
100
AcDbEntity
  8
MODELSKETCH_VISIBLE
100
AcDbVertex
100
AcDb2dVertex
 10
58.78717628880268
 20
128.6924655503034
 30
0.0
  0
VERTEX
  5
10E
330
109
100
AcDbEntity
  8
MODELSKETCH_VISIBLE
100
AcDbVertex
100
AcDb2dVertex
 10
56.37606009532108
 20
130.5433683275875
 30
0.0
  0
SEQEND
  5
10F
330
109
100
AcDbEntity
  8
MODELSKETCH_VISIBLE
  0
ENDBLK
  5
108
330
105
100
AcDbEntity
  8
0
100
AcDbBlockEnd
  0
BLOCK
  5
112
330
110
100
AcDbEntity
  8
0
100
AcDbBlockBegin
  2
BLOCK_22
 70
     0
 10
0.0
 20
0.0
 30
0.0
  3
BLOCK_22
  1

  0
POLYLINE
  5
114
330
110
100
AcDbEntity
  8
MODELSKETCH_VISIBLE
100
AcDb2dPolyline
 66
     1
 10
0.0
 20
0.0
 30
0.0
  0
VERTEX
  5
115
330
114
100
AcDbEntity
  8
MODELSKETCH_VISIBLE
100
AcDbVertex
100
AcDb2dVertex
 10
109.7702985828196
 20
148.6679351870724
 30
0.0
  0
VERTEX
  5
116
330
114
100
AcDbEntity
  8
MODELSKETCH_VISIBLE
100
AcDbVertex
100
AcDb2dVertex
 10
108.9830721863996
 20
145.7332196054813
 30
0.0
  0
VERTEX
  5
117
330
114
100
AcDbEntity
  8
MODELSKETCH_VISIBLE
100
AcDbVertex
100
AcDb2dVertex
 10
108.4997477403196
 20
145.8613739416476
 30
0.0
  0
VERTEX
  5
118
330
114
100
AcDbEntity
  8
MODELSKETCH_VISIBLE
100
AcDbVertex
100
AcDb2dVertex
 10
108.0182558463547
 20
145.9913580364036
 30
0.0
  0
VERTEX
  5
119
330
114
100
AcDbEntity
  8
MODELSKETCH_VISIBLE
100
AcDbVertex
100
AcDb2dVertex
 10
108.8054878298237
 20
148.9279033765847
 30
0.0
  0
SEQEND
  5
11A
330
114
100
AcDbEntity
  8
MODELSKETCH_VISIBLE
  0
ENDBLK
  5
113
330
110
100
AcDbEntity
  8
0
100
AcDbBlockEnd
  0
BLOCK
  5
11D
330
11B
100
AcDbEntity
  8
0
100
AcDbBlockBegin
  2
BLOCK_23
 70
     0
 10
0.0
 20
0.0
 30
0.0
  3
BLOCK_23
  1

  0
POLYLINE
  5
11F
330
11B
100
AcDbEntity
  8
MODELSKETCH_VISIBLE
100
AcDb2dPolyline
 66
     1
 10
0.0
 20
0.0
 30
0.0
  0
VERTEX
  5
120
330
11F
100
AcDbEntity
  8
MODELSKETCH_VISIBLE
100
AcDbVertex
100
AcDb2dVertex
 10
50.34552287858909
 20
120.098857673014
 30
0.0
  0
VERTEX
  5
121
330
11F
100
AcDbEntity
  8
MODELSKETCH_VISIBLE
100
AcDbVertex
100
AcDb2dVertex
 10
53.15208412401388
 20
118.9344914927417
 30
0.0
  0
VERTEX
  5
122
330
11F
100
AcDbEntity
  8
MODELSKETCH_VISIBLE
100
AcDbVertex
100
AcDb2dVertex
 10
52.96168517187922
 20
118.4731409108876
 30
0.0
  0
VERTEX
  5
123
330
11F
100
AcDbEntity
  8
MODELSKETCH_VISIBLE
100
AcDbVertex
100
AcDb2dVertex
 10
52.76945506439202
 20
118.011787535509
 30
0.0
  0
VERTEX
  5
124
330
11F
100
AcDbEntity
  8
MODELSKETCH_VISIBLE
100
AcDbVertex
100
AcDb2dVertex
 10
49.96289312058627
 20
119.1743239571917
 30
0.0
  0
SEQEND
  5
125
330
11F
100
AcDbEntity
  8
MODELSKETCH_VISIBLE
  0
ENDBLK
  5
11E
330
11B
100
AcDbEntity
  8
0
100
AcDbBlockEnd
  0
BLOCK
  5
128
330
126
100
AcDbEntity
  8
0
100
AcDbBlockBegin
  2
BLOCK_24
 70
     0
 10
0.0
 20
0.0
 30
0.0
  3
BLOCK_24
  1

  0
POLYLINE
  5
12A
330
126
100
AcDbEntity
  8
MODELSKETCH_VISIBLE
100
AcDb2dPolyline
 66
     1
 10
0.0
 20
0.0
 30
0.0
  0
VERTEX
  5
12B
330
12A
100
AcDbEntity
  8
MODELSKETCH_VISIBLE
100
AcDbVertex
100
AcDb2dVertex
 10
83.888785151543
 20
148.9279033765847
 30
0.0
  0
VERTEX
  5
12C
330
12A
100
AcDbEntity
  8
MODELSKETCH_VISIBLE
100
AcDbVertex
100
AcDb2dVertex
 10
84.67418458289788
 20
145.9913580364036
 30
0.0
  0
VERTEX
  5
12D
330
12A
100
AcDbEntity
  8
MODELSKETCH_VISIBLE
100
AcDbVertex
100
AcDb2dVertex
 10
84.19269268893265
 20
145.8613739416476
 30
0.0
  0
VERTEX
  5
12E
330
12A
100
AcDbEntity
  8
MODELSKETCH_VISIBLE
100
AcDbVertex
100
AcDb2dVertex
 10
83.70937103637745
 20
145.7332196054813
 30
0.0
  0
VERTEX
  5
12F
330
12A
100
AcDbEntity
  8
MODELSKETCH_VISIBLE
100
AcDbVertex
100
AcDb2dVertex
 10
82.92397160502259
 20
148.6679351870724
 30
0.0
  0
SEQEND
  5
130
330
12A
100
AcDbEntity
  8
MODELSKETCH_VISIBLE
  0
ENDBLK
  5
129
330
126
100
AcDbEntity
  8
0
100
AcDbBlockEnd
  0
BLOCK
  5
133
330
131
100
AcDbEntity
  8
0
100
AcDbBlockBegin
  2
BLOCK_25
 70
     0
 10
0.0
 20
0.0
 30
0.0
  3
BLOCK_25
  1

  0
POLYLINE
  5
135
330
131
100
AcDbEntity
  8
MODELSKETCH_VISIBLE
100
AcDb2dPolyline
 66
     1
 10
0.0
 20
0.0
 30
0.0
  0
VERTEX
  5
136
330
135
100
AcDbEntity
  8
MODELSKETCH_VISIBLE
100
AcDbVertex
100
AcDb2dVertex
 10
127.1808678004414
 20
139.8656209944136
 30
0.0
  0
VERTEX
  5
137
330
135
100
AcDbEntity
  8
MODELSKETCH_VISIBLE
100
AcDbVertex
100
AcDb2dVertex
 10
125.3299678166817
 20
137.4545034041698
 30
0.0
  0
VERTEX
  5
138
330
135
100
AcDbEntity
  8
MODELSKETCH_VISIBLE
100
AcDbVertex
100
AcDb2dVertex
 10
124.9345220663572
 20
137.7584109415598
 30
0.0
  0
VERTEX
  5
139
330
135
100
AcDbEntity
  8
MODELSKETCH_VISIBLE
100
AcDbVertex
100
AcDb2dVertex
 10
124.5372437639183
 20
138.0623170821869
 30
0.0
  0
VERTEX
  5
13A
330
135
100
AcDbEntity
  8
MODELSKETCH_VISIBLE
100
AcDbVertex
100
AcDb2dVertex
 10
126.3881493347269
 20
140.4734346724307
 30
0.0
  0
SEQEND
  5
13B
330
135
100
AcDbEntity
  8
MODELSKETCH_VISIBLE
  0
ENDBLK
  5
134
330
131
100
AcDbEntity
  8
0
100
AcDbBlockEnd
  0
BLOCK
  5
13E
330
13C
100
AcDbEntity
  8
0
100
AcDbBlockBegin
  2
BLOCK_26
 70
     0
 10
0.0
 20
0.0
 30
0.0
  3
BLOCK_26
  1

  0
POLYLINE
  5
140
330
13C
100
AcDbEntity
  8
MODELSKETCH_VISIBLE
100
AcDb2dPolyline
 66
     1
 10
0.0
 20
0.0
 30
0.0
  0
VERTEX
  5
141
330
140
100
AcDbEntity
  8
MODELSKETCH_VISIBLE
100
AcDbVertex
100
AcDb2dVertex
 10
89.32432468257926
 20
150.0080545685684
 30
0.0
  0
VERTEX
  5
142
330
140
100
AcDbEntity
  8
MODELSKETCH_VISIBLE
100
AcDbVertex
100
AcDb2dVertex
 10
89.7216001914937
 20
146.9946160679829
 30
0.0
  0
VERTEX
  5
143
330
140
100
AcDbEntity
  8
MODELSKETCH_VISIBLE
100
AcDbVertex
100
AcDb2dVertex
 10
90.21773853475152
 20
147.060523693037
 30
0.0
  0
VERTEX
  5
144
330
140
100
AcDbEntity
  8
MODELSKETCH_VISIBLE
100
AcDbVertex
100
AcDb2dVertex
 10
90.71204432589488
 20
147.1264313180911
 30
0.0
  0
VERTEX
  5
145
330
140
100
AcDbEntity
  8
MODELSKETCH_VISIBLE
100
AcDbVertex
100
AcDb2dVertex
 10
90.31659857557041
 20
150.1380386633244
 30
0.0
  0
SEQEND
  5
146
330
140
100
AcDbEntity
  8
MODELSKETCH_VISIBLE
  0
ENDBLK
  5
13F
330
13C
100
AcDbEntity
  8
0
100
AcDbBlockEnd
  0
BLOCK
  5
149
330
147
100
AcDbEntity
  8
0
100
AcDbBlockBegin
  2
BLOCK_27
 70
     0
 10
0.0
 20
0.0
 30
0.0
  3
BLOCK_27
  1

  0
POLYLINE
  5
14B
330
147
100
AcDbEntity
  8
MODELSKETCH_VISIBLE
100
AcDb2dPolyline
 66
     1
 10
0.0
 20
0.0
 30
0.0
  0
VERTEX
  5
14C
330
14B
100
AcDbEntity
  8
MODELSKETCH_VISIBLE
100
AcDbVertex
100
AcDb2dVertex
 10
136.318212886046
 20
130.5433683275875
 30
0.0
  0
VERTEX
  5
14D
330
14B
100
AcDbEntity
  8
MODELSKETCH_VISIBLE
100
AcDbVertex
100
AcDb2dVertex
 10
133.9052669339747
 20
128.6924655503034
 30
0.0
  0
VERTEX
  5
14E
330
14B
100
AcDbEntity
  8
MODELSKETCH_VISIBLE
100
AcDbVertex
100
AcDb2dVertex
 10
133.6013593965851
 20
129.0897410592178
 30
0.0
  0
VERTEX
  5
14F
330
14B
100
AcDbEntity
  8
MODELSKETCH_VISIBLE
100
AcDbVertex
100
AcDb2dVertex
 10
133.2974518591954
 20
129.4870165681322
 30
0.0
  0
VERTEX
  5
150
330
14B
100
AcDbEntity
  8
MODELSKETCH_VISIBLE
100
AcDbVertex
100
AcDb2dVertex
 10
135.7085652591522
 20
131.3360895868264
 30
0.0
  0
SEQEND
  5
151
330
14B
100
AcDbEntity
  8
MODELSKETCH_VISIBLE
  0
ENDBLK
  5
14A
330
147
100
AcDbEntity
  8
0
100
AcDbBlockEnd
  0
BLOCK
  5
154
330
152
100
AcDbEntity
  8
0
100
AcDbBlockBegin
  2
BLOCK_28
 70
     0
 10
0.0
 20
0.0
 30
0.0
  3
BLOCK_28
  1

  0
POLYLINE
  5
156
330
152
100
AcDbEntity
  8
MODELSKETCH_VISIBLE
100
AcDb2dPolyline
 66
     1
 10
0.0
 20
0.0
 30
0.0
  0
VERTEX
  5
157
330
156
100
AcDbEntity
  8
MODELSKETCH_VISIBLE
100
AcDbVertex
100
AcDb2dVertex
 10
46.83960930572422
 20
107.5233403265825
 30
0.0
  0
VERTEX
  5
158
330
156
100
AcDbEntity
  8
MODELSKETCH_VISIBLE
100
AcDbVertex
100
AcDb2dVertex
 10
49.85304719522618
 20
107.1278945762581
 30
0.0
  0
VERTEX
  5
159
330
156
100
AcDbEntity
  8
MODELSKETCH_VISIBLE
100
AcDbVertex
100
AcDb2dVertex
 10
49.78897037633384
 20
106.6317590265247
 30
0.0
  0
VERTEX
  5
15A
330
156
100
AcDbEntity
  8
MODELSKETCH_VISIBLE
100
AcDbVertex
100
AcDb2dVertex
 10
49.72306310047023
 20
106.1374504418569
 30
0.0
  0
VERTEX
  5
15B
330
156
100
AcDbEntity
  8
MODELSKETCH_VISIBLE
100
AcDbVertex
100
AcDb2dVertex
 10
46.70962503637288
 20
106.5328961921814
 30
0.0
  0
SEQEND
  5
15C
330
156
100
AcDbEntity
  8
MODELSKETCH_VISIBLE
  0
ENDBLK
  5
155
330
152
100
AcDbEntity
  8
0
100
AcDbBlockEnd
  0
BLOCK
  5
15F
330
15D
100
AcDbEntity
  8
0
100
AcDbBlockBegin
  2
BLOCK_29
 70
     0
 10
0.0
 20
0.0
 30
0.0
  3
BLOCK_29
  1

  0
POLYLINE
  5
161
330
15D
100
AcDbEntity
  8
MODELSKETCH_VISIBLE
100
AcDb2dPolyline
 66
     1
 10
0.0
 20
0.0
 30
0.0
  0
VERTEX
  5
162
330
161
100
AcDbEntity
  8
MODELSKETCH_VISIBLE
100
AcDbVertex
100
AcDb2dVertex
 10
53.29488421109149
 20
75.06937873694292
 30
0.0
  0
VERTEX
  5
163
330
161
100
AcDbEntity
  8
MODELSKETCH_VISIBLE
100
AcDbVertex
100
AcDb2dVertex
 10
55.92752341064513
 20
76.59074338895668
 30
0.0
  0
VERTEX
  5
164
330
161
100
AcDbEntity
  8
MODELSKETCH_VISIBLE
100
AcDbVertex
100
AcDb2dVertex
 10
55.6785393597214
 20
77.02280665927454
 30
0.0
  0
VERTEX
  5
165
330
161
100
AcDbEntity
  8
MODELSKETCH_VISIBLE
100
AcDbVertex
100
AcDb2dVertex
 10
55.42772415344545
 20
77.45486434254346
 30
0.0
  0
VERTEX
  5
166
330
161
100
AcDbEntity
  8
MODELSKETCH_VISIBLE
100
AcDbVertex
100
AcDb2dVertex
 10
52.79691610924402
 20
75.93533224264478
 30
0.0
  0
SEQEND
  5
167
330
161
100
AcDbEntity
  8
MODELSKETCH_VISIBLE
  0
ENDBLK
  5
160
330
15D
100
AcDbEntity
  8
0
100
AcDbBlockEnd
  0
BLOCK
  5
16A
330
168
100
AcDbEntity
  8
0
100
AcDbBlockBegin
  2
BLOCK_30
 70
     0
 10
0.0
 20
0.0
 30
0.0
  3
BLOCK_30
  1

  0
POLYLINE
  5
16C
330
168
100
AcDbEntity
  8
MODELSKETCH_VISIBLE
100
AcDb2dPolyline
 66
     1
 10
0.0
 20
0.0
 30
0.0
  0
VERTEX
  5
16D
330
16C
100
AcDbEntity
  8
MODELSKETCH_VISIBLE
100
AcDbVertex
100
AcDb2dVertex
 10
56.98387377333815
 20
69.6686241737856
 30
0.0
  0
VERTEX
  5
16E
330
16C
100
AcDbEntity
  8
MODELSKETCH_VISIBLE
100
AcDbVertex
100
AcDb2dVertex
 10
59.39498996681942
 20
71.51952974459422
 30
0.0
  0
VERTEX
  5
16F
330
16C
100
AcDbEntity
  8
MODELSKETCH_VISIBLE
100
AcDbVertex
100
AcDb2dVertex
 10
59.09108382619232
 20
71.9149754949187
 30
0.0
  0
VERTEX
  5
170
330
16C
100
AcDbEntity
  8
MODELSKETCH_VISIBLE
100
AcDbVertex
100
AcDb2dVertex
 10
58.78717628880268
 20
72.31224821030868
 30
0.0
  0
VERTEX
  5
171
330
16C
100
AcDbEntity
  8
MODELSKETCH_VISIBLE
100
AcDbVertex
100
AcDb2dVertex
 10
56.37606009532108
 20
70.461348226549
 30
0.0
  0
SEQEND
  5
172
330
16C
100
AcDbEntity
  8
MODELSKETCH_VISIBLE
  0
ENDBLK
  5
16B
330
168
100
AcDbEntity
  8
0
100
AcDbBlockEnd
  0
BLOCK
  5
175
330
173
100
AcDbEntity
  8
0
100
AcDbBlockBegin
  2
BLOCK_31
 70
     0
 10
0.0
 20
0.0
 30
0.0
  3
BLOCK_31
  1

  0
POLYLINE
  5
177
330
173
100
AcDbEntity
  8
MODELSKETCH_VISIBLE
100
AcDb2dPolyline
 66
     1
 10
0.0
 20
0.0
 30
0.0
  0
VERTEX
  5
178
330
177
100
AcDbEntity
  8
MODELSKETCH_VISIBLE
100
AcDbVertex
100
AcDb2dVertex
 10
61.3447541816847
 20
64.79513061106155
 30
0.0
  0
VERTEX
  5
179
330
177
100
AcDbEntity
  8
MODELSKETCH_VISIBLE
100
AcDbVertex
100
AcDb2dVertex
 10
63.4940724270641
 20
66.94445164996543
 30
0.0
  0
VERTEX
  5
17A
330
177
100
AcDbEntity
  8
MODELSKETCH_VISIBLE
100
AcDbVertex
100
AcDb2dVertex
 10
63.14073486926517
 20
67.29778781100212
 30
0.0
  0
VERTEX
  5
17B
330
177
100
AcDbEntity
  8
MODELSKETCH_VISIBLE
100
AcDbVertex
100
AcDb2dVertex
 10
62.78739731146624
 20
67.65112397203882
 30
0.0
  0
VERTEX
  5
17C
330
177
100
AcDbEntity
  8
MODELSKETCH_VISIBLE
100
AcDbVertex
100
AcDb2dVertex
 10
60.63807906608651
 20
65.50180293313495
 30
0.0
  0
SEQEND
  5
17D
330
177
100
AcDbEntity
  8
MODELSKETCH_VISIBLE
  0
ENDBLK
  5
176
330
173
100
AcDbEntity
  8
0
100
AcDbBlockEnd
  0
BLOCK
  5
180
330
17E
100
AcDbEntity
  8
0
100
AcDbBlockBegin
  2
BLOCK_32
 70
     0
 10
0.0
 20
0.0
 30
0.0
  3
BLOCK_32
  1

  0
POLYLINE
  5
182
330
17E
100
AcDbEntity
  8
MODELSKETCH_VISIBLE
100
AcDb2dPolyline
 66
     1
 10
0.0
 20
0.0
 30
0.0
  0
VERTEX
  5
183
330
182
100
AcDbEntity
  8
MODELSKETCH_VISIBLE
100
AcDbVertex
100
AcDb2dVertex
 10
66.30612504340202
 20
60.53128467523062
 30
0.0
  0
VERTEX
  5
184
330
182
100
AcDbEntity
  8
MODELSKETCH_VISIBLE
100
AcDbVertex
100
AcDb2dVertex
 10
68.1551980620962
 20
62.94239807518742
 30
0.0
  0
VERTEX
  5
185
330
182
100
AcDbEntity
  8
MODELSKETCH_VISIBLE
100
AcDbVertex
100
AcDb2dVertex
 10
67.75975231177172
 20
63.24630002552813
 30
0.0
  0
VERTEX
  5
186
330
182
100
AcDbEntity
  8
MODELSKETCH_VISIBLE
100
AcDbVertex
100
AcDb2dVertex
 10
67.36247680285727
 20
63.55021314996672
 30
0.0
  0
VERTEX
  5
187
330
182
100
AcDbEntity
  8
MODELSKETCH_VISIBLE
100
AcDbVertex
100
AcDb2dVertex
 10
65.51340518092533
 20
61.13909975000992
 30
0.0
  0
SEQEND
  5
188
330
182
100
AcDbEntity
  8
MODELSKETCH_VISIBLE
  0
ENDBLK
  5
181
330
17E
100
AcDbEntity
  8
0
100
AcDbBlockEnd
  0
BLOCK
  5
18B
330
189
100
AcDbEntity
  8
0
100
AcDbBlockBegin
  2
BLOCK_33
 70
     0
 10
0.0
 20
0.0
 30
0.0
  3
BLOCK_33
  1

  0
POLYLINE
  5
18D
330
189
100
AcDbEntity
  8
MODELSKETCH_VISIBLE
100
AcDb2dPolyline
 66
     1
 10
0.0
 20
0.0
 30
0.0
  0
VERTEX
  5
18E
330
18D
100
AcDbEntity
  8
MODELSKETCH_VISIBLE
100
AcDbVertex
100
AcDb2dVertex
 10
71.78011045625972
 20
56.95214278429675
 30
0.0
  0
VERTEX
  5
18F
330
18D
100
AcDbEntity
  8
MODELSKETCH_VISIBLE
100
AcDbVertex
100
AcDb2dVertex
 10
73.2996453496835
 20
59.58477150813315
 30
0.0
  0
VERTEX
  5
190
330
18D
100
AcDbEntity
  8
MODELSKETCH_VISIBLE
100
AcDbVertex
100
AcDb2dVertex
 10
72.8675848728898
 20
59.83376393963093
 30
0.0
  0
VERTEX
  5
191
330
18D
100
AcDbEntity
  8
MODELSKETCH_VISIBLE
100
AcDbVertex
100
AcDb2dVertex
 10
72.43369463750643
 20
60.08457774914464
 30
0.0
  0
VERTEX
  5
192
330
18D
100
AcDbEntity
  8
MODELSKETCH_VISIBLE
100
AcDbVertex
100
AcDb2dVertex
 10
70.91415974408265
 20
57.45193785120972
 30
0.0
  0
SEQEND
  5
193
330
18D
100
AcDbEntity
  8
MODELSKETCH_VISIBLE
  0
ENDBLK
  5
18C
330
189
100
AcDbEntity
  8
0
100
AcDbBlockEnd
  0
BLOCK
  5
196
330
194
100
AcDbEntity
  8
0
100
AcDbBlockBegin
  2
BLOCK_34
 70
     0
 10
0.0
 20
0.0
 30
0.0
  3
BLOCK_34
  1

  0
POLYLINE
  5
198
330
194
100
AcDbEntity
  8
MODELSKETCH_VISIBLE
100
AcDb2dPolyline
 66
     1
 10
0.0
 20
0.0
 30
0.0
  0
VERTEX
  5
199
330
198
100
AcDbEntity
  8
MODELSKETCH_VISIBLE
100
AcDbVertex
100
AcDb2dVertex
 10
77.67334105197043
 20
54.11811211344622
 30
0.0
  0
VERTEX
  5
19A
330
198
100
AcDbEntity
  8
MODELSKETCH_VISIBLE
100
AcDbVertex
100
AcDb2dVertex
 10
78.83770723224275
 20
56.92650940289153
 30
0.0
  0
VERTEX
  5
19B
330
198
100
AcDbEntity
  8
MODELSKETCH_VISIBLE
100
AcDbVertex
100
AcDb2dVertex
 10
78.37635385686418
 20
57.11690486312045
 30
0.0
  0
VERTEX
  5
19C
330
198
100
AcDbEntity
  8
MODELSKETCH_VISIBLE
100
AcDbVertex
100
AcDb2dVertex
 10
77.91500048148563
 20
57.30913287546446
 30
0.0
  0
VERTEX
  5
19D
330
198
100
AcDbEntity
  8
MODELSKETCH_VISIBLE
100
AcDbVertex
100
AcDb2dVertex
 10
76.75063709473778
 20
54.50074676011766
 30
0.0
  0
SEQEND
  5
19E
330
198
100
AcDbEntity
  8
MODELSKETCH_VISIBLE
  0
ENDBLK
  5
197
330
194
100
AcDbEntity
  8
0
100
AcDbBlockEnd
  0
BLOCK
  5
1A1
330
19F
100
AcDbEntity
  8
0
100
AcDbBlockBegin
  2
BLOCK_35
 70
     0
 10
0.0
 20
0.0
 30
0.0
  3
BLOCK_35
  1

  0
POLYLINE
  5
1A3
330
19F
100
AcDbEntity
  8
MODELSKETCH_VISIBLE
100
AcDb2dPolyline
 66
     1
 10
0.0
 20
0.0
 30
0.0
  0
VERTEX
  5
1A4
330
1A3
100
AcDbEntity
  8
MODELSKETCH_VISIBLE
100
AcDbVertex
100
AcDb2dVertex
 10
83.888785151543
 20
52.07863804747418
 30
0.0
  0
VERTEX
  5
1A5
330
1A3
100
AcDbEntity
  8
MODELSKETCH_VISIBLE
100
AcDbVertex
100
AcDb2dVertex
 10
84.67418458289788
 20
55.01335851773324
 30
0.0
  0
VERTEX
  5
1A6
330
1A3
100
AcDbEntity
  8
MODELSKETCH_VISIBLE
100
AcDbVertex
100
AcDb2dVertex
 10
84.19269268893265
 20
55.1433468027759
 30
0.0
  0
VERTEX
  5
1A7
330
1A3
100
AcDbEntity
  8
MODELSKETCH_VISIBLE
100
AcDbVertex
100
AcDb2dVertex
 10
83.70937103637745
 20
55.27149136160622
 30
0.0
  0
VERTEX
  5
1A8
330
1A3
100
AcDbEntity
  8
MODELSKETCH_VISIBLE
100
AcDbVertex
100
AcDb2dVertex
 10
82.92397160502259
 20
52.33678206544568
 30
0.0
  0
SEQEND
  5
1A9
330
1A3
100
AcDbEntity
  8
MODELSKETCH_VISIBLE
  0
ENDBLK
  5
1A2
330
19F
100
AcDbEntity
  8
0
100
AcDbBlockEnd
  0
BLOCK
  5
1AC
330
1AA
100
AcDbEntity
  8
0
100
AcDbBlockBegin
  2
BLOCK_36
 70
     0
 10
0.0
 20
0.0
 30
0.0
  3
BLOCK_36
  1

  0
POLYLINE
  5
1AE
330
1AA
100
AcDbEntity
  8
MODELSKETCH_VISIBLE
100
AcDb2dPolyline
 66
     1
 10
0.0
 20
0.0
 30
0.0
  0
VERTEX
  5
1AF
330
1AE
100
AcDbEntity
  8
MODELSKETCH_VISIBLE
100
AcDbVertex
100
AcDb2dVertex
 10
90.31659857557041
 20
50.86667300214447
 30
0.0
  0
VERTEX
  5
1B0
330
1AE
100
AcDbEntity
  8
MODELSKETCH_VISIBLE
100
AcDbVertex
100
AcDb2dVertex
 10
90.71204432589488
 20
53.88011499463575
 30
0.0
  0
VERTEX
  5
1B1
330
1AE
100
AcDbEntity
  8
MODELSKETCH_VISIBLE
100
AcDbVertex
100
AcDb2dVertex
 10
90.21773853475152
 20
53.94418727405028
 30
0.0
  0
VERTEX
  5
1B2
330
1AE
100
AcDbEntity
  8
MODELSKETCH_VISIBLE
100
AcDbVertex
100
AcDb2dVertex
 10
89.7216001914937
 20
54.01010327967841
 30
0.0
  0
VERTEX
  5
1B3
330
1AE
100
AcDbEntity
  8
MODELSKETCH_VISIBLE
100
AcDbVertex
100
AcDb2dVertex
 10
89.32432468257926
 20
50.99666128718712
 30
0.0
  0
SEQEND
  5
1B4
330
1AE
100
AcDbEntity
  8
MODELSKETCH_VISIBLE
  0
ENDBLK
  5
1AD
330
1AA
100
AcDbEntity
  8
0
100
AcDbBlockEnd
  0
BLOCK
  5
1B7
330
1B5
100
AcDbEntity
  8
0
100
AcDbBlockBegin
  2
BLOCK_37
 70
     0
 10
0.0
 20
0.0
 30
0.0
  3
BLOCK_37
  1

  0
POLYLINE
  5
1B9
330
1B5
100
AcDbEntity
  8
MODELSKETCH_VISIBLE
100
AcDb2dPolyline
 66
     1
 10
0.0
 20
0.0
 30
0.0
  0
VERTEX
  5
1BA
330
1B9
100
AcDbEntity
  8
MODELSKETCH_VISIBLE
100
AcDbVertex
100
AcDb2dVertex
 10
96.8469343511208
 20
50.50418525463342
 30
0.0
  0
VERTEX
  5
1BB
330
1B9
100
AcDbEntity
  8
MODELSKETCH_VISIBLE
100
AcDbVertex
100
AcDb2dVertex
 10
96.8469343511208
 20
53.54324945443204
 30
0.0
  0
VERTEX
  5
1BC
330
1B9
100
AcDbEntity
  8
MODELSKETCH_VISIBLE
100
AcDbVertex
100
AcDb2dVertex
 10
96.34713369715888
 20
53.54324945443204
 30
0.0
  0
VERTEX
  5
1BD
330
1B9
100
AcDbEntity
  8
MODELSKETCH_VISIBLE
100
AcDbVertex
100
AcDb2dVertex
 10
95.84733863024591
 20
53.54324945443204
 30
0.0
  0
VERTEX
  5
1BE
330
1B9
100
AcDbEntity
  8
MODELSKETCH_VISIBLE
100
AcDbVertex
100
AcDb2dVertex
 10
95.84733863024591
 20
50.50418525463342
 30
0.0
  0
SEQEND
  5
1BF
330
1B9
100
AcDbEntity
  8
MODELSKETCH_VISIBLE
  0
ENDBLK
  5
1B8
330
1B5
100
AcDbEntity
  8
0
100
AcDbBlockEnd
  0
BLOCK
  5
1C2
330
1C0
100
AcDbEntity
  8
0
100
AcDbBlockBegin
  2
BLOCK_38
 70
     0
 10
0.0
 20
0.0
 30
0.0
  3
BLOCK_38
  1

  0
POLYLINE
  5
1C4
330
1C0
100
AcDbEntity
  8
MODELSKETCH_VISIBLE
100
AcDb2dPolyline
 66
     1
 10
0.0
 20
0.0
 30
0.0
  0
VERTEX
  5
1C5
330
1C4
100
AcDbEntity
  8
MODELSKETCH_VISIBLE
100
AcDbVertex
100
AcDb2dVertex
 10
103.368115746673
 20
50.99666128718712
 30
0.0
  0
VERTEX
  5
1C6
330
1C4
100
AcDbEntity
  8
MODELSKETCH_VISIBLE
100
AcDbVertex
100
AcDb2dVertex
 10
102.970843031283
 20
54.01010327967841
 30
0.0
  0
VERTEX
  5
1C7
330
1C4
100
AcDbEntity
  8
MODELSKETCH_VISIBLE
100
AcDbVertex
100
AcDb2dVertex
 10
102.4765344466155
 20
53.94418727405028
 30
0.0
  0
VERTEX
  5
1C8
330
1C4
100
AcDbEntity
  8
MODELSKETCH_VISIBLE
100
AcDbVertex
100
AcDb2dVertex
 10
101.9803988968819
 20
53.88011499463575
 30
0.0
  0
VERTEX
  5
1C9
330
1C4
100
AcDbEntity
  8
MODELSKETCH_VISIBLE
100
AcDbVertex
100
AcDb2dVertex
 10
102.3776716122718
 20
50.86667300214447
 30
0.0
  0
SEQEND
  5
1CA
330
1C4
100
AcDbEntity
  8
MODELSKETCH_VISIBLE
  0
ENDBLK
  5
1C3
330
1C0
100
AcDbEntity
  8
0
100
AcDbBlockEnd
  0
BLOCK
  5
1CD
330
1CB
100
AcDbEntity
  8
0
100
AcDbBlockBegin
  2
BLOCK_39
 70
     0
 10
0.0
 20
0.0
 30
0.0
  3
BLOCK_39
  1

  0
POLYLINE
  5
1CF
330
1CB
100
AcDbEntity
  8
MODELSKETCH_VISIBLE
100
AcDb2dPolyline
 66
     1
 10
0.0
 20
0.0
 30
0.0
  0
VERTEX
  5
1D0
330
1CF
100
AcDbEntity
  8
MODELSKETCH_VISIBLE
100
AcDbVertex
100
AcDb2dVertex
 10
109.7702985828196
 20
52.33678206544568
 30
0.0
  0
VERTEX
  5
1D1
330
1CF
100
AcDbEntity
  8
MODELSKETCH_VISIBLE
100
AcDbVertex
100
AcDb2dVertex
 10
108.9830721863996
 20
55.27149136160622
 30
0.0
  0
VERTEX
  5
1D2
330
1CF
100
AcDbEntity
  8
MODELSKETCH_VISIBLE
100
AcDbVertex
100
AcDb2dVertex
 10
108.4997477403196
 20
55.1433468027759
 30
0.0
  0
VERTEX
  5
1D3
330
1CF
100
AcDbEntity
  8
MODELSKETCH_VISIBLE
100
AcDbVertex
100
AcDb2dVertex
 10
108.0182558463547
 20
55.01335851773324
 30
0.0
  0
VERTEX
  5
1D4
330
1CF
100
AcDbEntity
  8
MODELSKETCH_VISIBLE
100
AcDbVertex
100
AcDb2dVertex
 10
108.8054878298237
 20
52.07863804747418
 30
0.0
  0
SEQEND
  5
1D5
330
1CF
100
AcDbEntity
  8
MODELSKETCH_VISIBLE
  0
ENDBLK
  5
1CE
330
1CB
100
AcDbEntity
  8
0
100
AcDbBlockEnd
  0
BLOCK
  5
1D8
330
1D6
100
AcDbEntity
  8
0
100
AcDbBlockBegin
  2
BLOCK_40
 70
     0
 10
0.0
 20
0.0
 30
0.0
  3
BLOCK_40
  1

  0
POLYLINE
  5
1DA
330
1D6
100
AcDbEntity
  8
MODELSKETCH_VISIBLE
100
AcDb2dPolyline
 66
     1
 10
0.0
 20
0.0
 30
0.0
  0
VERTEX
  5
1DB
330
1DA
100
AcDbEntity
  8
MODELSKETCH_VISIBLE
100
AcDbVertex
100
AcDb2dVertex
 10
115.9418089215641
 20
54.50074676011766
 30
0.0
  0
VERTEX
  5
1DC
330
1DA
100
AcDbEntity
  8
MODELSKETCH_VISIBLE
100
AcDbVertex
100
AcDb2dVertex
 10
114.7792724998814
 20
57.30913287546446
 30
0.0
  0
VERTEX
  5
1DD
330
1DA
100
AcDbEntity
  8
MODELSKETCH_VISIBLE
100
AcDbVertex
100
AcDb2dVertex
 10
114.3179163309784
 20
57.11690486312045
 30
0.0
  0
VERTEX
  5
1DE
330
1DA
100
AcDbEntity
  8
MODELSKETCH_VISIBLE
100
AcDbVertex
100
AcDb2dVertex
 10
113.8547331970098
 20
56.92650940289153
 30
0.0
  0
VERTEX
  5
1DF
330
1DA
100
AcDbEntity
  8
MODELSKETCH_VISIBLE
100
AcDbVertex
100
AcDb2dVertex
 10
115.0191021708069
 20
54.11811211344622
 30
0.0
  0
SEQEND
  5
1E0
330
1DA
100
AcDbEntity
  8
MODELSKETCH_VISIBLE
  0
ENDBLK
  5
1D9
330
1D6
100
AcDbEntity
  8
0
100
AcDbBlockEnd
  0
BLOCK
  5
1E3
330
1E1
100
AcDbEntity
  8
0
100
AcDbBlockBegin
  2
BLOCK_41
 70
     0
 10
0.0
 20
0.0
 30
0.0
  3
BLOCK_41
  1

  0
POLYLINE
  5
1E5
330
1E1
100
AcDbEntity
  8
MODELSKETCH_VISIBLE
100
AcDb2dPolyline
 66
     1
 10
0.0
 20
0.0
 30
0.0
  0
VERTEX
  5
1E6
330
1E5
100
AcDbEntity
  8
MODELSKETCH_VISIBLE
100
AcDbVertex
100
AcDb2dVertex
 10
121.7782806851696
 20
57.45193785120972
 30
0.0
  0
VERTEX
  5
1E7
330
1E5
100
AcDbEntity
  8
MODELSKETCH_VISIBLE
100
AcDbVertex
100
AcDb2dVertex
 10
120.2587485852709
 20
60.08457774914464
 30
0.0
  0
VERTEX
  5
1E8
330
1E5
100
AcDbEntity
  8
MODELSKETCH_VISIBLE
100
AcDbVertex
100
AcDb2dVertex
 10
119.8266853149524
 20
59.83376393963093
 30
0.0
  0
VERTEX
  5
1E9
330
1E5
100
AcDbEntity
  8
MODELSKETCH_VISIBLE
100
AcDbVertex
100
AcDb2dVertex
 10
119.3927950795691
 20
59.58477150813315
 30
0.0
  0
VERTEX
  5
1EA
330
1E5
100
AcDbEntity
  8
MODELSKETCH_VISIBLE
100
AcDbVertex
100
AcDb2dVertex
 10
120.9141597315828
 20
56.95214278429675
 30
0.0
  0
SEQEND
  5
1EB
330
1E5
100
AcDbEntity
  8
MODELSKETCH_VISIBLE
  0
ENDBLK
  5
1E4
330
1E1
100
AcDbEntity
  8
0
100
AcDbBlockEnd
  0
BLOCK
  5
1EE
330
1EC
100
AcDbEntity
  8
0
100
AcDbBlockBegin
  2
BLOCK_42
 70
     0
 10
0.0
 20
0.0
 30
0.0
  3
BLOCK_42
  1

  0
POLYLINE
  5
1F0
330
1EC
100
AcDbEntity
  8
MODELSKETCH_VISIBLE
100
AcDb2dPolyline
 66
     1
 10
0.0
 20
0.0
 30
0.0
  0
VERTEX
  5
1F1
330
1F0
100
AcDbEntity
  8
MODELSKETCH_VISIBLE
100
AcDbVertex
100
AcDb2dVertex
 10
127.1808678004414
 20
61.13909975000992
 30
0.0
  0
VERTEX
  5
1F2
330
1F0
100
AcDbEntity
  8
MODELSKETCH_VISIBLE
100
AcDbVertex
100
AcDb2dVertex
 10
125.3299678166817
 20
63.55021314996672
 30
0.0
  0
VERTEX
  5
1F3
330
1F0
100
AcDbEntity
  8
MODELSKETCH_VISIBLE
100
AcDbVertex
100
AcDb2dVertex
 10
124.9345220663572
 20
63.24630002552813
 30
0.0
  0
VERTEX
  5
1F4
330
1F0
100
AcDbEntity
  8
MODELSKETCH_VISIBLE
100
AcDbVertex
100
AcDb2dVertex
 10
124.5372437639183
 20
62.94239807518742
 30
0.0
  0
VERTEX
  5
1F5
330
1F0
100
AcDbEntity
  8
MODELSKETCH_VISIBLE
100
AcDbVertex
100
AcDb2dVertex
 10
126.3881493347269
 20
60.53128467523062
 30
0.0
  0
SEQEND
  5
1F6
330
1F0
100
AcDbEntity
  8
MODELSKETCH_VISIBLE
  0
ENDBLK
  5
1EF
330
1EC
100
AcDbEntity
  8
0
100
AcDbBlockEnd
  0
BLOCK
  5
1F9
330
1F7
100
AcDbEntity
  8
0
100
AcDbBlockBegin
  2
BLOCK_43
 70
     0
 10
0.0
 20
0.0
 30
0.0
  3
BLOCK_43
  1

  0
POLYLINE
  5
1FB
330
1F7
100
AcDbEntity
  8
MODELSKETCH_VISIBLE
100
AcDb2dPolyline
 66
     1
 10
0.0
 20
0.0
 30
0.0
  0
VERTEX
  5
1FC
330
1FB
100
AcDbEntity
  8
MODELSKETCH_VISIBLE
100
AcDbVertex
100
AcDb2dVertex
 10
132.0543613631661
 20
65.50180293313495
 30
0.0
  0
VERTEX
  5
1FD
330
1FB
100
AcDbEntity
  8
MODELSKETCH_VISIBLE
100
AcDbVertex
100
AcDb2dVertex
 10
129.9050459113111
 20
67.65112397203882
 30
0.0
  0
VERTEX
  5
1FE
330
1FB
100
AcDbEntity
  8
MODELSKETCH_VISIBLE
100
AcDbVertex
100
AcDb2dVertex
 10
129.5517097502744
 20
67.29778781100212
 30
0.0
  0
VERTEX
  5
1FF
330
1FB
100
AcDbEntity
  8
MODELSKETCH_VISIBLE
100
AcDbVertex
100
AcDb2dVertex
 10
129.1983680021881
 20
66.94445164996543
 30
0.0
  0
VERTEX
  5
200
330
1FB
100
AcDbEntity
  8
MODELSKETCH_VISIBLE
100
AcDbVertex
100
AcDb2dVertex
 10
131.347689041092
 20
64.79513061106155
 30
0.0
  0
SEQEND
  5
201
330
1FB
100
AcDbEntity
  8
MODELSKETCH_VISIBLE
  0
ENDBLK
  5
1FA
330
1F7
100
AcDbEntity
  8
0
100
AcDbBlockEnd
  0
BLOCK
  5
204
330
202
100
AcDbEntity
  8
0
100
AcDbBlockBegin
  2
BLOCK_44
 70
     0
 10
0.0
 20
0.0
 30
0.0
  3
BLOCK_44
  1

  0
POLYLINE
  5
206
330
202
100
AcDbEntity
  8
MODELSKETCH_VISIBLE
100
AcDb2dPolyline
 66
     1
 10
0.0
 20
0.0
 30
0.0
  0
VERTEX
  5
207
330
206
100
AcDbEntity
  8
MODELSKETCH_VISIBLE
100
AcDbVertex
100
AcDb2dVertex
 10
136.318212886046
 20
70.461348226549
 30
0.0
  0
VERTEX
  5
208
330
206
100
AcDbEntity
  8
MODELSKETCH_VISIBLE
100
AcDbVertex
100
AcDb2dVertex
 10
133.9052669339747
 20
72.31224821030868
 30
0.0
  0
VERTEX
  5
209
330
206
100
AcDbEntity
  8
MODELSKETCH_VISIBLE
100
AcDbVertex
100
AcDb2dVertex
 10
133.6013593965851
 20
71.9149754949187
 30
0.0
  0
VERTEX
  5
20A
330
206
100
AcDbEntity
  8
MODELSKETCH_VISIBLE
100
AcDbVertex
100
AcDb2dVertex
 10
133.2974518591954
 20
71.51952974459422
 30
0.0
  0
VERTEX
  5
20B
330
206
100
AcDbEntity
  8
MODELSKETCH_VISIBLE
100
AcDbVertex
100
AcDb2dVertex
 10
135.7085652591522
 20
69.6686241737856
 30
0.0
  0
SEQEND
  5
20C
330
206
100
AcDbEntity
  8
MODELSKETCH_VISIBLE
  0
ENDBLK
  5
205
330
202
100
AcDbEntity
  8
0
100
AcDbBlockEnd
  0
BLOCK
  5
20F
330
20D
100
AcDbEntity
  8
0
100
AcDbBlockBegin
  2
BLOCK_45
 70
     0
 10
0.0
 20
0.0
 30
0.0
  3
BLOCK_45
  1

  0
POLYLINE
  5
211
330
20D
100
AcDbEntity
  8
MODELSKETCH_VISIBLE
100
AcDb2dPolyline
 66
     1
 10
0.0
 20
0.0
 30
0.0
  0
VERTEX
  5
212
330
211
100
AcDbEntity
  8
MODELSKETCH_VISIBLE
100
AcDbVertex
100
AcDb2dVertex
 10
139.8973547769798
 20
75.93533224264478
 30
0.0
  0
VERTEX
  5
213
330
211
100
AcDbEntity
  8
MODELSKETCH_VISIBLE
100
AcDbVertex
100
AcDb2dVertex
 10
137.2647148790449
 20
77.45486434254346
 30
0.0
  0
VERTEX
  5
214
330
211
100
AcDbEntity
  8
MODELSKETCH_VISIBLE
100
AcDbVertex
100
AcDb2dVertex
 10
137.0139010695312
 20
77.02280665927454
 30
0.0
  0
VERTEX
  5
215
330
211
100
AcDbEntity
  8
MODELSKETCH_VISIBLE
100
AcDbVertex
100
AcDb2dVertex
 10
136.7649198121319
 20
76.59074338895668
 30
0.0
  0
VERTEX
  5
216
330
211
100
AcDbEntity
  8
MODELSKETCH_VISIBLE
100
AcDbVertex
100
AcDb2dVertex
 10
139.3975597100668
 20
75.06937873694292
 30
0.0
  0
SEQEND
  5
217
330
211
100
AcDbEntity
  8
MODELSKETCH_VISIBLE
  0
ENDBLK
  5
210
330
20D
100
AcDbEntity
  8
0
100
AcDbBlockEnd
  0
BLOCK
  5
21A
330
218
100
AcDbEntity
  8
0
100
AcDbBlockBegin
  2
BLOCK_46
 70
     0
 10
0.0
 20
0.0
 30
0.0
  3
BLOCK_46
  1

  0
POLYLINE
  5
21C
330
218
100
AcDbEntity
  8
MODELSKETCH_VISIBLE
100
AcDb2dPolyline
 66
     1
 10
0.0
 20
0.0
 30
0.0
  0
VERTEX
  5
21D
330
21C
100
AcDbEntity
  8
MODELSKETCH_VISIBLE
100
AcDbVertex
100
AcDb2dVertex
 10
142.7313742737318
 20
81.83039539046962
 30
0.0
  0
VERTEX
  5
21E
330
21C
100
AcDbEntity
  8
MODELSKETCH_VISIBLE
100
AcDbVertex
100
AcDb2dVertex
 10
139.922988158385
 20
82.99292622510333
 30
0.0
  0
VERTEX
  5
21F
330
21C
100
AcDbEntity
  8
MODELSKETCH_VISIBLE
100
AcDbVertex
100
AcDb2dVertex
 10
139.7307545589921
 20
82.53157564324925
 30
0.0
  0
VERTEX
  5
220
330
21C
100
AcDbEntity
  8
MODELSKETCH_VISIBLE
100
AcDbVertex
100
AcDb2dVertex
 10
139.5403590987632
 20
82.07022506139516
 30
0.0
  0
VERTEX
  5
221
330
21C
100
AcDbEntity
  8
MODELSKETCH_VISIBLE
100
AcDbVertex
100
AcDb2dVertex
 10
142.3487508011589
 20
80.9076886397125
 30
0.0
  0
SEQEND
  5
222
330
21C
100
AcDbEntity
  8
MODELSKETCH_VISIBLE
  0
ENDBLK
  5
21B
330
218
100
AcDbEntity
  8
0
100
AcDbBlockEnd
  0
BLOCK
  5
225
330
223
100
AcDbEntity
  8
0
100
AcDbBlockBegin
  2
BLOCK_47
 70
     0
 10
0.0
 20
0.0
 30
0.0
  3
BLOCK_47
  1

  0
POLYLINE
  5
227
330
223
100
AcDbEntity
  8
MODELSKETCH_VISIBLE
100
AcDb2dPolyline
 66
     1
 10
0.0
 20
0.0
 30
0.0
  0
VERTEX
  5
228
330
227
100
AcDbEntity
  8
MODELSKETCH_VISIBLE
100
AcDbVertex
100
AcDb2dVertex
 10
145.8528362740894
 20
107.5233403265825
 30
0.0
  0
VERTEX
  5
229
330
227
100
AcDbEntity
  8
MODELSKETCH_VISIBLE
100
AcDbVertex
100
AcDb2dVertex
 10
142.8393942815981
 20
107.1278945762581
 30
0.0
  0
VERTEX
  5
22A
330
227
100
AcDbEntity
  8
MODELSKETCH_VISIBLE
100
AcDbVertex
100
AcDb2dVertex
 10
142.9034665610133
 20
106.6317590265247
 30
0.0
  0
VERTEX
  5
22B
330
227
100
AcDbEntity
  8
MODELSKETCH_VISIBLE
100
AcDbVertex
100
AcDb2dVertex
 10
142.9693825666408
 20
106.1374504418569
 30
0.0
  0
VERTEX
  5
22C
330
227
100
AcDbEntity
  8
MODELSKETCH_VISIBLE
100
AcDbVertex
100
AcDb2dVertex
 10
145.9828133850336
 20
106.5328961921814
 30
0.0
  0
SEQEND
  5
22D
330
227
100
AcDbEntity
  8
MODELSKETCH_VISIBLE
  0
ENDBLK
  5
226
330
223
100
AcDbEntity
  8
0
100
AcDbBlockEnd
  0
BLOCK
  5
230
330
22E
100
AcDbEntity
  8
0
100
AcDbBlockBegin
  2
BLOCK_48
 70
     0
 10
0.0
 20
0.0
 30
0.0
  3
BLOCK_48
  1

  0
POLYLINE
  5
232
330
22E
100
AcDbEntity
  8
MODELSKETCH_VISIBLE
100
AcDb2dPolyline
 66
     1
 10
0.0
 20
0.0
 30
0.0
  0
VERTEX
  5
233
330
232
100
AcDbEntity
  8
MODELSKETCH_VISIBLE
100
AcDbVertex
100
AcDb2dVertex
 10
144.7708483397039
 20
88.04400973145222
 30
0.0
  0
VERTEX
  5
234
330
232
100
AcDbEntity
  8
MODELSKETCH_VISIBLE
100
AcDbVertex
100
AcDb2dVertex
 10
141.8361390435433
 20
88.83123612787291
 30
0.0
  0
VERTEX
  5
235
330
232
100
AcDbEntity
  8
MODELSKETCH_VISIBLE
100
AcDbVertex
100
AcDb2dVertex
 10
141.7061507585007
 20
88.34791168179292
 30
0.0
  0
VERTEX
  5
236
330
232
100
AcDbEntity
  8
MODELSKETCH_VISIBLE
100
AcDbVertex
100
AcDb2dVertex
 10
141.5761624734574
 20
87.86642537487697
 30
0.0
  0
VERTEX
  5
237
330
232
100
AcDbEntity
  8
MODELSKETCH_VISIBLE
100
AcDbVertex
100
AcDb2dVertex
 10
144.5127154958309
 20
87.07919339140733
 30
0.0
  0
SEQEND
  5
238
330
232
100
AcDbEntity
  8
MODELSKETCH_VISIBLE
  0
ENDBLK
  5
231
330
22E
100
AcDbEntity
  8
0
100
AcDbBlockEnd
  0
BLOCK
  5
23B
330
239
100
AcDbEntity
  8
0
100
AcDbBlockBegin
  2
BLOCK_49
 70
     0
 10
0.0
 20
0.0
 30
0.0
  3
BLOCK_49
  1

  0
POLYLINE
  5
23D
330
239
100
AcDbEntity
  8
MODELSKETCH_VISIBLE
100
AcDb2dPolyline
 66
     1
 10
0.0
 20
0.0
 30
0.0
  0
VERTEX
  5
23E
330
23D
100
AcDbEntity
  8
MODELSKETCH_VISIBLE
100
AcDbVertex
100
AcDb2dVertex
 10
144.5127154958309
 20
113.9255203692047
 30
0.0
  0
VERTEX
  5
23F
330
23D
100
AcDbEntity
  8
MODELSKETCH_VISIBLE
100
AcDbVertex
100
AcDb2dVertex
 10
141.5761624734574
 20
113.1382939727843
 30
0.0
  0
VERTEX
  5
240
330
23D
100
AcDbEntity
  8
MODELSKETCH_VISIBLE
100
AcDbVertex
100
AcDb2dVertex
 10
141.7061507585007
 20
112.6568020788191
 30
0.0
  0
VERTEX
  5
241
330
23D
100
AcDbEntity
  8
MODELSKETCH_VISIBLE
100
AcDbVertex
100
AcDb2dVertex
 10
141.8361390435433
 20
112.1734804262639
 30
0.0
  0
VERTEX
  5
242
330
23D
100
AcDbEntity
  8
MODELSKETCH_VISIBLE
100
AcDbVertex
100
AcDb2dVertex
 10
144.7708483397039
 20
112.9607096162088
 30
0.0
  0
SEQEND
  5
243
330
23D
100
AcDbEntity
  8
MODELSKETCH_VISIBLE
  0
ENDBLK
  5
23C
330
239
100
AcDbEntity
  8
0
100
AcDbBlockEnd
  0
BLOCK
  5
246
330
244
100
AcDbEntity
  8
0
100
AcDbBlockBegin
  2
BLOCK_50
 70
     0
 10
0.0
 20
0.0
 30
0.0
  3
BLOCK_50
  1

  0
POLYLINE
  5
248
330
244
100
AcDbEntity
  8
MODELSKETCH_VISIBLE
100
AcDb2dPolyline
 66
     1
 10
0.0
 20
0.0
 30
0.0
  0
VERTEX
  5
249
330
248
100
AcDbEntity
  8
MODELSKETCH_VISIBLE
100
AcDbVertex
100
AcDb2dVertex
 10
145.9828133850336
 20
94.47182036195515
 30
0.0
  0
VERTEX
  5
24A
330
248
100
AcDbEntity
  8
MODELSKETCH_VISIBLE
100
AcDbVertex
100
AcDb2dVertex
 10
142.9693825666408
 20
94.86909866439407
 30
0.0
  0
VERTEX
  5
24B
330
248
100
AcDbEntity
  8
MODELSKETCH_VISIBLE
100
AcDbVertex
100
AcDb2dVertex
 10
142.9034665610133
 20
94.37295752761212
 30
0.0
  0
VERTEX
  5
24C
330
248
100
AcDbEntity
  8
MODELSKETCH_VISIBLE
100
AcDbVertex
100
AcDb2dVertex
 10
142.8393942815981
 20
93.8786545299929
 30
0.0
  0
VERTEX
  5
24D
330
248
100
AcDbEntity
  8
MODELSKETCH_VISIBLE
100
AcDbVertex
100
AcDb2dVertex
 10
145.8528362740894
 20
93.48137622755398
 30
0.0
  0
SEQEND
  5
24E
330
248
100
AcDbEntity
  8
MODELSKETCH_VISIBLE
  0
ENDBLK
  5
247
330
244
100
AcDbEntity
  8
0
100
AcDbBlockEnd
  0
BLOCK
  5
251
330
24F
100
AcDbEntity
  8
0
100
AcDbBlockBegin
  2
BLOCK_51
 70
     0
 10
0.0
 20
0.0
 30
0.0
  3
BLOCK_51
  1

  0
POLYLINE
  5
253
330
24F
100
AcDbEntity
  8
MODELSKETCH_VISIBLE
100
AcDb2dPolyline
 66
     1
 10
0.0
 20
0.0
 30
0.0
  0
VERTEX
  5
254
330
253
100
AcDbEntity
  8
MODELSKETCH_VISIBLE
100
AcDbVertex
100
AcDb2dVertex
 10
142.3487508011589
 20
120.098857673014
 30
0.0
  0
VERTEX
  5
255
330
253
100
AcDbEntity
  8
MODELSKETCH_VISIBLE
100
AcDbVertex
100
AcDb2dVertex
 10
139.5403590987632
 20
118.9344914927417
 30
0.0
  0
VERTEX
  5
256
330
253
100
AcDbEntity
  8
MODELSKETCH_VISIBLE
100
AcDbVertex
100
AcDb2dVertex
 10
139.7307545589921
 20
118.4731409108876
 30
0.0
  0
VERTEX
  5
257
330
253
100
AcDbEntity
  8
MODELSKETCH_VISIBLE
100
AcDbVertex
100
AcDb2dVertex
 10
139.922988158385
 20
118.011787535509
 30
0.0
  0
VERTEX
  5
258
330
253
100
AcDbEntity
  8
MODELSKETCH_VISIBLE
100
AcDbVertex
100
AcDb2dVertex
 10
142.7313742737318
 20
119.1743239571917
 30
0.0
  0
SEQEND
  5
259
330
253
100
AcDbEntity
  8
MODELSKETCH_VISIBLE
  0
ENDBLK
  5
252
330
24F
100
AcDbEntity
  8
0
100
AcDbBlockEnd
  0
ENDSEC
  0
SECTION
  2
ENTITIES
  0
INSERT
  5
42
330
1F
100
AcDbEntity
  8
MODELSKETCH_VISIBLE
100
AcDbBlockReference
  2
BLOCK_2
 10
0.0
 20
0.0
 30
0.0
  0
INSERT
  5
46
330
1F
100
AcDbEntity
  8
MODELSKETCH_VISIBLE
100
AcDbBlockReference
  2
BLOCK_3
 10
0.0
 20
0.0
 30
0.0
  0
INSERT
  5
51
330
1F
100
AcDbEntity
  8
MODELSKETCH_VISIBLE
100
AcDbBlockReference
  2
BLOCK_4
 10
0.0
 20
0.0
 30
0.0
  0
INSERT
  5
5C
330
1F
100
AcDbEntity
  8
MODELSKETCH_VISIBLE
100
AcDbBlockReference
  2
BLOCK_5
 10
0.0
 20
0.0
 30
0.0
  0
INSERT
  5
61
330
1F
100
AcDbEntity
  8
MODELSKETCH_VISIBLE
100
AcDbBlockReference
  2
BLOCK_6
 10
0.0
 20
0.0
 30
0.0
  0
INSERT
  5
6C
330
1F
100
AcDbEntity
  8
MODELSKETCH_VISIBLE
100
AcDbBlockReference
  2
BLOCK_7
 10
0.0
 20
0.0
 30
0.0
  0
INSERT
  5
77
330
1F
100
AcDbEntity
  8
MODELSKETCH_VISIBLE
100
AcDbBlockReference
  2
BLOCK_8
 10
0.0
 20
0.0
 30
0.0
  0
INSERT
  5
82
330
1F
100
AcDbEntity
  8
MODELSKETCH_VISIBLE
100
AcDbBlockReference
  2
BLOCK_9
 10
0.0
 20
0.0
 30
0.0
  0
INSERT
  5
8D
330
1F
100
AcDbEntity
  8
MODELSKETCH_VISIBLE
100
AcDbBlockReference
  2
BLOCK_10
 10
0.0
 20
0.0
 30
0.0
  0
INSERT
  5
98
330
1F
100
AcDbEntity
  8
MODELSKETCH_VISIBLE
100
AcDbBlockReference
  2
BLOCK_11
 10
0.0
 20
0.0
 30
0.0
  0
INSERT
  5
A3
330
1F
100
AcDbEntity
  8
MODELSKETCH_VISIBLE
100
AcDbBlockReference
  2
BLOCK_12
 10
0.0
 20
0.0
 30
0.0
  0
INSERT
  5
AE
330
1F
100
AcDbEntity
  8
MODELSKETCH_VISIBLE
100
AcDbBlockReference
  2
BLOCK_13
 10
0.0
 20
0.0
 30
0.0
  0
INSERT
  5
B9
330
1F
100
AcDbEntity
  8
MODELSKETCH_VISIBLE
100
AcDbBlockReference
  2
BLOCK_14
 10
0.0
 20
0.0
 30
0.0
  0
INSERT
  5
C4
330
1F
100
AcDbEntity
  8
MODELSKETCH_VISIBLE
100
AcDbBlockReference
  2
BLOCK_15
 10
0.0
 20
0.0
 30
0.0
  0
INSERT
  5
CF
330
1F
100
AcDbEntity
  8
MODELSKETCH_VISIBLE
100
AcDbBlockReference
  2
BLOCK_16
 10
0.0
 20
0.0
 30
0.0
  0
INSERT
  5
DA
330
1F
100
AcDbEntity
  8
MODELSKETCH_VISIBLE
100
AcDbBlockReference
  2
BLOCK_17
 10
0.0
 20
0.0
 30
0.0
  0
INSERT
  5
E5
330
1F
100
AcDbEntity
  8
MODELSKETCH_VISIBLE
100
AcDbBlockReference
  2
BLOCK_18
 10
0.0
 20
0.0
 30
0.0
  0
INSERT
  5
F0
330
1F
100
AcDbEntity
  8
MODELSKETCH_VISIBLE
100
AcDbBlockReference
  2
BLOCK_19
 10
0.0
 20
0.0
 30
0.0
  0
INSERT
  5
FB
330
1F
100
AcDbEntity
  8
MODELSKETCH_VISIBLE
100
AcDbBlockReference
  2
BLOCK_20
 10
0.0
 20
0.0
 30
0.0
  0
INSERT
  5
106
330
1F
100
AcDbEntity
  8
MODELSKETCH_VISIBLE
100
AcDbBlockReference
  2
BLOCK_21
 10
0.0
 20
0.0
 30
0.0
  0
INSERT
  5
111
330
1F
100
AcDbEntity
  8
MODELSKETCH_VISIBLE
100
AcDbBlockReference
  2
BLOCK_22
 10
0.0
 20
0.0
 30
0.0
  0
INSERT
  5
11C
330
1F
100
AcDbEntity
  8
MODELSKETCH_VISIBLE
100
AcDbBlockReference
  2
BLOCK_23
 10
0.0
 20
0.0
 30
0.0
  0
INSERT
  5
127
330
1F
100
AcDbEntity
  8
MODELSKETCH_VISIBLE
100
AcDbBlockReference
  2
BLOCK_24
 10
0.0
 20
0.0
 30
0.0
  0
INSERT
  5
132
330
1F
100
AcDbEntity
  8
MODELSKETCH_VISIBLE
100
AcDbBlockReference
  2
BLOCK_25
 10
0.0
 20
0.0
 30
0.0
  0
INSERT
  5
13D
330
1F
100
AcDbEntity
  8
MODELSKETCH_VISIBLE
100
AcDbBlockReference
  2
BLOCK_26
 10
0.0
 20
0.0
 30
0.0
  0
INSERT
  5
148
330
1F
100
AcDbEntity
  8
MODELSKETCH_VISIBLE
100
AcDbBlockReference
  2
BLOCK_27
 10
0.0
 20
0.0
 30
0.0
  0
INSERT
  5
153
330
1F
100
AcDbEntity
  8
MODELSKETCH_VISIBLE
100
AcDbBlockReference
  2
BLOCK_28
 10
0.0
 20
0.0
 30
0.0
  0
INSERT
  5
15E
330
1F
100
AcDbEntity
  8
MODELSKETCH_VISIBLE
100
AcDbBlockReference
  2
BLOCK_29
 10
0.0
 20
0.0
 30
0.0
  0
INSERT
  5
169
330
1F
100
AcDbEntity
  8
MODELSKETCH_VISIBLE
100
AcDbBlockReference
  2
BLOCK_30
 10
0.0
 20
0.0
 30
0.0
  0
INSERT
  5
174
330
1F
100
AcDbEntity
  8
MODELSKETCH_VISIBLE
100
AcDbBlockReference
  2
BLOCK_31
 10
0.0
 20
0.0
 30
0.0
  0
INSERT
  5
17F
330
1F
100
AcDbEntity
  8
MODELSKETCH_VISIBLE
100
AcDbBlockReference
  2
BLOCK_32
 10
0.0
 20
0.0
 30
0.0
  0
INSERT
  5
18A
330
1F
100
AcDbEntity
  8
MODELSKETCH_VISIBLE
100
AcDbBlockReference
  2
BLOCK_33
 10
0.0
 20
0.0
 30
0.0
  0
INSERT
  5
195
330
1F
100
AcDbEntity
  8
MODELSKETCH_VISIBLE
100
AcDbBlockReference
  2
BLOCK_34
 10
0.0
 20
0.0
 30
0.0
  0
INSERT
  5
1A0
330
1F
100
AcDbEntity
  8
MODELSKETCH_VISIBLE
100
AcDbBlockReference
  2
BLOCK_35
 10
0.0
 20
0.0
 30
0.0
  0
INSERT
  5
1AB
330
1F
100
AcDbEntity
  8
MODELSKETCH_VISIBLE
100
AcDbBlockReference
  2
BLOCK_36
 10
0.0
 20
0.0
 30
0.0
  0
INSERT
  5
1B6
330
1F
100
AcDbEntity
  8
MODELSKETCH_VISIBLE
100
AcDbBlockReference
  2
BLOCK_37
 10
0.0
 20
0.0
 30
0.0
  0
INSERT
  5
1C1
330
1F
100
AcDbEntity
  8
MODELSKETCH_VISIBLE
100
AcDbBlockReference
  2
BLOCK_38
 10
0.0
 20
0.0
 30
0.0
  0
INSERT
  5
1CC
330
1F
100
AcDbEntity
  8
MODELSKETCH_VISIBLE
100
AcDbBlockReference
  2
BLOCK_39
 10
0.0
 20
0.0
 30
0.0
  0
INSERT
  5
1D7
330
1F
100
AcDbEntity
  8
MODELSKETCH_VISIBLE
100
AcDbBlockReference
  2
BLOCK_40
 10
0.0
 20
0.0
 30
0.0
  0
INSERT
  5
1E2
330
1F
100
AcDbEntity
  8
MODELSKETCH_VISIBLE
100
AcDbBlockReference
  2
BLOCK_41
 10
0.0
 20
0.0
 30
0.0
  0
INSERT
  5
1ED
330
1F
100
AcDbEntity
  8
MODELSKETCH_VISIBLE
100
AcDbBlockReference
  2
BLOCK_42
 10
0.0
 20
0.0
 30
0.0
  0
INSERT
  5
1F8
330
1F
100
AcDbEntity
  8
MODELSKETCH_VISIBLE
100
AcDbBlockReference
  2
BLOCK_43
 10
0.0
 20
0.0
 30
0.0
  0
INSERT
  5
203
330
1F
100
AcDbEntity
  8
MODELSKETCH_VISIBLE
100
AcDbBlockReference
  2
BLOCK_44
 10
0.0
 20
0.0
 30
0.0
  0
INSERT
  5
20E
330
1F
100
AcDbEntity
  8
MODELSKETCH_VISIBLE
100
AcDbBlockReference
  2
BLOCK_45
 10
0.0
 20
0.0
 30
0.0
  0
INSERT
  5
219
330
1F
100
AcDbEntity
  8
MODELSKETCH_VISIBLE
100
AcDbBlockReference
  2
BLOCK_46
 10
0.0
 20
0.0
 30
0.0
  0
INSERT
  5
224
330
1F
100
AcDbEntity
  8
MODELSKETCH_VISIBLE
100
AcDbBlockReference
  2
BLOCK_47
 10
0.0
 20
0.0
 30
0.0
  0
INSERT
  5
22F
330
1F
100
AcDbEntity
  8
MODELSKETCH_VISIBLE
100
AcDbBlockReference
  2
BLOCK_48
 10
0.0
 20
0.0
 30
0.0
  0
INSERT
  5
23A
330
1F
100
AcDbEntity
  8
MODELSKETCH_VISIBLE
100
AcDbBlockReference
  2
BLOCK_49
 10
0.0
 20
0.0
 30
0.0
  0
INSERT
  5
245
330
1F
100
AcDbEntity
  8
MODELSKETCH_VISIBLE
100
AcDbBlockReference
  2
BLOCK_50
 10
0.0
 20
0.0
 30
0.0
  0
INSERT
  5
250
330
1F
100
AcDbEntity
  8
MODELSKETCH_VISIBLE
100
AcDbBlockReference
  2
BLOCK_51
 10
0.0
 20
0.0
 30
0.0
  0
SPLINE
  5
25A
330
1F
100
AcDbEntity
  8
MODELSKETCH_VISIBLE
100
AcDbSpline
210
0.0
220
0.0
230
1.0
 70
    11
 71
     3
 72
    56
 73
    52
 74
     0
 42
0.0000000001
 43
0.0000000001
 12
1.0
 22
0.0
 32
0.0
 13
1.0
 23
0.0
 33
0.0
 40
0.0
 40
0.0
 40
0.0
 40
0.0
 40
1.0
 40
1.0
 40
1.0
 40
2.0
 40
2.0
 40
2.0
 40
3.0
 40
3.0
 40
3.0
 40
4.0
 40
4.0
 40
4.0
 40
5.0
 40
5.0
 40
5.0
 40
6.0
 40
6.0
 40
6.0
 40
7.0
 40
7.0
 40
7.0
 40
8.0
 40
8.0
 40
8.0
 40
9.0
 40
9.0
 40
9.0
 40
10.0
 40
10.0
 40
10.0
 40
11.0
 40
11.0
 40
11.0
 40
12.0
 40
12.0
 40
12.0
 40
13.0
 40
13.0
 40
13.0
 40
14.0
 40
14.0
 40
14.0
 40
15.0
 40
15.0
 40
15.0
 40
16.0
 40
16.0
 40
16.0
 40
17.0
 40
17.0
 40
17.0
 40
17.0
 10
101.396384651394
 20
150.2515458518168
 30
0.0
 10
103.1788097610243
 20
153.0410603119671
 30
0.0
 10
102.3624022070017
 20
156.7473496480566
 30
0.0
 10
99.57288914361365
 20
158.5297747576872
 30
0.0
 10
96.78337608022558
 20
160.3121999546153
 30
0.0
 10
93.07708412520701
 20
159.4957927218205
 30
0.0
 10
91.29465901557637
 20
156.7062782023352
 30
0.0
 10
90.5222466799226
 20
155.4974431266849
 30
0.0
 10
90.20899480286434
 20
154.0516715985816
 30
0.0
 10
90.41179909920966
 20
152.6315393881236
 30
0.0
 10
90.41179909920966
 20
152.6315393881236
 30
0.0
 10
90.41179909920966
 20
152.6315393881236
 30
0.0
 10
90.41179909920966
 20
152.6315393881236
 30
0.0
 10
91.38942654290821
 20
152.7413849642928
 30
0.0
 10
92.41099333448422
 20
152.8256006509627
 30
0.0
 10
93.40326722747504
 20
152.8805234390473
 30
0.0
 10
93.40326722747504
 20
152.8805234390473
 30
0.0
 10
93.40326722747504
 20
152.8805234390473
 30
0.0
 10
93.40326722747504
 20
152.8805234390473
 30
0.0
 10
93.36447634537022
 20
153.0764849969717
 30
0.0
 10
93.34485462882797
 20
153.2757575798862
 30
0.0
 10
93.34468143030502
 20
153.475521823124
 30
0.0
 10
93.34468143030502
 20
153.475521823124
 30
0.0
 10
93.34468143030502
 20
153.475521823124
 30
0.0
 10
93.34468143030502
 20
153.475521823124
 30
0.0
 10
93.34468143030502
 20
155.1317093036303
 30
0.0
 10
94.68728844542568
 20
156.4743145727982
 30
0.0
 10
96.34347417997925
 20
156.4743145727982
 30
0.0
 10
97.99965991453217
 20
156.4743145727982
 30
0.0
 10
99.34226692965316
 20
155.1317093036303
 30
0.0
 10
99.34226692965316
 20
153.475521823124
 30
0.0
 10
99.35340191856788
 20
151.8395947287135
 30
0.0
 10
98.03625508632979
 20
150.5043849666399
 30
0.0
 10
96.4003279919193
 20
150.4932471842007
 30
0.0
 10
96.3893103310362
 20
150.4931724574187
 30
0.0
 10
96.37829267015312
 20
150.4931584897957
 30
0.0
 10
96.36727500927002
 20
150.4932066780946
 30
0.0
 10
68.7611819815233
 20
150.4932066780946
 30
0.0
 10
46.38741074683203
 20
128.1139461676337
 30
0.0
 10
46.38741074683203
 20
100.5133424156569
 30
0.0
 10
46.38741074683203
 20
72.91273866367914
 30
0.0
 10
68.76667265405514
 20
50.53348374026753
 30
0.0
 10
96.36727500927002
 20
50.53348374026753
 30
0.0
 10
123.9678787612475
 20
50.53348374026753
 30
0.0
 10
146.3471336846591
 20
72.91274425072872
 30
0.0
 10
146.3471336846591
 20
100.5133480027058
 30
0.0
 10
146.3471336846591
 20
126.4223245739777
 30
0.0
 10
126.6334654878973
 20
147.7269301520355
 30
0.0
 10
101.3872218908217
 20
150.2478905249242
 30
0.0
 10
101.3872218908217
 20
150.2478905249242
 30
0.0
 10
101.396384651394
 20
150.2515458518168
 30
0.0
 10
101.396384651394
 20
150.2515458518168
 30
0.0
  0
ENDSEC
  0
SECTION
  2
OBJECTS
  0
DICTIONARY
  5
C
330
0
100
AcDbDictionary
  3
ACAD_GROUP
350
D
  3
ACAD_LAYOUT
350
1A
  3
ACAD_MATERIAL
350
3B
  3
ACAD_MLEADERSTYLE
350
27D
  3
ACAD_MLINESTYLE
350
17
  3
ACAD_PLOTSETTINGS
350
19
  3
ACAD_VISUALSTYLE
350
2A
  3
ACDBHEADERROUNDTRIPXREC
350
25B
  3
ACDBVARIABLEDICTIONARY
350
27B
  0
DICTIONARY
  5
D
102
{ACAD_REACTORS
330
C
102
}
330
C
100
AcDbDictionary
  0
DICTIONARY
  5
1A
102
{ACAD_REACTORS
330
C
102
}
330
C
100
AcDbDictionary
  0
DICTIONARY
  5
3B
102
{ACAD_REACTORS
330
C
102
}
330
C
100
AcDbDictionary
  3
BYBLOCK
350
3D
  3
BYLAYER
350
3C
  3
GLOBAL
350
3E
  0
DICTIONARY
  5
27D
102
{ACAD_REACTORS
330
C
102
}
330
C
100
AcDbDictionary
  0
DICTIONARY
  5
17
102
{ACAD_REACTORS
330
C
102
}
330
C
100
AcDbDictionary
  3
STANDARD
350
18
  0
DICTIONARY
  5
19
102
{ACAD_REACTORS
330
C
102
}
330
C
100
AcDbDictionary
  0
DICTIONARY
  5
2A
102
{ACAD_REACTORS
330
C
102
}
330
C
100
AcDbDictionary
  3
2DWIREFRAME
350
2F
  3
3DWIREFRAME
350
30
  3
3D_HIDDEN
350
31
  3
BASIC
350
32
  3
BRIGHTEN
350
36
  3
COLORCHANGE
350
3A
  3
CONCEPTUAL
350
34
  3
DIM
350
35
  3
FACEPATTERN
350
39
  3
FLAT
350
2B
  3
FLATWITHEDGES
350
2C
  3
GOURAUD
350
2D
  3
GOURAUDWITHEDGES
350
2E
  3
LINEPATTERN
350
38
  3
REALISTIC
350
33
  3
THICKEN
350
37
  0
DICTIONARY
  5
25B
102
{ACAD_REACTORS
330
C
102
}
330
C
100
AcDbDictionary
  3
CEPSNTYPE
350
264
  3
DIMSTYLEDATA
350
27A
  3
FINGERPRINTGUID
350
265
  3
HYPERLINKBASE
350
25E
  3
INSUNITS
350
263
  3
LAYOUTDICT
350
260
  3
LWETCUNION
350
262
  3
PLOTSETDICT
350
261
  3
PSVPSCALE
350
267
  3
PUCSBASE
350
26A
  3
PUCSORGBACK
350
270
  3
PUCSORGBOTTOM
350
26C
  3
PUCSORGFRONT
350
26F
  3
PUCSORGLEFT
350
26D
  3
PUCSORGRIGHT
350
26E
  3
PUCSORGTOP
350
26B
  3
PUCSORTHOREF
350
268
  3
PUCSORTHOVIEW
350
269
  3
STYLESHEET
350
25F
  3
TSTACKALIGN
350
25C
  3
TSTACKSIZE
350
25D
  3
UCSBASE
350
273
  3
UCSORGBACK
350
279
  3
UCSORGBOTTOM
350
275
  3
UCSORGFRONT
350
278
  3
UCSORGLEFT
350
276
  3
UCSORGRIGHT
350
277
  3
UCSORGTOP
350
274
  3
UCSORTHOREF
350
271
  3
UCSORTHOVIEW
350
272
  3
VERSIONGUID
350
266
  0
DICTIONARY
  5
27B
102
{ACAD_REACTORS
330
C
102
}
330
C
100
AcDbDictionary
  3
DIMASSOC
350
27E
  3
HIDETEXT
350
27F
  0
MATERIAL
  5
3D
102
{ACAD_REACTORS
330
3B
102
}
102
{ACAD_XDICTIONARY
360
282
102
}
330
3B
100
AcDbMaterial
  1
ByBlock
  0
MATERIAL
  5
3C
102
{ACAD_REACTORS
330
3B
102
}
102
{ACAD_XDICTIONARY
360
280
102
}
330
3B
100
AcDbMaterial
  1
ByLayer
  0
MATERIAL
  5
3E
102
{ACAD_REACTORS
330
3B
102
}
102
{ACAD_XDICTIONARY
360
284
102
}
330
3B
100
AcDbMaterial
  1
Global
  0
MLINESTYLE
  5
18
102
{ACAD_REACTORS
330
17
102
}
330
17
100
AcDbMlineStyle
  2
Standard
 70
     0
  3

 62
   256
 51
90.0
 52
90.0
 71
     2
 49
0.5
 62
   256
  6
BYLAYER
 49
-0.5
 62
   256
  6
BYLAYER
  0
ACAD_PROXY_OBJECT
  5
2F
102
{ACAD_REACTORS
330
2A
102
}
330
2A
100
AcDbProxyObject
 90
      499
 91
      501
 93
      436
310
42CC9915DA5C99599C985B595049028333333333333E3BF0000000000000FB0107901411070040501600405405064090741402480A0340
1001
ACAD
1000
AcDbSavedByObjectVersion
1070
     0
  0
ACAD_PROXY_OBJECT
  5
30
102
{ACAD_REACTORS
330
2A
102
}
330
2A
100
AcDbProxyObject
 90
      499
 91
      501
 93
      436
310
42CCD915DA5C99599C985B595059028333333333333E3BF0000000000000FB0107901411070040501600405405064090741402480A0340
1001
ACAD
1000
AcDbSavedByObjectVersion
1070
     0
  0
ACAD_PROXY_OBJECT
  5
31
102
{ACAD_REACTORS
330
2A
102
}
330
2A
100
AcDbProxyObject
 90
      499
 91
      501
 93
      500
310
424CD108121A5919195B90640502408333333333333E3BF0000000000000FB01079024090700405020000000000001110200405405064090740C02480A0340
1001
ACAD
1000
AcDbSavedByObjectVersion
1070
     0
  0
ACAD_PROXY_OBJECT
  5
32
102
{ACAD_REACTORS
330
2A
102
}
330
2A
100
AcDbProxyObject
 90
      499
 91
      501
 93
      388
310
4150985CDA58D07406404333333333333E3BF0000000000000FB0107A41107004050150841D405064090741402480A0350
1001
ACAD
1000
AcDbSavedByObjectVersion
1070
     0
  0
ACAD_PROXY_OBJECT
  5
36
102
{ACAD_REACTORS
330
2A
102
}
330
2A
100
AcDbProxyObject
 90
      499
 91
      501
 93
      428
310
42109C9A59DA1D195B90C409028333333333333E3BF0000000000000FB010790141107004050150841D405064090741402480A029950
1001
ACAD
1000
AcDbSavedByObjectVersion
1070
     0
  0
ACAD_PROXY_OBJECT
  5
3A
102
{ACAD_REACTORS
330
2A
102
}
330
2A
100
AcDbProxyObject
 90
      499
 91
      501
 93
      452
310
42D0DBDB1BDC90DA185B99D95104090240C333333333333E3BF0000000000000FB0108901411070040501508421405064090741402480A0350
1001
ACAD
1000
AcDbSavedByObjectVersion
1070
     0
  0
ACAD_PROXY_OBJECT
  5
34
102
{ACAD_REACTORS
330
2A
102
}
330
2A
100
AcDbProxyObject
 90
      499
 91
      501
 93
      500
310
4290DBDB98D95C1D1D585B10940D028333333333333E3BF0000000000000FB0107902409070040501000000000000111010841D405064090740C02480A0340
1001
ACAD
1000
AcDbSavedByObjectVersion
1070
     0
  0
ACAD_PROXY_OBJECT
  5
35
102
{ACAD_REACTORS
330
2A
102
}
330
2A
100
AcDbProxyObject
 90
      499
 91
      501
 93
      412
310
40D11A5B50B409028333333333333E3BF0000000000000FB010790141107004050150841D405064090741402480A02677FFFFFD0
1001
ACAD
1000
AcDbSavedByObjectVersion
1070
     0
  0
ACAD_PROXY_OBJECT
  5
39
102
{ACAD_REACTORS
330
2A
102
}
330
2A
100
AcDbProxyObject
 90
      499
 91
      501
 93
      444
310
42D19858D95C185D1D195C9B90F409028333333333333E3BF0000000000000FB010790141107004050150841D405064090741402480A0350
1001
ACAD
1000
AcDbSavedByObjectVersion
1070
     0
  0
ACAD_PROXY_OBJECT
  5
2B
102
{ACAD_REACTORS
330
2A
102
}
330
2A
100
AcDbProxyObject
 90
      499
 91
      501
 93
      388
310
41119B185D240901404333333333333E3BF0000000000000F9010740A41107004050150841D405064090741402480A1B50
1001
ACAD
1000
AcDbSavedByObjectVersion
1070
     0
  0
ACAD_PROXY_OBJECT
  5
2C
102
{ACAD_REACTORS
330
2A
102
}
330
2A
100
AcDbProxyObject
 90
      499
 91
      501
 93
      476
310
43519B185D15DA5D1A115919D95CD0140901404333333333333E3BF0000000000000F9010740901411070040501600405405064090741402480A1B50
1001
ACAD
1000
AcDbSavedByObjectVersion
1070
     0
  0
ACAD_PROXY_OBJECT
  5
2D
102
{ACAD_REACTORS
330
2A
102
}
330
2A
100
AcDbProxyObject
 90
      499
 91
      501
 93
      412
310
41D1DBDD5C985D5910240902404333333333333E3BF0000000000000F9010740A411070040501641D405064090741402480A1B50
1001
ACAD
1000
AcDbSavedByObjectVersion
1070
     0
  0
ACAD_PROXY_OBJECT
  5
2E
102
{ACAD_REACTORS
330
2A
102
}
330
2A
100
AcDbProxyObject
 90
      499
 91
      501
 93
      500
310
4411DBDD5C985D5915DA5D1A115919D95CD0340902404333333333333E3BF0000000000000F9010740901411070040501600405405064090741402480A1B50
1001
ACAD
1000
AcDbSavedByObjectVersion
1070
     0
  0
ACAD_PROXY_OBJECT
  5
38
102
{ACAD_REACTORS
330
2A
102
}
330
2A
100
AcDbProxyObject
 90
      499
 91
      501
 93
      444
310
42D31A5B995C185D1D195C9B90E409028333333333333E3BF0000000000000FB010790141107004050750841D405064090741402483A0350
1001
ACAD
1000
AcDbSavedByObjectVersion
1070
     0
  0
ACAD_PROXY_OBJECT
  5
33
102
{ACAD_REACTORS
330
2A
102
}
330
2A
100
AcDbProxyObject
 90
      499
 91
      501
 93
      420
310
425499585B1A5CDD1A58D08409028333333333333E3BF0000000000000FB01079019070040501508421405064090741402480A1B40
1001
ACAD
1000
AcDbSavedByObjectVersion
1070
     0
  0
ACAD_PROXY_OBJECT
  5
37
102
{ACAD_REACTORS
330
2A
102
}
330
2A
100
AcDbProxyObject
 90
      499
 91
      501
 93
      412
310
41D51A1A58DAD95B90D409028333333333333E3BF0000000000000FB010790141107004050150C41D405064090741402480A0350
1001
ACAD
1000
AcDbSavedByObjectVersion
1070
     0
  0
XRECORD
  5
264
102
{ACAD_REACTORS
330
25B
102
}
330
25B
100
AcDbXrecord
 90
        0
  0
XRECORD
  5
27A
102
{ACAD_REACTORS
330
25B
102
}
330
25B
100
AcDbXrecord
1000
DSTYLE
1002
{
1070
   340
340
11
1002
}
  0
XRECORD
  5
265
102
{ACAD_REACTORS
330
25B
102
}
330
25B
100
AcDbXrecord
  1
{4856FD46-781D-204C-C5A1-0C659994D7BB}
  0
XRECORD
  5
25E
102
{ACAD_REACTORS
330
25B
102
}
330
25B
100
AcDbXrecord
  1

  0
XRECORD
  5
263
102
{ACAD_REACTORS
330
25B
102
}
330
25B
100
AcDbXrecord
 90
        1
  0
XRECORD
  5
260
102
{ACAD_REACTORS
330
25B
102
}
330
25B
100
AcDbXrecord
340
1A
  0
XRECORD
  5
262
102
{ACAD_REACTORS
330
25B
102
}
330
25B
100
AcDbXrecord
 90
    10269
  0
XRECORD
  5
261
102
{ACAD_REACTORS
330
25B
102
}
330
25B
100
AcDbXrecord
340
19
  0
XRECORD
  5
267
102
{ACAD_REACTORS
330
25B
102
}
330
25B
100
AcDbXrecord
 40
0.0
  0
XRECORD
  5
26A
102
{ACAD_REACTORS
330
25B
102
}
330
25B
100
AcDbXrecord
340
0
  0
XRECORD
  5
270
102
{ACAD_REACTORS
330
25B
102
}
330
25B
100
AcDbXrecord
 10
0.0
 20
0.0
 30
0.0
  0
XRECORD
  5
26C
102
{ACAD_REACTORS
330
25B
102
}
330
25B
100
AcDbXrecord
 10
0.0
 20
0.0
 30
0.0
  0
XRECORD
  5
26F
102
{ACAD_REACTORS
330
25B
102
}
330
25B
100
AcDbXrecord
 10
0.0
 20
0.0
 30
0.0
  0
XRECORD
  5
26D
102
{ACAD_REACTORS
330
25B
102
}
330
25B
100
AcDbXrecord
 10
0.0
 20
0.0
 30
0.0
  0
XRECORD
  5
26E
102
{ACAD_REACTORS
330
25B
102
}
330
25B
100
AcDbXrecord
 10
0.0
 20
0.0
 30
0.0
  0
XRECORD
  5
26B
102
{ACAD_REACTORS
330
25B
102
}
330
25B
100
AcDbXrecord
 10
0.0
 20
0.0
 30
0.0
  0
XRECORD
  5
268
102
{ACAD_REACTORS
330
25B
102
}
330
25B
100
AcDbXrecord
340
0
  0
XRECORD
  5
269
102
{ACAD_REACTORS
330
25B
102
}
330
25B
100
AcDbXrecord
 70
     0
  0
XRECORD
  5
25F
102
{ACAD_REACTORS
330
25B
102
}
330
25B
100
AcDbXrecord
  1

  0
XRECORD
  5
25C
102
{ACAD_REACTORS
330
25B
102
}
330
25B
100
AcDbXrecord
 90
        1
  0
XRECORD
  5
25D
102
{ACAD_REACTORS
330
25B
102
}
330
25B
100
AcDbXrecord
 90
       70
  0
XRECORD
  5
273
102
{ACAD_REACTORS
330
25B
102
}
330
25B
100
AcDbXrecord
340
0
  0
XRECORD
  5
279
102
{ACAD_REACTORS
330
25B
102
}
330
25B
100
AcDbXrecord
 10
0.0
 20
0.0
 30
0.0
  0
XRECORD
  5
275
102
{ACAD_REACTORS
330
25B
102
}
330
25B
100
AcDbXrecord
 10
0.0
 20
0.0
 30
0.0
  0
XRECORD
  5
278
102
{ACAD_REACTORS
330
25B
102
}
330
25B
100
AcDbXrecord
 10
0.0
 20
0.0
 30
0.0
  0
XRECORD
  5
276
102
{ACAD_REACTORS
330
25B
102
}
330
25B
100
AcDbXrecord
 10
0.0
 20
0.0
 30
0.0
  0
XRECORD
  5
277
102
{ACAD_REACTORS
330
25B
102
}
330
25B
100
AcDbXrecord
 10
0.0
 20
0.0
 30
0.0
  0
XRECORD
  5
274
102
{ACAD_REACTORS
330
25B
102
}
330
25B
100
AcDbXrecord
 10
0.0
 20
0.0
 30
0.0
  0
XRECORD
  5
271
102
{ACAD_REACTORS
330
25B
102
}
330
25B
100
AcDbXrecord
340
0
  0
XRECORD
  5
272
102
{ACAD_REACTORS
330
25B
102
}
330
25B
100
AcDbXrecord
 70
     0
  0
XRECORD
  5
266
102
{ACAD_REACTORS
330
25B
102
}
330
25B
100
AcDbXrecord
  1
{FAEB1C32-E019-11D5-929B-00C0DF256EC4}
  0
DICTIONARYVAR
  5
27E
102
{ACAD_REACTORS
330
27B
102
}
330
27B
100
DictionaryVariables
280
     0
  1
2
  0
DICTIONARYVAR
  5
27F
102
{ACAD_REACTORS
330
27B
102
}
330
27B
100
DictionaryVariables
280
     0
  1
1
  0
DICTIONARY
  5
282
330
3D
100
AcDbDictionary
280
     1
  3
ACAD_XREC_ROUNDTRIP
360
283
  0
DICTIONARY
  5
280
330
3C
100
AcDbDictionary
280
     1
  3
ACAD_XREC_ROUNDTRIP
360
281
  0
DICTIONARY
  5
284
330
3E
100
AcDbDictionary
280
     1
  3
ACAD_XREC_ROUNDTRIP
360
285
  0
XRECORD
  5
283
102
{ACAD_REACTORS
330
282
102
}
330
282
100
AcDbXrecord
102
MATERIAL
148
0.0
149
0.0
149
0.0
 93
        0
 94
      127
282
     0
 72
     1
 77
     1
171
     1
175
     1
179
     1
273
     0
  0
XRECORD
  5
281
102
{ACAD_REACTORS
330
280
102
}
330
280
100
AcDbXrecord
102
MATERIAL
148
0.0
149
0.0
149
0.0
 93
        0
 94
      127
282
     0
 72
     1
 77
     1
171
     1
175
     1
179
     1
273
     0
  0
XRECORD
  5
285
102
{ACAD_REACTORS
330
284
102
}
330
284
100
AcDbXrecord
102
MATERIAL
148
0.0
149
0.0
149
0.0
 93
        0
 94
      127
282
     0
 72
     1
 77
     1
171
     1
175
     1
179
     1
273
     0
  0
ENDSEC
  0
EOF
